M48
; DRILL file {KiCad 6.0.7+dfsg-1build1} date 2022年11月20日 16時39分57秒
; FORMAT={-:-/ absolute / inch / decimal}
; #@! TF.CreationDate,2022-11-20T16:39:57+09:00
; #@! TF.GenerationSoftware,Kicad,Pcbnew,6.0.7+dfsg-1build1
; #@! TF.FileFunction,Plated,1,2,PTH
FMAT,2
INCH
; #@! TA.AperFunction,Plated,PTH,ViaDrill
T1C0.0157
; #@! TA.AperFunction,Plated,PTH,ViaDrill
T2C0.0197
; #@! TA.AperFunction,Plated,PTH,ComponentDrill
T3C0.0197
; #@! TA.AperFunction,Plated,PTH,ComponentDrill
T4C0.0300
; #@! TA.AperFunction,Plated,PTH,ComponentDrill
T5C0.0315
; #@! TA.AperFunction,Plated,PTH,ComponentDrill
T6C0.0394
%
G90
G05
T1
X2.855Y-2.2479
X3.5318Y-1.7963
X3.6091Y-1.7657
X3.7214Y-1.8552
X3.92Y-1.4332
X3.9913Y-1.735
X4.0472Y-1.6745
X4.0472Y-1.8707
X4.0472Y-2.0297
T2
X2.0589Y-1.347
X2.2624Y-1.7069
X2.2852Y-2.5084
X3.2775Y-2.122
X3.3071Y-1.8504
X3.3543Y-1.7165
X3.4661Y-1.6028
T3
X2.2461Y-2.126
X2.3209Y-2.126
T4
X2.5787Y-1.2402
X2.6772Y-1.2402
X2.7717Y-1.6575
X2.7756Y-1.2402
X2.8346Y-1.5945
X2.8543Y-2.5197
X2.8976Y-1.6575
X3.0512Y-2.5197
X3.5394Y-2.0315
X3.6024Y-1.9685
X3.6654Y-2.0315
T5
X1.9211Y-1.6929
X2.0195Y-1.6929
X2.3622Y-1.2482
X2.3622Y-1.3467
X2.4291Y-1.8051
X2.4291Y-1.9051
X2.4291Y-2.0051
X2.4291Y-2.1051
X2.4291Y-2.2051
X2.4291Y-2.3051
X2.4291Y-2.4051
X2.4291Y-2.5051
X2.4291Y-2.6051
X2.5394Y-1.5274
X2.5394Y-1.6258
X2.7291Y-1.8051
X2.7291Y-1.9051
X2.7291Y-2.0051
X2.7291Y-2.1051
X2.7291Y-2.2051
X2.7291Y-2.3051
X2.7291Y-2.4051
X2.7291Y-2.5051
X2.7291Y-2.6051
X3.0155Y-1.2992
X3.114Y-1.2992
X3.2045Y-1.4724
X3.3029Y-1.4724
T6
X1.9882Y-1.9488
X2.3435Y-1.5256
X2.3435Y-1.6256
T0
M30
