%TF.GenerationSoftware,KiCad,Pcbnew,6.0.7+dfsg-1build1*%
%TF.CreationDate,2022-11-20T16:40:00+09:00*%
%TF.ProjectId,FM_Transciver,464d5f54-7261-46e7-9363-697665722e6b,rev?*%
%TF.SameCoordinates,Original*%
%TF.FileFunction,Paste,Top*%
%TF.FilePolarity,Positive*%
%FSLAX46Y46*%
G04 Gerber Fmt 4.6, Leading zero omitted, Abs format (unit mm)*
G04 Created by KiCad (PCBNEW 6.0.7+dfsg-1build1) date 2022-11-20 16:40:00*
%MOMM*%
%LPD*%
G01*
G04 APERTURE LIST*
G04 Aperture macros list*
%AMRoundRect*
0 Rectangle with rounded corners*
0 $1 Rounding radius*
0 $2 $3 $4 $5 $6 $7 $8 $9 X,Y pos of 4 corners*
0 Add a 4 corners polygon primitive as box body*
4,1,4,$2,$3,$4,$5,$6,$7,$8,$9,$2,$3,0*
0 Add four circle primitives for the rounded corners*
1,1,$1+$1,$2,$3*
1,1,$1+$1,$4,$5*
1,1,$1+$1,$6,$7*
1,1,$1+$1,$8,$9*
0 Add four rect primitives between the rounded corners*
20,1,$1+$1,$2,$3,$4,$5,0*
20,1,$1+$1,$4,$5,$6,$7,0*
20,1,$1+$1,$6,$7,$8,$9,0*
20,1,$1+$1,$8,$9,$2,$3,0*%
G04 Aperture macros list end*
%ADD10RoundRect,0.237500X-0.237500X0.300000X-0.237500X-0.300000X0.237500X-0.300000X0.237500X0.300000X0*%
%ADD11RoundRect,0.237500X-0.300000X-0.237500X0.300000X-0.237500X0.300000X0.237500X-0.300000X0.237500X0*%
%ADD12RoundRect,0.237500X-0.250000X-0.237500X0.250000X-0.237500X0.250000X0.237500X-0.250000X0.237500X0*%
%ADD13R,2.200000X2.800000*%
%ADD14R,2.800000X2.600000*%
%ADD15RoundRect,0.237500X0.300000X0.237500X-0.300000X0.237500X-0.300000X-0.237500X0.300000X-0.237500X0*%
%ADD16RoundRect,0.067500X-0.137500X-0.067500X0.137500X-0.067500X0.137500X0.067500X-0.137500X0.067500X0*%
%ADD17RoundRect,0.275000X0.275000X0.975000X-0.275000X0.975000X-0.275000X-0.975000X0.275000X-0.975000X0*%
%ADD18RoundRect,0.275000X-0.275000X-0.975000X0.275000X-0.975000X0.275000X0.975000X-0.275000X0.975000X0*%
%ADD19RoundRect,0.500000X0.750000X0.500000X-0.750000X0.500000X-0.750000X-0.500000X0.750000X-0.500000X0*%
%ADD20R,2.000000X0.400000*%
%ADD21RoundRect,0.500000X-0.750000X-0.500000X0.750000X-0.500000X0.750000X0.500000X-0.750000X0.500000X0*%
%ADD22RoundRect,0.237500X0.250000X0.237500X-0.250000X0.237500X-0.250000X-0.237500X0.250000X-0.237500X0*%
%ADD23RoundRect,0.067500X0.137500X0.067500X-0.137500X0.067500X-0.137500X-0.067500X0.137500X-0.067500X0*%
%ADD24R,2.000000X1.500000*%
%ADD25R,2.000000X3.800000*%
%ADD26RoundRect,0.237500X0.237500X-0.300000X0.237500X0.300000X-0.237500X0.300000X-0.237500X-0.300000X0*%
%ADD27RoundRect,0.237500X-0.237500X0.250000X-0.237500X-0.250000X0.237500X-0.250000X0.237500X0.250000X0*%
%ADD28RoundRect,0.237500X0.237500X-0.250000X0.237500X0.250000X-0.237500X0.250000X-0.237500X-0.250000X0*%
%ADD29R,1.000000X1.800000*%
%ADD30RoundRect,0.237500X0.237500X-0.287500X0.237500X0.287500X-0.237500X0.287500X-0.237500X-0.287500X0*%
G04 APERTURE END LIST*
D10*
%TO.C,C8*%
X57454000Y-66589500D03*
X57454000Y-68314500D03*
%TD*%
D11*
%TO.C,C14*%
X71837500Y-49000000D03*
X73562500Y-49000000D03*
%TD*%
D12*
%TO.C,R4*%
X71787500Y-47000000D03*
X73612500Y-47000000D03*
%TD*%
D13*
%TO.C,J1*%
X99100000Y-32750000D03*
D14*
X89700000Y-32650000D03*
D13*
X97100000Y-40150000D03*
%TD*%
D15*
%TO.C,C21*%
X74107500Y-59000000D03*
X72382500Y-59000000D03*
%TD*%
D12*
%TO.C,R5*%
X80287500Y-49000000D03*
X82112500Y-49000000D03*
%TD*%
D16*
%TO.C,L5*%
X84137500Y-33500000D03*
X84862500Y-33500000D03*
%TD*%
D17*
%TO.C,L1*%
X49700000Y-59000000D03*
X51500000Y-59000000D03*
D18*
X53300000Y-59000000D03*
D17*
X53300000Y-65000000D03*
X51500000Y-65000000D03*
X49700000Y-65000000D03*
D19*
X54100000Y-62000000D03*
X48900000Y-62000000D03*
%TD*%
D11*
%TO.C,C24*%
X80425000Y-46500000D03*
X82150000Y-46500000D03*
%TD*%
%TO.C,C1*%
X53658400Y-40856000D03*
X55383400Y-40856000D03*
%TD*%
D20*
%TO.C,U5*%
X88100000Y-41725000D03*
X88100000Y-42375000D03*
X88100000Y-43025000D03*
X88100000Y-43675000D03*
X88100000Y-44325000D03*
X88100000Y-44975000D03*
X88100000Y-45625000D03*
X88100000Y-46275000D03*
X93900000Y-46275000D03*
X93900000Y-45625000D03*
X93900000Y-44975000D03*
X93900000Y-44325000D03*
X93900000Y-43675000D03*
X93900000Y-43025000D03*
X93900000Y-42375000D03*
X93900000Y-41725000D03*
%TD*%
D21*
%TO.C,SW2*%
X93092000Y-60250000D03*
X93092000Y-55750000D03*
X101392000Y-60200000D03*
X101292000Y-55750000D03*
%TD*%
D11*
%TO.C,C4*%
X50637500Y-52500000D03*
X52362500Y-52500000D03*
%TD*%
D21*
%TO.C,SW3*%
X80900000Y-60250000D03*
X80900000Y-55750000D03*
X89100000Y-55750000D03*
X89200000Y-60200000D03*
%TD*%
D11*
%TO.C,C25*%
X85637500Y-50000000D03*
X87362500Y-50000000D03*
%TD*%
D10*
%TO.C,C10*%
X68500000Y-40637500D03*
X68500000Y-42362500D03*
%TD*%
%TO.C,C12*%
X59500000Y-64137500D03*
X59500000Y-65862500D03*
%TD*%
D11*
%TO.C,C26*%
X76382500Y-59000000D03*
X78107500Y-59000000D03*
%TD*%
D16*
%TO.C,L4*%
X84137500Y-31500000D03*
X84862500Y-31500000D03*
%TD*%
D22*
%TO.C,R2*%
X55545400Y-42716000D03*
X53720400Y-42716000D03*
%TD*%
D23*
%TO.C,L3*%
X81562500Y-44200000D03*
X80837500Y-44200000D03*
%TD*%
D12*
%TO.C,R1*%
X55587500Y-65000000D03*
X57412500Y-65000000D03*
%TD*%
D24*
%TO.C,U2*%
X48576900Y-33476000D03*
X48576900Y-35776000D03*
D25*
X54876900Y-35776000D03*
D24*
X48576900Y-38076000D03*
%TD*%
D10*
%TO.C,C29*%
X97800000Y-43675000D03*
X97800000Y-45400000D03*
%TD*%
D15*
%TO.C,C17*%
X74362500Y-56000000D03*
X72637500Y-56000000D03*
%TD*%
%TO.C,C13*%
X65862500Y-69000000D03*
X64137500Y-69000000D03*
%TD*%
D26*
%TO.C,C5*%
X50500000Y-56362500D03*
X50500000Y-54637500D03*
%TD*%
D27*
%TO.C,R9*%
X97800000Y-48625000D03*
X97800000Y-50450000D03*
%TD*%
D11*
%TO.C,C22*%
X80425000Y-51000000D03*
X82150000Y-51000000D03*
%TD*%
D10*
%TO.C,C2*%
X52500000Y-54637500D03*
X52500000Y-56362500D03*
%TD*%
D27*
%TO.C,R10*%
X100300000Y-43625000D03*
X100300000Y-45450000D03*
%TD*%
D15*
%TO.C,C19*%
X77862500Y-43000000D03*
X76137500Y-43000000D03*
%TD*%
D10*
%TO.C,C15*%
X73700000Y-51035000D03*
X73700000Y-52760000D03*
%TD*%
D26*
%TO.C,C9*%
X57500000Y-58362500D03*
X57500000Y-56637500D03*
%TD*%
D12*
%TO.C,R6*%
X76287500Y-49000000D03*
X78112500Y-49000000D03*
%TD*%
D15*
%TO.C,C6*%
X58362500Y-49500000D03*
X56637500Y-49500000D03*
%TD*%
D12*
%TO.C,R3*%
X70587500Y-37500000D03*
X72412500Y-37500000D03*
%TD*%
D27*
%TO.C,R8*%
X100300000Y-48625000D03*
X100300000Y-50450000D03*
%TD*%
D22*
%TO.C,R7*%
X78157500Y-56000000D03*
X76332500Y-56000000D03*
%TD*%
D28*
%TO.C,R11*%
X102800000Y-50450000D03*
X102800000Y-48625000D03*
%TD*%
D16*
%TO.C,L2*%
X77862500Y-68500000D03*
X77137500Y-68500000D03*
%TD*%
D15*
%TO.C,C7*%
X58362500Y-51500000D03*
X56637500Y-51500000D03*
%TD*%
%TO.C,C11*%
X53362500Y-31000000D03*
X51637500Y-31000000D03*
%TD*%
D11*
%TO.C,C16*%
X76137500Y-38000000D03*
X77862500Y-38000000D03*
%TD*%
D29*
%TO.C,U4*%
X75250000Y-40500000D03*
X77750000Y-40500000D03*
%TD*%
D11*
%TO.C,C23*%
X76337500Y-51000000D03*
X78062500Y-51000000D03*
%TD*%
D21*
%TO.C,SW4*%
X93092000Y-67798000D03*
X93092000Y-63298000D03*
X101292000Y-63298000D03*
X101392000Y-67748000D03*
%TD*%
D30*
%TO.C,D1*%
X102800000Y-45412500D03*
X102800000Y-43662500D03*
%TD*%
D10*
%TO.C,C3*%
X55454000Y-66589500D03*
X55454000Y-68314500D03*
%TD*%
D11*
%TO.C,C20*%
X95137500Y-53000000D03*
X96862500Y-53000000D03*
%TD*%
D21*
%TO.C,SW5*%
X80900000Y-63080000D03*
X80900000Y-67580000D03*
X89200000Y-67530000D03*
X89100000Y-63080000D03*
%TD*%
M02*
