%TF.GenerationSoftware,KiCad,Pcbnew,6.0.7+dfsg-1build1*%
%TF.CreationDate,2022-11-20T16:40:00+09:00*%
%TF.ProjectId,FM_Transciver,464d5f54-7261-46e7-9363-697665722e6b,rev?*%
%TF.SameCoordinates,Original*%
%TF.FileFunction,Legend,Top*%
%TF.FilePolarity,Positive*%
%FSLAX46Y46*%
G04 Gerber Fmt 4.6, Leading zero omitted, Abs format (unit mm)*
G04 Created by KiCad (PCBNEW 6.0.7+dfsg-1build1) date 2022-11-20 16:40:00*
%MOMM*%
%LPD*%
G01*
G04 APERTURE LIST*
%ADD10C,0.150000*%
%ADD11C,0.254000*%
%ADD12C,0.120000*%
%ADD13C,0.200000*%
%ADD14C,0.100000*%
G04 APERTURE END LIST*
D10*
%TO.C,RV1*%
X71404761Y-44952380D02*
X71071428Y-44476190D01*
X70833333Y-44952380D02*
X70833333Y-43952380D01*
X71214285Y-43952380D01*
X71309523Y-44000000D01*
X71357142Y-44047619D01*
X71404761Y-44142857D01*
X71404761Y-44285714D01*
X71357142Y-44380952D01*
X71309523Y-44428571D01*
X71214285Y-44476190D01*
X70833333Y-44476190D01*
X71690476Y-43952380D02*
X72023809Y-44952380D01*
X72357142Y-43952380D01*
X73214285Y-44952380D02*
X72642857Y-44952380D01*
X72928571Y-44952380D02*
X72928571Y-43952380D01*
X72833333Y-44095238D01*
X72738095Y-44190476D01*
X72642857Y-44238095D01*
%TO.C,C8*%
X56857142Y-67472399D02*
X56904761Y-67520018D01*
X56952380Y-67662875D01*
X56952380Y-67758113D01*
X56904761Y-67900971D01*
X56809523Y-67996209D01*
X56714285Y-68043828D01*
X56523809Y-68091447D01*
X56380952Y-68091447D01*
X56190476Y-68043828D01*
X56095238Y-67996209D01*
X56000000Y-67900971D01*
X55952380Y-67758113D01*
X55952380Y-67662875D01*
X56000000Y-67520018D01*
X56047619Y-67472399D01*
X56380952Y-66900971D02*
X56333333Y-66996209D01*
X56285714Y-67043828D01*
X56190476Y-67091447D01*
X56142857Y-67091447D01*
X56047619Y-67043828D01*
X56000000Y-66996209D01*
X55952380Y-66900971D01*
X55952380Y-66710494D01*
X56000000Y-66615256D01*
X56047619Y-66567637D01*
X56142857Y-66520018D01*
X56190476Y-66520018D01*
X56285714Y-66567637D01*
X56333333Y-66615256D01*
X56380952Y-66710494D01*
X56380952Y-66900971D01*
X56428571Y-66996209D01*
X56476190Y-67043828D01*
X56571428Y-67091447D01*
X56761904Y-67091447D01*
X56857142Y-67043828D01*
X56904761Y-66996209D01*
X56952380Y-66900971D01*
X56952380Y-66710494D01*
X56904761Y-66615256D01*
X56857142Y-66567637D01*
X56761904Y-66520018D01*
X56571428Y-66520018D01*
X56476190Y-66567637D01*
X56428571Y-66615256D01*
X56380952Y-66710494D01*
%TO.C,C14*%
X71857142Y-50357142D02*
X71809523Y-50404761D01*
X71666666Y-50452380D01*
X71571428Y-50452380D01*
X71428571Y-50404761D01*
X71333333Y-50309523D01*
X71285714Y-50214285D01*
X71238095Y-50023809D01*
X71238095Y-49880952D01*
X71285714Y-49690476D01*
X71333333Y-49595238D01*
X71428571Y-49500000D01*
X71571428Y-49452380D01*
X71666666Y-49452380D01*
X71809523Y-49500000D01*
X71857142Y-49547619D01*
X72809523Y-50452380D02*
X72238095Y-50452380D01*
X72523809Y-50452380D02*
X72523809Y-49452380D01*
X72428571Y-49595238D01*
X72333333Y-49690476D01*
X72238095Y-49738095D01*
X73666666Y-49785714D02*
X73666666Y-50452380D01*
X73428571Y-49404761D02*
X73190476Y-50119047D01*
X73809523Y-50119047D01*
%TO.C,C27*%
X64857142Y-36142857D02*
X64904761Y-36190476D01*
X64952380Y-36333333D01*
X64952380Y-36428571D01*
X64904761Y-36571428D01*
X64809523Y-36666666D01*
X64714285Y-36714285D01*
X64523809Y-36761904D01*
X64380952Y-36761904D01*
X64190476Y-36714285D01*
X64095238Y-36666666D01*
X64000000Y-36571428D01*
X63952380Y-36428571D01*
X63952380Y-36333333D01*
X64000000Y-36190476D01*
X64047619Y-36142857D01*
X64047619Y-35761904D02*
X64000000Y-35714285D01*
X63952380Y-35619047D01*
X63952380Y-35380952D01*
X64000000Y-35285714D01*
X64047619Y-35238095D01*
X64142857Y-35190476D01*
X64238095Y-35190476D01*
X64380952Y-35238095D01*
X64952380Y-35809523D01*
X64952380Y-35190476D01*
X63952380Y-34857142D02*
X63952380Y-34190476D01*
X64952380Y-34619047D01*
%TO.C,U3*%
X64748095Y-55952380D02*
X64748095Y-56761904D01*
X64795714Y-56857142D01*
X64843333Y-56904761D01*
X64938571Y-56952380D01*
X65129047Y-56952380D01*
X65224285Y-56904761D01*
X65271904Y-56857142D01*
X65319523Y-56761904D01*
X65319523Y-55952380D01*
X65700476Y-55952380D02*
X66319523Y-55952380D01*
X65986190Y-56333333D01*
X66129047Y-56333333D01*
X66224285Y-56380952D01*
X66271904Y-56428571D01*
X66319523Y-56523809D01*
X66319523Y-56761904D01*
X66271904Y-56857142D01*
X66224285Y-56904761D01*
X66129047Y-56952380D01*
X65843333Y-56952380D01*
X65748095Y-56904761D01*
X65700476Y-56857142D01*
%TO.C,R4*%
X72787333Y-46436380D02*
X72454000Y-45960190D01*
X72215904Y-46436380D02*
X72215904Y-45436380D01*
X72596857Y-45436380D01*
X72692095Y-45484000D01*
X72739714Y-45531619D01*
X72787333Y-45626857D01*
X72787333Y-45769714D01*
X72739714Y-45864952D01*
X72692095Y-45912571D01*
X72596857Y-45960190D01*
X72215904Y-45960190D01*
X73644476Y-45769714D02*
X73644476Y-46436380D01*
X73406380Y-45388761D02*
X73168285Y-46103047D01*
X73787333Y-46103047D01*
D11*
%TO.C,J1*%
X93776666Y-35354523D02*
X93776666Y-36261666D01*
X93716190Y-36443095D01*
X93595238Y-36564047D01*
X93413809Y-36624523D01*
X93292857Y-36624523D01*
X95046666Y-36624523D02*
X94320952Y-36624523D01*
X94683809Y-36624523D02*
X94683809Y-35354523D01*
X94562857Y-35535952D01*
X94441904Y-35656904D01*
X94320952Y-35717380D01*
D10*
%TO.C,C21*%
X72602142Y-58357142D02*
X72554523Y-58404761D01*
X72411666Y-58452380D01*
X72316428Y-58452380D01*
X72173571Y-58404761D01*
X72078333Y-58309523D01*
X72030714Y-58214285D01*
X71983095Y-58023809D01*
X71983095Y-57880952D01*
X72030714Y-57690476D01*
X72078333Y-57595238D01*
X72173571Y-57500000D01*
X72316428Y-57452380D01*
X72411666Y-57452380D01*
X72554523Y-57500000D01*
X72602142Y-57547619D01*
X72983095Y-57547619D02*
X73030714Y-57500000D01*
X73125952Y-57452380D01*
X73364047Y-57452380D01*
X73459285Y-57500000D01*
X73506904Y-57547619D01*
X73554523Y-57642857D01*
X73554523Y-57738095D01*
X73506904Y-57880952D01*
X72935476Y-58452380D01*
X73554523Y-58452380D01*
X74506904Y-58452380D02*
X73935476Y-58452380D01*
X74221190Y-58452380D02*
X74221190Y-57452380D01*
X74125952Y-57595238D01*
X74030714Y-57690476D01*
X73935476Y-57738095D01*
%TO.C,R5*%
X81033333Y-48452380D02*
X80700000Y-47976190D01*
X80461904Y-48452380D02*
X80461904Y-47452380D01*
X80842857Y-47452380D01*
X80938095Y-47500000D01*
X80985714Y-47547619D01*
X81033333Y-47642857D01*
X81033333Y-47785714D01*
X80985714Y-47880952D01*
X80938095Y-47928571D01*
X80842857Y-47976190D01*
X80461904Y-47976190D01*
X81938095Y-47452380D02*
X81461904Y-47452380D01*
X81414285Y-47928571D01*
X81461904Y-47880952D01*
X81557142Y-47833333D01*
X81795238Y-47833333D01*
X81890476Y-47880952D01*
X81938095Y-47928571D01*
X81985714Y-48023809D01*
X81985714Y-48261904D01*
X81938095Y-48357142D01*
X81890476Y-48404761D01*
X81795238Y-48452380D01*
X81557142Y-48452380D01*
X81461904Y-48404761D01*
X81414285Y-48357142D01*
%TO.C,L5*%
X85857333Y-33952380D02*
X85381142Y-33952380D01*
X85381142Y-32952380D01*
X86666857Y-32952380D02*
X86190666Y-32952380D01*
X86143047Y-33428571D01*
X86190666Y-33380952D01*
X86285904Y-33333333D01*
X86524000Y-33333333D01*
X86619238Y-33380952D01*
X86666857Y-33428571D01*
X86714476Y-33523809D01*
X86714476Y-33761904D01*
X86666857Y-33857142D01*
X86619238Y-33904761D01*
X86524000Y-33952380D01*
X86285904Y-33952380D01*
X86190666Y-33904761D01*
X86143047Y-33857142D01*
%TO.C,L1*%
X54889333Y-60674380D02*
X54413142Y-60674380D01*
X54413142Y-59674380D01*
X55746476Y-60674380D02*
X55175047Y-60674380D01*
X55460761Y-60674380D02*
X55460761Y-59674380D01*
X55365523Y-59817238D01*
X55270285Y-59912476D01*
X55175047Y-59960095D01*
%TO.C,BT1*%
X56563185Y-36712571D02*
X56706042Y-36760190D01*
X56753661Y-36807809D01*
X56801280Y-36903047D01*
X56801280Y-37045904D01*
X56753661Y-37141142D01*
X56706042Y-37188761D01*
X56610804Y-37236380D01*
X56229852Y-37236380D01*
X56229852Y-36236380D01*
X56563185Y-36236380D01*
X56658423Y-36284000D01*
X56706042Y-36331619D01*
X56753661Y-36426857D01*
X56753661Y-36522095D01*
X56706042Y-36617333D01*
X56658423Y-36664952D01*
X56563185Y-36712571D01*
X56229852Y-36712571D01*
X57086995Y-36236380D02*
X57658423Y-36236380D01*
X57372709Y-37236380D02*
X57372709Y-36236380D01*
X58515566Y-37236380D02*
X57944138Y-37236380D01*
X58229852Y-37236380D02*
X58229852Y-36236380D01*
X58134614Y-36379238D01*
X58039376Y-36474476D01*
X57944138Y-36522095D01*
%TO.C,C24*%
X80644642Y-45587142D02*
X80597023Y-45634761D01*
X80454166Y-45682380D01*
X80358928Y-45682380D01*
X80216071Y-45634761D01*
X80120833Y-45539523D01*
X80073214Y-45444285D01*
X80025595Y-45253809D01*
X80025595Y-45110952D01*
X80073214Y-44920476D01*
X80120833Y-44825238D01*
X80216071Y-44730000D01*
X80358928Y-44682380D01*
X80454166Y-44682380D01*
X80597023Y-44730000D01*
X80644642Y-44777619D01*
X81025595Y-44777619D02*
X81073214Y-44730000D01*
X81168452Y-44682380D01*
X81406547Y-44682380D01*
X81501785Y-44730000D01*
X81549404Y-44777619D01*
X81597023Y-44872857D01*
X81597023Y-44968095D01*
X81549404Y-45110952D01*
X80977976Y-45682380D01*
X81597023Y-45682380D01*
X82454166Y-45015714D02*
X82454166Y-45682380D01*
X82216071Y-44634761D02*
X81977976Y-45349047D01*
X82597023Y-45349047D01*
%TO.C,C1*%
X54354233Y-39783142D02*
X54306614Y-39830761D01*
X54163757Y-39878380D01*
X54068519Y-39878380D01*
X53925661Y-39830761D01*
X53830423Y-39735523D01*
X53782804Y-39640285D01*
X53735185Y-39449809D01*
X53735185Y-39306952D01*
X53782804Y-39116476D01*
X53830423Y-39021238D01*
X53925661Y-38926000D01*
X54068519Y-38878380D01*
X54163757Y-38878380D01*
X54306614Y-38926000D01*
X54354233Y-38973619D01*
X55306614Y-39878380D02*
X54735185Y-39878380D01*
X55020900Y-39878380D02*
X55020900Y-38878380D01*
X54925661Y-39021238D01*
X54830423Y-39116476D01*
X54735185Y-39164095D01*
%TO.C,SW1*%
X68166666Y-34404761D02*
X68309523Y-34452380D01*
X68547619Y-34452380D01*
X68642857Y-34404761D01*
X68690476Y-34357142D01*
X68738095Y-34261904D01*
X68738095Y-34166666D01*
X68690476Y-34071428D01*
X68642857Y-34023809D01*
X68547619Y-33976190D01*
X68357142Y-33928571D01*
X68261904Y-33880952D01*
X68214285Y-33833333D01*
X68166666Y-33738095D01*
X68166666Y-33642857D01*
X68214285Y-33547619D01*
X68261904Y-33500000D01*
X68357142Y-33452380D01*
X68595238Y-33452380D01*
X68738095Y-33500000D01*
X69071428Y-33452380D02*
X69309523Y-34452380D01*
X69500000Y-33738095D01*
X69690476Y-34452380D01*
X69928571Y-33452380D01*
X70833333Y-34452380D02*
X70261904Y-34452380D01*
X70547619Y-34452380D02*
X70547619Y-33452380D01*
X70452380Y-33595238D01*
X70357142Y-33690476D01*
X70261904Y-33738095D01*
%TO.C,U5*%
X90746095Y-39896380D02*
X90746095Y-40705904D01*
X90793714Y-40801142D01*
X90841333Y-40848761D01*
X90936571Y-40896380D01*
X91127047Y-40896380D01*
X91222285Y-40848761D01*
X91269904Y-40801142D01*
X91317523Y-40705904D01*
X91317523Y-39896380D01*
X92269904Y-39896380D02*
X91793714Y-39896380D01*
X91746095Y-40372571D01*
X91793714Y-40324952D01*
X91888952Y-40277333D01*
X92127047Y-40277333D01*
X92222285Y-40324952D01*
X92269904Y-40372571D01*
X92317523Y-40467809D01*
X92317523Y-40705904D01*
X92269904Y-40801142D01*
X92222285Y-40848761D01*
X92127047Y-40896380D01*
X91888952Y-40896380D01*
X91793714Y-40848761D01*
X91746095Y-40801142D01*
%TO.C,C31*%
X57357142Y-33642844D02*
X57404761Y-33690463D01*
X57452380Y-33833320D01*
X57452380Y-33928558D01*
X57404761Y-34071415D01*
X57309523Y-34166653D01*
X57214285Y-34214272D01*
X57023809Y-34261891D01*
X56880952Y-34261891D01*
X56690476Y-34214272D01*
X56595238Y-34166653D01*
X56500000Y-34071415D01*
X56452380Y-33928558D01*
X56452380Y-33833320D01*
X56500000Y-33690463D01*
X56547619Y-33642844D01*
X56452380Y-33309510D02*
X56452380Y-32690463D01*
X56833333Y-33023796D01*
X56833333Y-32880939D01*
X56880952Y-32785701D01*
X56928571Y-32738082D01*
X57023809Y-32690463D01*
X57261904Y-32690463D01*
X57357142Y-32738082D01*
X57404761Y-32785701D01*
X57452380Y-32880939D01*
X57452380Y-33166653D01*
X57404761Y-33261891D01*
X57357142Y-33309510D01*
X57452380Y-31738082D02*
X57452380Y-32309510D01*
X57452380Y-32023796D02*
X56452380Y-32023796D01*
X56595238Y-32119034D01*
X56690476Y-32214272D01*
X56738095Y-32309510D01*
%TO.C,MK1*%
X48735376Y-46952380D02*
X48735376Y-45952380D01*
X49068709Y-46666666D01*
X49402042Y-45952380D01*
X49402042Y-46952380D01*
X49878233Y-46952380D02*
X49878233Y-45952380D01*
X50449661Y-46952380D02*
X50021090Y-46380952D01*
X50449661Y-45952380D02*
X49878233Y-46523809D01*
X51402042Y-46952380D02*
X50830614Y-46952380D01*
X51116328Y-46952380D02*
X51116328Y-45952380D01*
X51021090Y-46095238D01*
X50925852Y-46190476D01*
X50830614Y-46238095D01*
%TO.C,SW2*%
X95958666Y-58246761D02*
X96101523Y-58294380D01*
X96339619Y-58294380D01*
X96434857Y-58246761D01*
X96482476Y-58199142D01*
X96530095Y-58103904D01*
X96530095Y-58008666D01*
X96482476Y-57913428D01*
X96434857Y-57865809D01*
X96339619Y-57818190D01*
X96149142Y-57770571D01*
X96053904Y-57722952D01*
X96006285Y-57675333D01*
X95958666Y-57580095D01*
X95958666Y-57484857D01*
X96006285Y-57389619D01*
X96053904Y-57342000D01*
X96149142Y-57294380D01*
X96387238Y-57294380D01*
X96530095Y-57342000D01*
X96863428Y-57294380D02*
X97101523Y-58294380D01*
X97292000Y-57580095D01*
X97482476Y-58294380D01*
X97720571Y-57294380D01*
X98053904Y-57389619D02*
X98101523Y-57342000D01*
X98196761Y-57294380D01*
X98434857Y-57294380D01*
X98530095Y-57342000D01*
X98577714Y-57389619D01*
X98625333Y-57484857D01*
X98625333Y-57580095D01*
X98577714Y-57722952D01*
X98006285Y-58294380D01*
X98625333Y-58294380D01*
%TO.C,C4*%
X53833333Y-52857142D02*
X53785714Y-52904761D01*
X53642857Y-52952380D01*
X53547619Y-52952380D01*
X53404761Y-52904761D01*
X53309523Y-52809523D01*
X53261904Y-52714285D01*
X53214285Y-52523809D01*
X53214285Y-52380952D01*
X53261904Y-52190476D01*
X53309523Y-52095238D01*
X53404761Y-52000000D01*
X53547619Y-51952380D01*
X53642857Y-51952380D01*
X53785714Y-52000000D01*
X53833333Y-52047619D01*
X54690476Y-52285714D02*
X54690476Y-52952380D01*
X54452380Y-51904761D02*
X54214285Y-52619047D01*
X54833333Y-52619047D01*
%TO.C,SW3*%
X83666666Y-57896761D02*
X83809523Y-57944380D01*
X84047619Y-57944380D01*
X84142857Y-57896761D01*
X84190476Y-57849142D01*
X84238095Y-57753904D01*
X84238095Y-57658666D01*
X84190476Y-57563428D01*
X84142857Y-57515809D01*
X84047619Y-57468190D01*
X83857142Y-57420571D01*
X83761904Y-57372952D01*
X83714285Y-57325333D01*
X83666666Y-57230095D01*
X83666666Y-57134857D01*
X83714285Y-57039619D01*
X83761904Y-56992000D01*
X83857142Y-56944380D01*
X84095238Y-56944380D01*
X84238095Y-56992000D01*
X84571428Y-56944380D02*
X84809523Y-57944380D01*
X85000000Y-57230095D01*
X85190476Y-57944380D01*
X85428571Y-56944380D01*
X85714285Y-56944380D02*
X86333333Y-56944380D01*
X86000000Y-57325333D01*
X86142857Y-57325333D01*
X86238095Y-57372952D01*
X86285714Y-57420571D01*
X86333333Y-57515809D01*
X86333333Y-57753904D01*
X86285714Y-57849142D01*
X86238095Y-57896761D01*
X86142857Y-57944380D01*
X85857142Y-57944380D01*
X85761904Y-57896761D01*
X85714285Y-57849142D01*
%TO.C,C25*%
X85857142Y-49341142D02*
X85809523Y-49388761D01*
X85666666Y-49436380D01*
X85571428Y-49436380D01*
X85428571Y-49388761D01*
X85333333Y-49293523D01*
X85285714Y-49198285D01*
X85238095Y-49007809D01*
X85238095Y-48864952D01*
X85285714Y-48674476D01*
X85333333Y-48579238D01*
X85428571Y-48484000D01*
X85571428Y-48436380D01*
X85666666Y-48436380D01*
X85809523Y-48484000D01*
X85857142Y-48531619D01*
X86238095Y-48531619D02*
X86285714Y-48484000D01*
X86380952Y-48436380D01*
X86619047Y-48436380D01*
X86714285Y-48484000D01*
X86761904Y-48531619D01*
X86809523Y-48626857D01*
X86809523Y-48722095D01*
X86761904Y-48864952D01*
X86190476Y-49436380D01*
X86809523Y-49436380D01*
X87714285Y-48436380D02*
X87238095Y-48436380D01*
X87190476Y-48912571D01*
X87238095Y-48864952D01*
X87333333Y-48817333D01*
X87571428Y-48817333D01*
X87666666Y-48864952D01*
X87714285Y-48912571D01*
X87761904Y-49007809D01*
X87761904Y-49245904D01*
X87714285Y-49341142D01*
X87666666Y-49388761D01*
X87571428Y-49436380D01*
X87333333Y-49436380D01*
X87238095Y-49388761D01*
X87190476Y-49341142D01*
%TO.C,C10*%
X69873142Y-42142857D02*
X69920761Y-42190476D01*
X69968380Y-42333333D01*
X69968380Y-42428571D01*
X69920761Y-42571428D01*
X69825523Y-42666666D01*
X69730285Y-42714285D01*
X69539809Y-42761904D01*
X69396952Y-42761904D01*
X69206476Y-42714285D01*
X69111238Y-42666666D01*
X69016000Y-42571428D01*
X68968380Y-42428571D01*
X68968380Y-42333333D01*
X69016000Y-42190476D01*
X69063619Y-42142857D01*
X69968380Y-41190476D02*
X69968380Y-41761904D01*
X69968380Y-41476190D02*
X68968380Y-41476190D01*
X69111238Y-41571428D01*
X69206476Y-41666666D01*
X69254095Y-41761904D01*
X68968380Y-40571428D02*
X68968380Y-40476190D01*
X69016000Y-40380952D01*
X69063619Y-40333333D01*
X69158857Y-40285714D01*
X69349333Y-40238095D01*
X69587428Y-40238095D01*
X69777904Y-40285714D01*
X69873142Y-40333333D01*
X69920761Y-40380952D01*
X69968380Y-40476190D01*
X69968380Y-40571428D01*
X69920761Y-40666666D01*
X69873142Y-40714285D01*
X69777904Y-40761904D01*
X69587428Y-40809523D01*
X69349333Y-40809523D01*
X69158857Y-40761904D01*
X69063619Y-40714285D01*
X69016000Y-40666666D01*
X68968380Y-40571428D01*
%TO.C,C12*%
X58857142Y-67357142D02*
X58809523Y-67404761D01*
X58666666Y-67452380D01*
X58571428Y-67452380D01*
X58428571Y-67404761D01*
X58333333Y-67309523D01*
X58285714Y-67214285D01*
X58238095Y-67023809D01*
X58238095Y-66880952D01*
X58285714Y-66690476D01*
X58333333Y-66595238D01*
X58428571Y-66500000D01*
X58571428Y-66452380D01*
X58666666Y-66452380D01*
X58809523Y-66500000D01*
X58857142Y-66547619D01*
X59809523Y-67452380D02*
X59238095Y-67452380D01*
X59523809Y-67452380D02*
X59523809Y-66452380D01*
X59428571Y-66595238D01*
X59333333Y-66690476D01*
X59238095Y-66738095D01*
X60190476Y-66547619D02*
X60238095Y-66500000D01*
X60333333Y-66452380D01*
X60571428Y-66452380D01*
X60666666Y-66500000D01*
X60714285Y-66547619D01*
X60761904Y-66642857D01*
X60761904Y-66738095D01*
X60714285Y-66880952D01*
X60142857Y-67452380D01*
X60761904Y-67452380D01*
%TO.C,C30*%
X81857142Y-41357142D02*
X81809523Y-41404761D01*
X81666666Y-41452380D01*
X81571428Y-41452380D01*
X81428571Y-41404761D01*
X81333333Y-41309523D01*
X81285714Y-41214285D01*
X81238095Y-41023809D01*
X81238095Y-40880952D01*
X81285714Y-40690476D01*
X81333333Y-40595238D01*
X81428571Y-40500000D01*
X81571428Y-40452380D01*
X81666666Y-40452380D01*
X81809523Y-40500000D01*
X81857142Y-40547619D01*
X82190476Y-40452380D02*
X82809523Y-40452380D01*
X82476190Y-40833333D01*
X82619047Y-40833333D01*
X82714285Y-40880952D01*
X82761904Y-40928571D01*
X82809523Y-41023809D01*
X82809523Y-41261904D01*
X82761904Y-41357142D01*
X82714285Y-41404761D01*
X82619047Y-41452380D01*
X82333333Y-41452380D01*
X82238095Y-41404761D01*
X82190476Y-41357142D01*
X83428571Y-40452380D02*
X83523809Y-40452380D01*
X83619047Y-40500000D01*
X83666666Y-40547619D01*
X83714285Y-40642857D01*
X83761904Y-40833333D01*
X83761904Y-41071428D01*
X83714285Y-41261904D01*
X83666666Y-41357142D01*
X83619047Y-41404761D01*
X83523809Y-41452380D01*
X83428571Y-41452380D01*
X83333333Y-41404761D01*
X83285714Y-41357142D01*
X83238095Y-41261904D01*
X83190476Y-41071428D01*
X83190476Y-40833333D01*
X83238095Y-40642857D01*
X83285714Y-40547619D01*
X83333333Y-40500000D01*
X83428571Y-40452380D01*
%TO.C,C26*%
X76501642Y-58341142D02*
X76454023Y-58388761D01*
X76311166Y-58436380D01*
X76215928Y-58436380D01*
X76073071Y-58388761D01*
X75977833Y-58293523D01*
X75930214Y-58198285D01*
X75882595Y-58007809D01*
X75882595Y-57864952D01*
X75930214Y-57674476D01*
X75977833Y-57579238D01*
X76073071Y-57484000D01*
X76215928Y-57436380D01*
X76311166Y-57436380D01*
X76454023Y-57484000D01*
X76501642Y-57531619D01*
X76882595Y-57531619D02*
X76930214Y-57484000D01*
X77025452Y-57436380D01*
X77263547Y-57436380D01*
X77358785Y-57484000D01*
X77406404Y-57531619D01*
X77454023Y-57626857D01*
X77454023Y-57722095D01*
X77406404Y-57864952D01*
X76834976Y-58436380D01*
X77454023Y-58436380D01*
X78311166Y-57436380D02*
X78120690Y-57436380D01*
X78025452Y-57484000D01*
X77977833Y-57531619D01*
X77882595Y-57674476D01*
X77834976Y-57864952D01*
X77834976Y-58245904D01*
X77882595Y-58341142D01*
X77930214Y-58388761D01*
X78025452Y-58436380D01*
X78215928Y-58436380D01*
X78311166Y-58388761D01*
X78358785Y-58341142D01*
X78406404Y-58245904D01*
X78406404Y-58007809D01*
X78358785Y-57912571D01*
X78311166Y-57864952D01*
X78215928Y-57817333D01*
X78025452Y-57817333D01*
X77930214Y-57864952D01*
X77882595Y-57912571D01*
X77834976Y-58007809D01*
%TO.C,C28*%
X73158042Y-33357142D02*
X73110423Y-33404761D01*
X72967566Y-33452380D01*
X72872328Y-33452380D01*
X72729471Y-33404761D01*
X72634233Y-33309523D01*
X72586614Y-33214285D01*
X72538995Y-33023809D01*
X72538995Y-32880952D01*
X72586614Y-32690476D01*
X72634233Y-32595238D01*
X72729471Y-32500000D01*
X72872328Y-32452380D01*
X72967566Y-32452380D01*
X73110423Y-32500000D01*
X73158042Y-32547619D01*
X73538995Y-32547619D02*
X73586614Y-32500000D01*
X73681852Y-32452380D01*
X73919947Y-32452380D01*
X74015185Y-32500000D01*
X74062804Y-32547619D01*
X74110423Y-32642857D01*
X74110423Y-32738095D01*
X74062804Y-32880952D01*
X73491376Y-33452380D01*
X74110423Y-33452380D01*
X74681852Y-32880952D02*
X74586614Y-32833333D01*
X74538995Y-32785714D01*
X74491376Y-32690476D01*
X74491376Y-32642857D01*
X74538995Y-32547619D01*
X74586614Y-32500000D01*
X74681852Y-32452380D01*
X74872328Y-32452380D01*
X74967566Y-32500000D01*
X75015185Y-32547619D01*
X75062804Y-32642857D01*
X75062804Y-32690476D01*
X75015185Y-32785714D01*
X74967566Y-32833333D01*
X74872328Y-32880952D01*
X74681852Y-32880952D01*
X74586614Y-32928571D01*
X74538995Y-32976190D01*
X74491376Y-33071428D01*
X74491376Y-33261904D01*
X74538995Y-33357142D01*
X74586614Y-33404761D01*
X74681852Y-33452380D01*
X74872328Y-33452380D01*
X74967566Y-33404761D01*
X75015185Y-33357142D01*
X75062804Y-33261904D01*
X75062804Y-33071428D01*
X75015185Y-32976190D01*
X74967566Y-32928571D01*
X74872328Y-32880952D01*
%TO.C,L4*%
X85857333Y-31952380D02*
X85381142Y-31952380D01*
X85381142Y-30952380D01*
X86619238Y-31285714D02*
X86619238Y-31952380D01*
X86381142Y-30904761D02*
X86143047Y-31619047D01*
X86762095Y-31619047D01*
%TO.C,R2*%
X54212233Y-44184380D02*
X53878900Y-43708190D01*
X53640804Y-44184380D02*
X53640804Y-43184380D01*
X54021757Y-43184380D01*
X54116995Y-43232000D01*
X54164614Y-43279619D01*
X54212233Y-43374857D01*
X54212233Y-43517714D01*
X54164614Y-43612952D01*
X54116995Y-43660571D01*
X54021757Y-43708190D01*
X53640804Y-43708190D01*
X54593185Y-43279619D02*
X54640804Y-43232000D01*
X54736042Y-43184380D01*
X54974138Y-43184380D01*
X55069376Y-43232000D01*
X55116995Y-43279619D01*
X55164614Y-43374857D01*
X55164614Y-43470095D01*
X55116995Y-43612952D01*
X54545566Y-44184380D01*
X55164614Y-44184380D01*
%TO.C,RV2*%
X90954761Y-53952380D02*
X90621428Y-53476190D01*
X90383333Y-53952380D02*
X90383333Y-52952380D01*
X90764285Y-52952380D01*
X90859523Y-53000000D01*
X90907142Y-53047619D01*
X90954761Y-53142857D01*
X90954761Y-53285714D01*
X90907142Y-53380952D01*
X90859523Y-53428571D01*
X90764285Y-53476190D01*
X90383333Y-53476190D01*
X91240476Y-52952380D02*
X91573809Y-53952380D01*
X91907142Y-52952380D01*
X92192857Y-53047619D02*
X92240476Y-53000000D01*
X92335714Y-52952380D01*
X92573809Y-52952380D01*
X92669047Y-53000000D01*
X92716666Y-53047619D01*
X92764285Y-53142857D01*
X92764285Y-53238095D01*
X92716666Y-53380952D01*
X92145238Y-53952380D01*
X92764285Y-53952380D01*
%TO.C,L3*%
X81033333Y-43652380D02*
X80557142Y-43652380D01*
X80557142Y-42652380D01*
X81271428Y-42652380D02*
X81890476Y-42652380D01*
X81557142Y-43033333D01*
X81700000Y-43033333D01*
X81795238Y-43080952D01*
X81842857Y-43128571D01*
X81890476Y-43223809D01*
X81890476Y-43461904D01*
X81842857Y-43557142D01*
X81795238Y-43604761D01*
X81700000Y-43652380D01*
X81414285Y-43652380D01*
X81319047Y-43604761D01*
X81271428Y-43557142D01*
%TO.C,R1*%
X56333333Y-64022380D02*
X56000000Y-63546190D01*
X55761904Y-64022380D02*
X55761904Y-63022380D01*
X56142857Y-63022380D01*
X56238095Y-63070000D01*
X56285714Y-63117619D01*
X56333333Y-63212857D01*
X56333333Y-63355714D01*
X56285714Y-63450952D01*
X56238095Y-63498571D01*
X56142857Y-63546190D01*
X55761904Y-63546190D01*
X57285714Y-64022380D02*
X56714285Y-64022380D01*
X57000000Y-64022380D02*
X57000000Y-63022380D01*
X56904761Y-63165238D01*
X56809523Y-63260476D01*
X56714285Y-63308095D01*
%TO.C,U2*%
X51179280Y-36537904D02*
X51988804Y-36537904D01*
X52084042Y-36490285D01*
X52131661Y-36442666D01*
X52179280Y-36347428D01*
X52179280Y-36156952D01*
X52131661Y-36061714D01*
X52084042Y-36014095D01*
X51988804Y-35966476D01*
X51179280Y-35966476D01*
X51274519Y-35537904D02*
X51226900Y-35490285D01*
X51179280Y-35395047D01*
X51179280Y-35156952D01*
X51226900Y-35061714D01*
X51274519Y-35014095D01*
X51369757Y-34966476D01*
X51464995Y-34966476D01*
X51607852Y-35014095D01*
X52179280Y-35585523D01*
X52179280Y-34966476D01*
%TO.C,C29*%
X96657142Y-45180357D02*
X96704761Y-45227976D01*
X96752380Y-45370833D01*
X96752380Y-45466071D01*
X96704761Y-45608928D01*
X96609523Y-45704166D01*
X96514285Y-45751785D01*
X96323809Y-45799404D01*
X96180952Y-45799404D01*
X95990476Y-45751785D01*
X95895238Y-45704166D01*
X95800000Y-45608928D01*
X95752380Y-45466071D01*
X95752380Y-45370833D01*
X95800000Y-45227976D01*
X95847619Y-45180357D01*
X95847619Y-44799404D02*
X95800000Y-44751785D01*
X95752380Y-44656547D01*
X95752380Y-44418452D01*
X95800000Y-44323214D01*
X95847619Y-44275595D01*
X95942857Y-44227976D01*
X96038095Y-44227976D01*
X96180952Y-44275595D01*
X96752380Y-44847023D01*
X96752380Y-44227976D01*
X96752380Y-43751785D02*
X96752380Y-43561309D01*
X96704761Y-43466071D01*
X96657142Y-43418452D01*
X96514285Y-43323214D01*
X96323809Y-43275595D01*
X95942857Y-43275595D01*
X95847619Y-43323214D01*
X95800000Y-43370833D01*
X95752380Y-43466071D01*
X95752380Y-43656547D01*
X95800000Y-43751785D01*
X95847619Y-43799404D01*
X95942857Y-43847023D01*
X96180952Y-43847023D01*
X96276190Y-43799404D01*
X96323809Y-43751785D01*
X96371428Y-43656547D01*
X96371428Y-43466071D01*
X96323809Y-43370833D01*
X96276190Y-43323214D01*
X96180952Y-43275595D01*
%TO.C,C17*%
X73003409Y-55357142D02*
X72955790Y-55404761D01*
X72812933Y-55452380D01*
X72717695Y-55452380D01*
X72574838Y-55404761D01*
X72479600Y-55309523D01*
X72431981Y-55214285D01*
X72384362Y-55023809D01*
X72384362Y-54880952D01*
X72431981Y-54690476D01*
X72479600Y-54595238D01*
X72574838Y-54500000D01*
X72717695Y-54452380D01*
X72812933Y-54452380D01*
X72955790Y-54500000D01*
X73003409Y-54547619D01*
X73955790Y-55452380D02*
X73384362Y-55452380D01*
X73670076Y-55452380D02*
X73670076Y-54452380D01*
X73574838Y-54595238D01*
X73479600Y-54690476D01*
X73384362Y-54738095D01*
X74289124Y-54452380D02*
X74955790Y-54452380D01*
X74527219Y-55452380D01*
%TO.C,C13*%
X68357142Y-69357142D02*
X68309523Y-69404761D01*
X68166666Y-69452380D01*
X68071428Y-69452380D01*
X67928571Y-69404761D01*
X67833333Y-69309523D01*
X67785714Y-69214285D01*
X67738095Y-69023809D01*
X67738095Y-68880952D01*
X67785714Y-68690476D01*
X67833333Y-68595238D01*
X67928571Y-68500000D01*
X68071428Y-68452380D01*
X68166666Y-68452380D01*
X68309523Y-68500000D01*
X68357142Y-68547619D01*
X69309523Y-69452380D02*
X68738095Y-69452380D01*
X69023809Y-69452380D02*
X69023809Y-68452380D01*
X68928571Y-68595238D01*
X68833333Y-68690476D01*
X68738095Y-68738095D01*
X69642857Y-68452380D02*
X70261904Y-68452380D01*
X69928571Y-68833333D01*
X70071428Y-68833333D01*
X70166666Y-68880952D01*
X70214285Y-68928571D01*
X70261904Y-69023809D01*
X70261904Y-69261904D01*
X70214285Y-69357142D01*
X70166666Y-69404761D01*
X70071428Y-69452380D01*
X69785714Y-69452380D01*
X69690476Y-69404761D01*
X69642857Y-69357142D01*
%TO.C,C5*%
X49427142Y-55666666D02*
X49474761Y-55714285D01*
X49522380Y-55857142D01*
X49522380Y-55952380D01*
X49474761Y-56095238D01*
X49379523Y-56190476D01*
X49284285Y-56238095D01*
X49093809Y-56285714D01*
X48950952Y-56285714D01*
X48760476Y-56238095D01*
X48665238Y-56190476D01*
X48570000Y-56095238D01*
X48522380Y-55952380D01*
X48522380Y-55857142D01*
X48570000Y-55714285D01*
X48617619Y-55666666D01*
X48522380Y-54761904D02*
X48522380Y-55238095D01*
X48998571Y-55285714D01*
X48950952Y-55238095D01*
X48903333Y-55142857D01*
X48903333Y-54904761D01*
X48950952Y-54809523D01*
X48998571Y-54761904D01*
X49093809Y-54714285D01*
X49331904Y-54714285D01*
X49427142Y-54761904D01*
X49474761Y-54809523D01*
X49522380Y-54904761D01*
X49522380Y-55142857D01*
X49474761Y-55238095D01*
X49427142Y-55285714D01*
%TO.C,R9*%
X96728380Y-49704166D02*
X96252190Y-50037500D01*
X96728380Y-50275595D02*
X95728380Y-50275595D01*
X95728380Y-49894642D01*
X95776000Y-49799404D01*
X95823619Y-49751785D01*
X95918857Y-49704166D01*
X96061714Y-49704166D01*
X96156952Y-49751785D01*
X96204571Y-49799404D01*
X96252190Y-49894642D01*
X96252190Y-50275595D01*
X96728380Y-49227976D02*
X96728380Y-49037500D01*
X96680761Y-48942261D01*
X96633142Y-48894642D01*
X96490285Y-48799404D01*
X96299809Y-48751785D01*
X95918857Y-48751785D01*
X95823619Y-48799404D01*
X95776000Y-48847023D01*
X95728380Y-48942261D01*
X95728380Y-49132738D01*
X95776000Y-49227976D01*
X95823619Y-49275595D01*
X95918857Y-49323214D01*
X96156952Y-49323214D01*
X96252190Y-49275595D01*
X96299809Y-49227976D01*
X96347428Y-49132738D01*
X96347428Y-48942261D01*
X96299809Y-48847023D01*
X96252190Y-48799404D01*
X96156952Y-48751785D01*
%TO.C,C18*%
X74357142Y-65857142D02*
X74309523Y-65904761D01*
X74166666Y-65952380D01*
X74071428Y-65952380D01*
X73928571Y-65904761D01*
X73833333Y-65809523D01*
X73785714Y-65714285D01*
X73738095Y-65523809D01*
X73738095Y-65380952D01*
X73785714Y-65190476D01*
X73833333Y-65095238D01*
X73928571Y-65000000D01*
X74071428Y-64952380D01*
X74166666Y-64952380D01*
X74309523Y-65000000D01*
X74357142Y-65047619D01*
X75309523Y-65952380D02*
X74738095Y-65952380D01*
X75023809Y-65952380D02*
X75023809Y-64952380D01*
X74928571Y-65095238D01*
X74833333Y-65190476D01*
X74738095Y-65238095D01*
X75880952Y-65380952D02*
X75785714Y-65333333D01*
X75738095Y-65285714D01*
X75690476Y-65190476D01*
X75690476Y-65142857D01*
X75738095Y-65047619D01*
X75785714Y-65000000D01*
X75880952Y-64952380D01*
X76071428Y-64952380D01*
X76166666Y-65000000D01*
X76214285Y-65047619D01*
X76261904Y-65142857D01*
X76261904Y-65190476D01*
X76214285Y-65285714D01*
X76166666Y-65333333D01*
X76071428Y-65380952D01*
X75880952Y-65380952D01*
X75785714Y-65428571D01*
X75738095Y-65476190D01*
X75690476Y-65571428D01*
X75690476Y-65761904D01*
X75738095Y-65857142D01*
X75785714Y-65904761D01*
X75880952Y-65952380D01*
X76071428Y-65952380D01*
X76166666Y-65904761D01*
X76214285Y-65857142D01*
X76261904Y-65761904D01*
X76261904Y-65571428D01*
X76214285Y-65476190D01*
X76166666Y-65428571D01*
X76071428Y-65380952D01*
%TO.C,C22*%
X80644642Y-50341142D02*
X80597023Y-50388761D01*
X80454166Y-50436380D01*
X80358928Y-50436380D01*
X80216071Y-50388761D01*
X80120833Y-50293523D01*
X80073214Y-50198285D01*
X80025595Y-50007809D01*
X80025595Y-49864952D01*
X80073214Y-49674476D01*
X80120833Y-49579238D01*
X80216071Y-49484000D01*
X80358928Y-49436380D01*
X80454166Y-49436380D01*
X80597023Y-49484000D01*
X80644642Y-49531619D01*
X81025595Y-49531619D02*
X81073214Y-49484000D01*
X81168452Y-49436380D01*
X81406547Y-49436380D01*
X81501785Y-49484000D01*
X81549404Y-49531619D01*
X81597023Y-49626857D01*
X81597023Y-49722095D01*
X81549404Y-49864952D01*
X80977976Y-50436380D01*
X81597023Y-50436380D01*
X81977976Y-49531619D02*
X82025595Y-49484000D01*
X82120833Y-49436380D01*
X82358928Y-49436380D01*
X82454166Y-49484000D01*
X82501785Y-49531619D01*
X82549404Y-49626857D01*
X82549404Y-49722095D01*
X82501785Y-49864952D01*
X81930357Y-50436380D01*
X82549404Y-50436380D01*
%TO.C,C2*%
X53873142Y-55666666D02*
X53920761Y-55714285D01*
X53968380Y-55857142D01*
X53968380Y-55952380D01*
X53920761Y-56095238D01*
X53825523Y-56190476D01*
X53730285Y-56238095D01*
X53539809Y-56285714D01*
X53396952Y-56285714D01*
X53206476Y-56238095D01*
X53111238Y-56190476D01*
X53016000Y-56095238D01*
X52968380Y-55952380D01*
X52968380Y-55857142D01*
X53016000Y-55714285D01*
X53063619Y-55666666D01*
X53063619Y-55285714D02*
X53016000Y-55238095D01*
X52968380Y-55142857D01*
X52968380Y-54904761D01*
X53016000Y-54809523D01*
X53063619Y-54761904D01*
X53158857Y-54714285D01*
X53254095Y-54714285D01*
X53396952Y-54761904D01*
X53968380Y-55333333D01*
X53968380Y-54714285D01*
%TO.C,R10*%
X99452380Y-45142857D02*
X98976190Y-45476190D01*
X99452380Y-45714285D02*
X98452380Y-45714285D01*
X98452380Y-45333333D01*
X98500000Y-45238095D01*
X98547619Y-45190476D01*
X98642857Y-45142857D01*
X98785714Y-45142857D01*
X98880952Y-45190476D01*
X98928571Y-45238095D01*
X98976190Y-45333333D01*
X98976190Y-45714285D01*
X99452380Y-44190476D02*
X99452380Y-44761904D01*
X99452380Y-44476190D02*
X98452380Y-44476190D01*
X98595238Y-44571428D01*
X98690476Y-44666666D01*
X98738095Y-44761904D01*
X98452380Y-43571428D02*
X98452380Y-43476190D01*
X98500000Y-43380952D01*
X98547619Y-43333333D01*
X98642857Y-43285714D01*
X98833333Y-43238095D01*
X99071428Y-43238095D01*
X99261904Y-43285714D01*
X99357142Y-43333333D01*
X99404761Y-43380952D01*
X99452380Y-43476190D01*
X99452380Y-43571428D01*
X99404761Y-43666666D01*
X99357142Y-43714285D01*
X99261904Y-43761904D01*
X99071428Y-43809523D01*
X98833333Y-43809523D01*
X98642857Y-43761904D01*
X98547619Y-43714285D01*
X98500000Y-43666666D01*
X98452380Y-43571428D01*
%TO.C,C19*%
X76503409Y-44857142D02*
X76455790Y-44904761D01*
X76312933Y-44952380D01*
X76217695Y-44952380D01*
X76074838Y-44904761D01*
X75979600Y-44809523D01*
X75931981Y-44714285D01*
X75884362Y-44523809D01*
X75884362Y-44380952D01*
X75931981Y-44190476D01*
X75979600Y-44095238D01*
X76074838Y-44000000D01*
X76217695Y-43952380D01*
X76312933Y-43952380D01*
X76455790Y-44000000D01*
X76503409Y-44047619D01*
X77455790Y-44952380D02*
X76884362Y-44952380D01*
X77170076Y-44952380D02*
X77170076Y-43952380D01*
X77074838Y-44095238D01*
X76979600Y-44190476D01*
X76884362Y-44238095D01*
X77931981Y-44952380D02*
X78122457Y-44952380D01*
X78217695Y-44904761D01*
X78265314Y-44857142D01*
X78360552Y-44714285D01*
X78408171Y-44523809D01*
X78408171Y-44142857D01*
X78360552Y-44047619D01*
X78312933Y-44000000D01*
X78217695Y-43952380D01*
X78027219Y-43952380D01*
X77931981Y-44000000D01*
X77884362Y-44047619D01*
X77836743Y-44142857D01*
X77836743Y-44380952D01*
X77884362Y-44476190D01*
X77931981Y-44523809D01*
X78027219Y-44571428D01*
X78217695Y-44571428D01*
X78312933Y-44523809D01*
X78360552Y-44476190D01*
X78408171Y-44380952D01*
%TO.C,C15*%
X72857142Y-53040357D02*
X72904761Y-53087976D01*
X72952380Y-53230833D01*
X72952380Y-53326071D01*
X72904761Y-53468928D01*
X72809523Y-53564166D01*
X72714285Y-53611785D01*
X72523809Y-53659404D01*
X72380952Y-53659404D01*
X72190476Y-53611785D01*
X72095238Y-53564166D01*
X72000000Y-53468928D01*
X71952380Y-53326071D01*
X71952380Y-53230833D01*
X72000000Y-53087976D01*
X72047619Y-53040357D01*
X72952380Y-52087976D02*
X72952380Y-52659404D01*
X72952380Y-52373690D02*
X71952380Y-52373690D01*
X72095238Y-52468928D01*
X72190476Y-52564166D01*
X72238095Y-52659404D01*
X71952380Y-51183214D02*
X71952380Y-51659404D01*
X72428571Y-51707023D01*
X72380952Y-51659404D01*
X72333333Y-51564166D01*
X72333333Y-51326071D01*
X72380952Y-51230833D01*
X72428571Y-51183214D01*
X72523809Y-51135595D01*
X72761904Y-51135595D01*
X72857142Y-51183214D01*
X72904761Y-51230833D01*
X72952380Y-51326071D01*
X72952380Y-51564166D01*
X72904761Y-51659404D01*
X72857142Y-51707023D01*
%TO.C,C9*%
X56841142Y-57666666D02*
X56888761Y-57714285D01*
X56936380Y-57857142D01*
X56936380Y-57952380D01*
X56888761Y-58095238D01*
X56793523Y-58190476D01*
X56698285Y-58238095D01*
X56507809Y-58285714D01*
X56364952Y-58285714D01*
X56174476Y-58238095D01*
X56079238Y-58190476D01*
X55984000Y-58095238D01*
X55936380Y-57952380D01*
X55936380Y-57857142D01*
X55984000Y-57714285D01*
X56031619Y-57666666D01*
X56936380Y-57190476D02*
X56936380Y-57000000D01*
X56888761Y-56904761D01*
X56841142Y-56857142D01*
X56698285Y-56761904D01*
X56507809Y-56714285D01*
X56126857Y-56714285D01*
X56031619Y-56761904D01*
X55984000Y-56809523D01*
X55936380Y-56904761D01*
X55936380Y-57095238D01*
X55984000Y-57190476D01*
X56031619Y-57238095D01*
X56126857Y-57285714D01*
X56364952Y-57285714D01*
X56460190Y-57238095D01*
X56507809Y-57190476D01*
X56555428Y-57095238D01*
X56555428Y-56904761D01*
X56507809Y-56809523D01*
X56460190Y-56761904D01*
X56364952Y-56714285D01*
%TO.C,R6*%
X77033333Y-48436380D02*
X76700000Y-47960190D01*
X76461904Y-48436380D02*
X76461904Y-47436380D01*
X76842857Y-47436380D01*
X76938095Y-47484000D01*
X76985714Y-47531619D01*
X77033333Y-47626857D01*
X77033333Y-47769714D01*
X76985714Y-47864952D01*
X76938095Y-47912571D01*
X76842857Y-47960190D01*
X76461904Y-47960190D01*
X77890476Y-47436380D02*
X77700000Y-47436380D01*
X77604761Y-47484000D01*
X77557142Y-47531619D01*
X77461904Y-47674476D01*
X77414285Y-47864952D01*
X77414285Y-48245904D01*
X77461904Y-48341142D01*
X77509523Y-48388761D01*
X77604761Y-48436380D01*
X77795238Y-48436380D01*
X77890476Y-48388761D01*
X77938095Y-48341142D01*
X77985714Y-48245904D01*
X77985714Y-48007809D01*
X77938095Y-47912571D01*
X77890476Y-47864952D01*
X77795238Y-47817333D01*
X77604761Y-47817333D01*
X77509523Y-47864952D01*
X77461904Y-47912571D01*
X77414285Y-48007809D01*
%TO.C,C6*%
X57333333Y-48357142D02*
X57285714Y-48404761D01*
X57142857Y-48452380D01*
X57047619Y-48452380D01*
X56904761Y-48404761D01*
X56809523Y-48309523D01*
X56761904Y-48214285D01*
X56714285Y-48023809D01*
X56714285Y-47880952D01*
X56761904Y-47690476D01*
X56809523Y-47595238D01*
X56904761Y-47500000D01*
X57047619Y-47452380D01*
X57142857Y-47452380D01*
X57285714Y-47500000D01*
X57333333Y-47547619D01*
X58190476Y-47452380D02*
X58000000Y-47452380D01*
X57904761Y-47500000D01*
X57857142Y-47547619D01*
X57761904Y-47690476D01*
X57714285Y-47880952D01*
X57714285Y-48261904D01*
X57761904Y-48357142D01*
X57809523Y-48404761D01*
X57904761Y-48452380D01*
X58095238Y-48452380D01*
X58190476Y-48404761D01*
X58238095Y-48357142D01*
X58285714Y-48261904D01*
X58285714Y-48023809D01*
X58238095Y-47928571D01*
X58190476Y-47880952D01*
X58095238Y-47833333D01*
X57904761Y-47833333D01*
X57809523Y-47880952D01*
X57761904Y-47928571D01*
X57714285Y-48023809D01*
%TO.C,R3*%
X71333333Y-36936380D02*
X71000000Y-36460190D01*
X70761904Y-36936380D02*
X70761904Y-35936380D01*
X71142857Y-35936380D01*
X71238095Y-35984000D01*
X71285714Y-36031619D01*
X71333333Y-36126857D01*
X71333333Y-36269714D01*
X71285714Y-36364952D01*
X71238095Y-36412571D01*
X71142857Y-36460190D01*
X70761904Y-36460190D01*
X71666666Y-35936380D02*
X72285714Y-35936380D01*
X71952380Y-36317333D01*
X72095238Y-36317333D01*
X72190476Y-36364952D01*
X72238095Y-36412571D01*
X72285714Y-36507809D01*
X72285714Y-36745904D01*
X72238095Y-36841142D01*
X72190476Y-36888761D01*
X72095238Y-36936380D01*
X71809523Y-36936380D01*
X71714285Y-36888761D01*
X71666666Y-36841142D01*
%TO.C,R8*%
X99452380Y-49666666D02*
X98976190Y-50000000D01*
X99452380Y-50238095D02*
X98452380Y-50238095D01*
X98452380Y-49857142D01*
X98500000Y-49761904D01*
X98547619Y-49714285D01*
X98642857Y-49666666D01*
X98785714Y-49666666D01*
X98880952Y-49714285D01*
X98928571Y-49761904D01*
X98976190Y-49857142D01*
X98976190Y-50238095D01*
X98880952Y-49095238D02*
X98833333Y-49190476D01*
X98785714Y-49238095D01*
X98690476Y-49285714D01*
X98642857Y-49285714D01*
X98547619Y-49238095D01*
X98500000Y-49190476D01*
X98452380Y-49095238D01*
X98452380Y-48904761D01*
X98500000Y-48809523D01*
X98547619Y-48761904D01*
X98642857Y-48714285D01*
X98690476Y-48714285D01*
X98785714Y-48761904D01*
X98833333Y-48809523D01*
X98880952Y-48904761D01*
X98880952Y-49095238D01*
X98928571Y-49190476D01*
X98976190Y-49238095D01*
X99071428Y-49285714D01*
X99261904Y-49285714D01*
X99357142Y-49238095D01*
X99404761Y-49190476D01*
X99452380Y-49095238D01*
X99452380Y-48904761D01*
X99404761Y-48809523D01*
X99357142Y-48761904D01*
X99261904Y-48714285D01*
X99071428Y-48714285D01*
X98976190Y-48761904D01*
X98928571Y-48809523D01*
X98880952Y-48904761D01*
%TO.C,R7*%
X77078333Y-55452380D02*
X76745000Y-54976190D01*
X76506904Y-55452380D02*
X76506904Y-54452380D01*
X76887857Y-54452380D01*
X76983095Y-54500000D01*
X77030714Y-54547619D01*
X77078333Y-54642857D01*
X77078333Y-54785714D01*
X77030714Y-54880952D01*
X76983095Y-54928571D01*
X76887857Y-54976190D01*
X76506904Y-54976190D01*
X77411666Y-54452380D02*
X78078333Y-54452380D01*
X77649761Y-55452380D01*
%TO.C,R11*%
X101952380Y-50180357D02*
X101476190Y-50513690D01*
X101952380Y-50751785D02*
X100952380Y-50751785D01*
X100952380Y-50370833D01*
X101000000Y-50275595D01*
X101047619Y-50227976D01*
X101142857Y-50180357D01*
X101285714Y-50180357D01*
X101380952Y-50227976D01*
X101428571Y-50275595D01*
X101476190Y-50370833D01*
X101476190Y-50751785D01*
X101952380Y-49227976D02*
X101952380Y-49799404D01*
X101952380Y-49513690D02*
X100952380Y-49513690D01*
X101095238Y-49608928D01*
X101190476Y-49704166D01*
X101238095Y-49799404D01*
X101952380Y-48275595D02*
X101952380Y-48847023D01*
X101952380Y-48561309D02*
X100952380Y-48561309D01*
X101095238Y-48656547D01*
X101190476Y-48751785D01*
X101238095Y-48847023D01*
%TO.C,U1*%
X54738095Y-53452380D02*
X54738095Y-54261904D01*
X54785714Y-54357142D01*
X54833333Y-54404761D01*
X54928571Y-54452380D01*
X55119047Y-54452380D01*
X55214285Y-54404761D01*
X55261904Y-54357142D01*
X55309523Y-54261904D01*
X55309523Y-53452380D01*
X56309523Y-54452380D02*
X55738095Y-54452380D01*
X56023809Y-54452380D02*
X56023809Y-53452380D01*
X55928571Y-53595238D01*
X55833333Y-53690476D01*
X55738095Y-53738095D01*
%TO.C,L2*%
X78349333Y-67952380D02*
X77873142Y-67952380D01*
X77873142Y-66952380D01*
X78635047Y-67047619D02*
X78682666Y-67000000D01*
X78777904Y-66952380D01*
X79016000Y-66952380D01*
X79111238Y-67000000D01*
X79158857Y-67047619D01*
X79206476Y-67142857D01*
X79206476Y-67238095D01*
X79158857Y-67380952D01*
X78587428Y-67952380D01*
X79206476Y-67952380D01*
%TO.C,C7*%
X57187066Y-50857142D02*
X57139447Y-50904761D01*
X56996590Y-50952380D01*
X56901352Y-50952380D01*
X56758494Y-50904761D01*
X56663256Y-50809523D01*
X56615637Y-50714285D01*
X56568018Y-50523809D01*
X56568018Y-50380952D01*
X56615637Y-50190476D01*
X56663256Y-50095238D01*
X56758494Y-50000000D01*
X56901352Y-49952380D01*
X56996590Y-49952380D01*
X57139447Y-50000000D01*
X57187066Y-50047619D01*
X57520399Y-49952380D02*
X58187066Y-49952380D01*
X57758494Y-50952380D01*
%TO.C,C11*%
X48357142Y-31357142D02*
X48309523Y-31404761D01*
X48166666Y-31452380D01*
X48071428Y-31452380D01*
X47928571Y-31404761D01*
X47833333Y-31309523D01*
X47785714Y-31214285D01*
X47738095Y-31023809D01*
X47738095Y-30880952D01*
X47785714Y-30690476D01*
X47833333Y-30595238D01*
X47928571Y-30500000D01*
X48071428Y-30452380D01*
X48166666Y-30452380D01*
X48309523Y-30500000D01*
X48357142Y-30547619D01*
X49309523Y-31452380D02*
X48738095Y-31452380D01*
X49023809Y-31452380D02*
X49023809Y-30452380D01*
X48928571Y-30595238D01*
X48833333Y-30690476D01*
X48738095Y-30738095D01*
X50261904Y-31452380D02*
X49690476Y-31452380D01*
X49976190Y-31452380D02*
X49976190Y-30452380D01*
X49880952Y-30595238D01*
X49785714Y-30690476D01*
X49690476Y-30738095D01*
%TO.C,AE1*%
X48666666Y-50666666D02*
X48666666Y-50190476D01*
X48952380Y-50761904D02*
X47952380Y-50428571D01*
X48952380Y-50095238D01*
X48428571Y-49761904D02*
X48428571Y-49428571D01*
X48952380Y-49285714D02*
X48952380Y-49761904D01*
X47952380Y-49761904D01*
X47952380Y-49285714D01*
X48952380Y-48333333D02*
X48952380Y-48904761D01*
X48952380Y-48619047D02*
X47952380Y-48619047D01*
X48095238Y-48714285D01*
X48190476Y-48809523D01*
X48238095Y-48904761D01*
%TO.C,C16*%
X76357142Y-36977142D02*
X76309523Y-37024761D01*
X76166666Y-37072380D01*
X76071428Y-37072380D01*
X75928571Y-37024761D01*
X75833333Y-36929523D01*
X75785714Y-36834285D01*
X75738095Y-36643809D01*
X75738095Y-36500952D01*
X75785714Y-36310476D01*
X75833333Y-36215238D01*
X75928571Y-36120000D01*
X76071428Y-36072380D01*
X76166666Y-36072380D01*
X76309523Y-36120000D01*
X76357142Y-36167619D01*
X77309523Y-37072380D02*
X76738095Y-37072380D01*
X77023809Y-37072380D02*
X77023809Y-36072380D01*
X76928571Y-36215238D01*
X76833333Y-36310476D01*
X76738095Y-36358095D01*
X78166666Y-36072380D02*
X77976190Y-36072380D01*
X77880952Y-36120000D01*
X77833333Y-36167619D01*
X77738095Y-36310476D01*
X77690476Y-36500952D01*
X77690476Y-36881904D01*
X77738095Y-36977142D01*
X77785714Y-37024761D01*
X77880952Y-37072380D01*
X78071428Y-37072380D01*
X78166666Y-37024761D01*
X78214285Y-36977142D01*
X78261904Y-36881904D01*
X78261904Y-36643809D01*
X78214285Y-36548571D01*
X78166666Y-36500952D01*
X78071428Y-36453333D01*
X77880952Y-36453333D01*
X77785714Y-36500952D01*
X77738095Y-36548571D01*
X77690476Y-36643809D01*
%TO.C,U4*%
X78738095Y-39952380D02*
X78738095Y-40761904D01*
X78785714Y-40857142D01*
X78833333Y-40904761D01*
X78928571Y-40952380D01*
X79119047Y-40952380D01*
X79214285Y-40904761D01*
X79261904Y-40857142D01*
X79309523Y-40761904D01*
X79309523Y-39952380D01*
X80214285Y-40285714D02*
X80214285Y-40952380D01*
X79976190Y-39904761D02*
X79738095Y-40619047D01*
X80357142Y-40619047D01*
%TO.C,C23*%
X76557142Y-50341142D02*
X76509523Y-50388761D01*
X76366666Y-50436380D01*
X76271428Y-50436380D01*
X76128571Y-50388761D01*
X76033333Y-50293523D01*
X75985714Y-50198285D01*
X75938095Y-50007809D01*
X75938095Y-49864952D01*
X75985714Y-49674476D01*
X76033333Y-49579238D01*
X76128571Y-49484000D01*
X76271428Y-49436380D01*
X76366666Y-49436380D01*
X76509523Y-49484000D01*
X76557142Y-49531619D01*
X76938095Y-49531619D02*
X76985714Y-49484000D01*
X77080952Y-49436380D01*
X77319047Y-49436380D01*
X77414285Y-49484000D01*
X77461904Y-49531619D01*
X77509523Y-49626857D01*
X77509523Y-49722095D01*
X77461904Y-49864952D01*
X76890476Y-50436380D01*
X77509523Y-50436380D01*
X77842857Y-49436380D02*
X78461904Y-49436380D01*
X78128571Y-49817333D01*
X78271428Y-49817333D01*
X78366666Y-49864952D01*
X78414285Y-49912571D01*
X78461904Y-50007809D01*
X78461904Y-50245904D01*
X78414285Y-50341142D01*
X78366666Y-50388761D01*
X78271428Y-50436380D01*
X77985714Y-50436380D01*
X77890476Y-50388761D01*
X77842857Y-50341142D01*
%TO.C,SW4*%
X95958666Y-65952761D02*
X96101523Y-66000380D01*
X96339619Y-66000380D01*
X96434857Y-65952761D01*
X96482476Y-65905142D01*
X96530095Y-65809904D01*
X96530095Y-65714666D01*
X96482476Y-65619428D01*
X96434857Y-65571809D01*
X96339619Y-65524190D01*
X96149142Y-65476571D01*
X96053904Y-65428952D01*
X96006285Y-65381333D01*
X95958666Y-65286095D01*
X95958666Y-65190857D01*
X96006285Y-65095619D01*
X96053904Y-65048000D01*
X96149142Y-65000380D01*
X96387238Y-65000380D01*
X96530095Y-65048000D01*
X96863428Y-65000380D02*
X97101523Y-66000380D01*
X97292000Y-65286095D01*
X97482476Y-66000380D01*
X97720571Y-65000380D01*
X98530095Y-65333714D02*
X98530095Y-66000380D01*
X98292000Y-64952761D02*
X98053904Y-65667047D01*
X98672952Y-65667047D01*
%TO.C,D1*%
X101952380Y-45238095D02*
X100952380Y-45238095D01*
X100952380Y-45000000D01*
X101000000Y-44857142D01*
X101095238Y-44761904D01*
X101190476Y-44714285D01*
X101380952Y-44666666D01*
X101523809Y-44666666D01*
X101714285Y-44714285D01*
X101809523Y-44761904D01*
X101904761Y-44857142D01*
X101952380Y-45000000D01*
X101952380Y-45238095D01*
X101952380Y-43714285D02*
X101952380Y-44285714D01*
X101952380Y-44000000D02*
X100952380Y-44000000D01*
X101095238Y-44095238D01*
X101190476Y-44190476D01*
X101238095Y-44285714D01*
%TO.C,C3*%
X54857142Y-67472399D02*
X54904761Y-67520018D01*
X54952380Y-67662875D01*
X54952380Y-67758113D01*
X54904761Y-67900971D01*
X54809523Y-67996209D01*
X54714285Y-68043828D01*
X54523809Y-68091447D01*
X54380952Y-68091447D01*
X54190476Y-68043828D01*
X54095238Y-67996209D01*
X54000000Y-67900971D01*
X53952380Y-67758113D01*
X53952380Y-67662875D01*
X54000000Y-67520018D01*
X54047619Y-67472399D01*
X53952380Y-67139066D02*
X53952380Y-66520018D01*
X54333333Y-66853352D01*
X54333333Y-66710494D01*
X54380952Y-66615256D01*
X54428571Y-66567637D01*
X54523809Y-66520018D01*
X54761904Y-66520018D01*
X54857142Y-66567637D01*
X54904761Y-66615256D01*
X54952380Y-66710494D01*
X54952380Y-66996209D01*
X54904761Y-67091447D01*
X54857142Y-67139066D01*
%TO.C,C20*%
X95357142Y-52341142D02*
X95309523Y-52388761D01*
X95166666Y-52436380D01*
X95071428Y-52436380D01*
X94928571Y-52388761D01*
X94833333Y-52293523D01*
X94785714Y-52198285D01*
X94738095Y-52007809D01*
X94738095Y-51864952D01*
X94785714Y-51674476D01*
X94833333Y-51579238D01*
X94928571Y-51484000D01*
X95071428Y-51436380D01*
X95166666Y-51436380D01*
X95309523Y-51484000D01*
X95357142Y-51531619D01*
X95738095Y-51531619D02*
X95785714Y-51484000D01*
X95880952Y-51436380D01*
X96119047Y-51436380D01*
X96214285Y-51484000D01*
X96261904Y-51531619D01*
X96309523Y-51626857D01*
X96309523Y-51722095D01*
X96261904Y-51864952D01*
X95690476Y-52436380D01*
X96309523Y-52436380D01*
X96928571Y-51436380D02*
X97023809Y-51436380D01*
X97119047Y-51484000D01*
X97166666Y-51531619D01*
X97214285Y-51626857D01*
X97261904Y-51817333D01*
X97261904Y-52055428D01*
X97214285Y-52245904D01*
X97166666Y-52341142D01*
X97119047Y-52388761D01*
X97023809Y-52436380D01*
X96928571Y-52436380D01*
X96833333Y-52388761D01*
X96785714Y-52341142D01*
X96738095Y-52245904D01*
X96690476Y-52055428D01*
X96690476Y-51817333D01*
X96738095Y-51626857D01*
X96785714Y-51531619D01*
X96833333Y-51484000D01*
X96928571Y-51436380D01*
%TO.C,SW5*%
X83766666Y-65612761D02*
X83909523Y-65660380D01*
X84147619Y-65660380D01*
X84242857Y-65612761D01*
X84290476Y-65565142D01*
X84338095Y-65469904D01*
X84338095Y-65374666D01*
X84290476Y-65279428D01*
X84242857Y-65231809D01*
X84147619Y-65184190D01*
X83957142Y-65136571D01*
X83861904Y-65088952D01*
X83814285Y-65041333D01*
X83766666Y-64946095D01*
X83766666Y-64850857D01*
X83814285Y-64755619D01*
X83861904Y-64708000D01*
X83957142Y-64660380D01*
X84195238Y-64660380D01*
X84338095Y-64708000D01*
X84671428Y-64660380D02*
X84909523Y-65660380D01*
X85100000Y-64946095D01*
X85290476Y-65660380D01*
X85528571Y-64660380D01*
X86385714Y-64660380D02*
X85909523Y-64660380D01*
X85861904Y-65136571D01*
X85909523Y-65088952D01*
X86004761Y-65041333D01*
X86242857Y-65041333D01*
X86338095Y-65088952D01*
X86385714Y-65136571D01*
X86433333Y-65231809D01*
X86433333Y-65469904D01*
X86385714Y-65565142D01*
X86338095Y-65612761D01*
X86242857Y-65660380D01*
X86004761Y-65660380D01*
X85909523Y-65612761D01*
X85861904Y-65565142D01*
D12*
%TO.C,RV1*%
X69700000Y-38900000D02*
X74400000Y-38900000D01*
X74400000Y-38900000D02*
X74400000Y-43500000D01*
X74400000Y-43500000D02*
X69700000Y-43500000D01*
X69700000Y-43500000D02*
X69700000Y-38900000D01*
%TO.C,C8*%
X57964000Y-67305733D02*
X57964000Y-67598267D01*
X56944000Y-67305733D02*
X56944000Y-67598267D01*
%TO.C,C14*%
X72553733Y-48490000D02*
X72846267Y-48490000D01*
X72553733Y-49510000D02*
X72846267Y-49510000D01*
%TO.C,C27*%
X63460000Y-40284900D02*
X61931000Y-40284900D01*
X66928000Y-40925900D02*
X65540000Y-40925900D01*
X67056000Y-40404900D02*
X65540000Y-40404900D01*
X67050000Y-40444900D02*
X65540000Y-40444900D01*
X66401000Y-41805900D02*
X65540000Y-41805900D01*
X67080000Y-40044900D02*
X61920000Y-40044900D01*
X63460000Y-41685900D02*
X62496000Y-41685900D01*
X66225000Y-37490125D02*
X65725000Y-37490125D01*
X67028000Y-40564900D02*
X65540000Y-40564900D01*
X63460000Y-42325900D02*
X63249000Y-42325900D01*
X66675000Y-41445900D02*
X65540000Y-41445900D01*
X66471000Y-41725900D02*
X65540000Y-41725900D01*
X66968000Y-40805900D02*
X65540000Y-40805900D01*
X66153000Y-42045900D02*
X65540000Y-42045900D01*
X66914000Y-40965900D02*
X65540000Y-40965900D01*
X63460000Y-40885900D02*
X62058000Y-40885900D01*
X63460000Y-41085900D02*
X62135000Y-41085900D01*
X63460000Y-41965900D02*
X62757000Y-41965900D01*
X66700000Y-41405900D02*
X65540000Y-41405900D01*
X66000000Y-42165900D02*
X65540000Y-42165900D01*
X63460000Y-42205900D02*
X63057000Y-42205900D01*
X66535000Y-41645900D02*
X65540000Y-41645900D01*
X65177000Y-42565900D02*
X63823000Y-42565900D01*
X63460000Y-41245900D02*
X62210000Y-41245900D01*
X66942000Y-40885900D02*
X65540000Y-40885900D01*
X63460000Y-40925900D02*
X62072000Y-40925900D01*
X67036000Y-40524900D02*
X65540000Y-40524900D01*
X65598000Y-42405900D02*
X63402000Y-42405900D01*
X63460000Y-41565900D02*
X62405000Y-41565900D01*
X67079000Y-40124900D02*
X61921000Y-40124900D01*
X65751000Y-42325900D02*
X65540000Y-42325900D01*
X63460000Y-40644900D02*
X61989000Y-40644900D01*
X63460000Y-42005900D02*
X62801000Y-42005900D01*
X66285000Y-41925900D02*
X65540000Y-41925900D01*
X63460000Y-40805900D02*
X62032000Y-40805900D01*
X66199000Y-42005900D02*
X65540000Y-42005900D01*
X67065000Y-40324900D02*
X65540000Y-40324900D01*
X63460000Y-40404900D02*
X61944000Y-40404900D01*
X63460000Y-41285900D02*
X62232000Y-41285900D01*
X65018000Y-42605900D02*
X63982000Y-42605900D01*
X63460000Y-41525900D02*
X62378000Y-41525900D01*
X63460000Y-41725900D02*
X62529000Y-41725900D01*
X66865000Y-41085900D02*
X65540000Y-41085900D01*
X63460000Y-42245900D02*
X63117000Y-42245900D01*
X66243000Y-41965900D02*
X65540000Y-41965900D01*
X66649000Y-41485900D02*
X65540000Y-41485900D01*
X64784000Y-42645900D02*
X64216000Y-42645900D01*
X63460000Y-40684900D02*
X61999000Y-40684900D01*
X65943000Y-42205900D02*
X65540000Y-42205900D01*
X65975000Y-37240125D02*
X65975000Y-37740125D01*
X63460000Y-40564900D02*
X61972000Y-40564900D01*
X63460000Y-40765900D02*
X62020000Y-40765900D01*
X66898000Y-41005900D02*
X65540000Y-41005900D01*
X67076000Y-40204900D02*
X61924000Y-40204900D01*
X66724000Y-41365900D02*
X65540000Y-41365900D01*
X66054000Y-42125900D02*
X65540000Y-42125900D01*
X63460000Y-42125900D02*
X62946000Y-42125900D01*
X67011000Y-40644900D02*
X65540000Y-40644900D01*
X63460000Y-41405900D02*
X62300000Y-41405900D01*
X65678000Y-42365900D02*
X63322000Y-42365900D01*
X63460000Y-41645900D02*
X62465000Y-41645900D01*
X66622000Y-41525900D02*
X65540000Y-41525900D01*
X67073000Y-40244900D02*
X61927000Y-40244900D01*
X66747000Y-41325900D02*
X65540000Y-41325900D01*
X66991000Y-40724900D02*
X65540000Y-40724900D01*
X63460000Y-40724900D02*
X62009000Y-40724900D01*
X63460000Y-41205900D02*
X62190000Y-41205900D01*
X66768000Y-41285900D02*
X65540000Y-41285900D01*
X67078000Y-40164900D02*
X61922000Y-40164900D01*
X63460000Y-42085900D02*
X62895000Y-42085900D01*
X63460000Y-40845900D02*
X62045000Y-40845900D01*
X63460000Y-41605900D02*
X62435000Y-41605900D01*
X66565000Y-41605900D02*
X65540000Y-41605900D01*
X66790000Y-41245900D02*
X65540000Y-41245900D01*
X63460000Y-42045900D02*
X62847000Y-42045900D01*
X63460000Y-40524900D02*
X61964000Y-40524900D01*
X67069000Y-40284900D02*
X65540000Y-40284900D01*
X63460000Y-41125900D02*
X62152000Y-41125900D01*
X63460000Y-41445900D02*
X62325000Y-41445900D01*
X67043000Y-40484900D02*
X65540000Y-40484900D01*
X66504000Y-41685900D02*
X65540000Y-41685900D01*
X66848000Y-41125900D02*
X65540000Y-41125900D01*
X63460000Y-40324900D02*
X61935000Y-40324900D01*
X66105000Y-42085900D02*
X65540000Y-42085900D01*
X63460000Y-41885900D02*
X62674000Y-41885900D01*
X63460000Y-41805900D02*
X62599000Y-41805900D01*
X63460000Y-40444900D02*
X61950000Y-40444900D01*
X63460000Y-40604900D02*
X61980000Y-40604900D01*
X63460000Y-42165900D02*
X63000000Y-42165900D01*
X63460000Y-41165900D02*
X62171000Y-41165900D01*
X67080000Y-40084900D02*
X61920000Y-40084900D01*
X66955000Y-40845900D02*
X65540000Y-40845900D01*
X67061000Y-40364900D02*
X65540000Y-40364900D01*
X63460000Y-41005900D02*
X62102000Y-41005900D01*
X66829000Y-41165900D02*
X65540000Y-41165900D01*
X66980000Y-40765900D02*
X65540000Y-40765900D01*
X65511000Y-42445900D02*
X63489000Y-42445900D01*
X66810000Y-41205900D02*
X65540000Y-41205900D01*
X66437000Y-41765900D02*
X65540000Y-41765900D01*
X63460000Y-41925900D02*
X62715000Y-41925900D01*
X63460000Y-40364900D02*
X61939000Y-40364900D01*
X65883000Y-42245900D02*
X65540000Y-42245900D01*
X65819000Y-42285900D02*
X65540000Y-42285900D01*
X63460000Y-41765900D02*
X62563000Y-41765900D01*
X66326000Y-41885900D02*
X65540000Y-41885900D01*
X63460000Y-42285900D02*
X63181000Y-42285900D01*
X63460000Y-40965900D02*
X62086000Y-40965900D01*
X63460000Y-41045900D02*
X62118000Y-41045900D01*
X65305000Y-42525900D02*
X63695000Y-42525900D01*
X66882000Y-41045900D02*
X65540000Y-41045900D01*
X63460000Y-41365900D02*
X62276000Y-41365900D01*
X67001000Y-40684900D02*
X65540000Y-40684900D01*
X63460000Y-41325900D02*
X62253000Y-41325900D01*
X66364000Y-41845900D02*
X65540000Y-41845900D01*
X63460000Y-40484900D02*
X61957000Y-40484900D01*
X63460000Y-41485900D02*
X62351000Y-41485900D01*
X66595000Y-41565900D02*
X65540000Y-41565900D01*
X63460000Y-41845900D02*
X62636000Y-41845900D01*
X67020000Y-40604900D02*
X65540000Y-40604900D01*
X65415000Y-42485900D02*
X63585000Y-42485900D01*
X67120000Y-40044900D02*
G75*
G03*
X67120000Y-40044900I-2620000J0D01*
G01*
%TO.C,U3*%
X68160000Y-44520000D02*
X66510000Y-44520000D01*
X64510000Y-44520000D02*
X62860000Y-44520000D01*
X62860000Y-67500000D02*
X68160000Y-67500000D01*
X68160000Y-67500000D02*
X68160000Y-44520000D01*
X62860000Y-44520000D02*
X62860000Y-67500000D01*
X64510000Y-44520000D02*
G75*
G03*
X66510000Y-44520000I1000000J0D01*
G01*
%TO.C,R4*%
X72445276Y-46477500D02*
X72954724Y-46477500D01*
X72445276Y-47522500D02*
X72954724Y-47522500D01*
D13*
%TO.C,J1*%
X99400000Y-30650000D02*
X99400000Y-30650000D01*
D14*
X95600000Y-39400000D02*
X87000000Y-39400000D01*
X98600000Y-39400000D02*
X104000000Y-39400000D01*
X97600000Y-33400000D02*
X91400000Y-33400000D01*
X104000000Y-33400000D02*
X100600000Y-33400000D01*
X88000000Y-33400000D02*
X87000000Y-33400000D01*
X87000000Y-33400000D02*
X87000000Y-34950000D01*
X87000000Y-39450000D02*
X87000000Y-34950000D01*
X104000000Y-39400000D02*
X104000000Y-33400000D01*
D13*
X99200000Y-30650000D02*
X99200000Y-30650000D01*
X99200000Y-30650000D02*
G75*
G03*
X99400000Y-30650000I100000J0D01*
G01*
X99400000Y-30650000D02*
G75*
G03*
X99200000Y-30650000I-100000J0D01*
G01*
D12*
%TO.C,C21*%
X73391267Y-59510000D02*
X73098733Y-59510000D01*
X73391267Y-58490000D02*
X73098733Y-58490000D01*
%TO.C,R5*%
X80945276Y-49522500D02*
X81454724Y-49522500D01*
X80945276Y-48477500D02*
X81454724Y-48477500D01*
%TO.C,L1*%
X48900000Y-59500000D02*
X54100000Y-59500000D01*
X54100000Y-59500000D02*
X54100000Y-64300000D01*
X54100000Y-64300000D02*
X48900000Y-64300000D01*
X48900000Y-64300000D02*
X48900000Y-59500000D01*
%TO.C,BT1*%
X60855000Y-37420000D02*
X60855000Y-38750000D01*
X58195000Y-42620000D02*
X60855000Y-42620000D01*
X58195000Y-40020000D02*
X58195000Y-42620000D01*
X58195000Y-40020000D02*
X60855000Y-40020000D01*
X59525000Y-37420000D02*
X60855000Y-37420000D01*
X60855000Y-40020000D02*
X60855000Y-42620000D01*
%TO.C,C24*%
X81141233Y-45990000D02*
X81433767Y-45990000D01*
X81141233Y-47010000D02*
X81433767Y-47010000D01*
%TO.C,C1*%
X54374633Y-40346000D02*
X54667167Y-40346000D01*
X54374633Y-41366000D02*
X54667167Y-41366000D01*
%TO.C,SW1*%
X64300000Y-30000000D02*
X71600000Y-30000000D01*
X71600000Y-30000000D02*
X71600000Y-33000000D01*
X71600000Y-33000000D02*
X64300000Y-33000000D01*
X64300000Y-33000000D02*
X64300000Y-30000000D01*
D10*
%TO.C,U5*%
X88675000Y-46725000D02*
X88675000Y-46700000D01*
X88675000Y-46725000D02*
X93325000Y-46725000D01*
X93300000Y-41200000D02*
X93300000Y-41300000D01*
X87600000Y-41200000D02*
X93300000Y-41200000D01*
X93325000Y-46725000D02*
X93325000Y-46700000D01*
D12*
%TO.C,C31*%
X58215000Y-31074100D02*
X58960000Y-31074100D01*
X59716000Y-30354100D02*
X60284000Y-30354100D01*
X58525000Y-35759875D02*
X58525000Y-35259875D01*
X57435000Y-32675100D02*
X58960000Y-32675100D01*
X57489000Y-32355100D02*
X58960000Y-32355100D01*
X61040000Y-32715100D02*
X62569000Y-32715100D01*
X58257000Y-31034100D02*
X58960000Y-31034100D01*
X57732000Y-31714100D02*
X58960000Y-31714100D01*
X58749000Y-30674100D02*
X58960000Y-30674100D01*
X57635000Y-31914100D02*
X58960000Y-31914100D01*
X61040000Y-31914100D02*
X62365000Y-31914100D01*
X61040000Y-32355100D02*
X62511000Y-32355100D01*
X57431000Y-32715100D02*
X58960000Y-32715100D01*
X58617000Y-30754100D02*
X58960000Y-30754100D01*
X61040000Y-32234100D02*
X62480000Y-32234100D01*
X57776000Y-31634100D02*
X58960000Y-31634100D01*
X58902000Y-30594100D02*
X61098000Y-30594100D01*
X57439000Y-32635100D02*
X58960000Y-32635100D01*
X61040000Y-31354100D02*
X62035000Y-31354100D01*
X61040000Y-31994100D02*
X62398000Y-31994100D01*
X57965000Y-31354100D02*
X58960000Y-31354100D01*
X61040000Y-30914100D02*
X61605000Y-30914100D01*
X57420000Y-32955100D02*
X62580000Y-32955100D01*
X58063000Y-31234100D02*
X58960000Y-31234100D01*
X61040000Y-31714100D02*
X62268000Y-31714100D01*
X57905000Y-31434100D02*
X58960000Y-31434100D01*
X57480000Y-32395100D02*
X58960000Y-32395100D01*
X57652000Y-31874100D02*
X58960000Y-31874100D01*
X61040000Y-30994100D02*
X61699000Y-30994100D01*
X61040000Y-31154100D02*
X61864000Y-31154100D01*
X61040000Y-31874100D02*
X62348000Y-31874100D01*
X57464000Y-32475100D02*
X58960000Y-32475100D01*
X57558000Y-32114100D02*
X58960000Y-32114100D01*
X61040000Y-30954100D02*
X61653000Y-30954100D01*
X58275000Y-35509875D02*
X58775000Y-35509875D01*
X61040000Y-32194100D02*
X62468000Y-32194100D01*
X59195000Y-30474100D02*
X60805000Y-30474100D01*
X61040000Y-30674100D02*
X61251000Y-30674100D01*
X58822000Y-30634100D02*
X61178000Y-30634100D01*
X61040000Y-30874100D02*
X61554000Y-30874100D01*
X61040000Y-30834100D02*
X61500000Y-30834100D01*
X61040000Y-31194100D02*
X61901000Y-31194100D01*
X57424000Y-32795100D02*
X62576000Y-32795100D01*
X61040000Y-31234100D02*
X61937000Y-31234100D01*
X59085000Y-30514100D02*
X60915000Y-30514100D01*
X61040000Y-32034100D02*
X62414000Y-32034100D01*
X58557000Y-30794100D02*
X58960000Y-30794100D01*
X58989000Y-30554100D02*
X61011000Y-30554100D01*
X61040000Y-31314100D02*
X62004000Y-31314100D01*
X61040000Y-32595100D02*
X62556000Y-32595100D01*
X58446000Y-30874100D02*
X58960000Y-30874100D01*
X61040000Y-32074100D02*
X62428000Y-32074100D01*
X57851000Y-31514100D02*
X58960000Y-31514100D01*
X61040000Y-31794100D02*
X62310000Y-31794100D01*
X57532000Y-32194100D02*
X58960000Y-32194100D01*
X57602000Y-31994100D02*
X58960000Y-31994100D01*
X57450000Y-32555100D02*
X58960000Y-32555100D01*
X57472000Y-32435100D02*
X58960000Y-32435100D01*
X58681000Y-30714100D02*
X58960000Y-30714100D01*
X61040000Y-31834100D02*
X62329000Y-31834100D01*
X61040000Y-32435100D02*
X62528000Y-32435100D01*
X57586000Y-32034100D02*
X58960000Y-32034100D01*
X59482000Y-30394100D02*
X60518000Y-30394100D01*
X57520000Y-32234100D02*
X58960000Y-32234100D01*
X57444000Y-32595100D02*
X58960000Y-32595100D01*
X57825000Y-31554100D02*
X58960000Y-31554100D01*
X58029000Y-31274100D02*
X58960000Y-31274100D01*
X57935000Y-31394100D02*
X58960000Y-31394100D01*
X58099000Y-31194100D02*
X58960000Y-31194100D01*
X61040000Y-31394100D02*
X62065000Y-31394100D01*
X57800000Y-31594100D02*
X58960000Y-31594100D01*
X57671000Y-31834100D02*
X58960000Y-31834100D01*
X57499000Y-32315100D02*
X58960000Y-32315100D01*
X61040000Y-31954100D02*
X62382000Y-31954100D01*
X61040000Y-31114100D02*
X61826000Y-31114100D01*
X61040000Y-31034100D02*
X61743000Y-31034100D01*
X61040000Y-32475100D02*
X62536000Y-32475100D01*
X61040000Y-31554100D02*
X62175000Y-31554100D01*
X57545000Y-32154100D02*
X58960000Y-32154100D01*
X61040000Y-32635100D02*
X62561000Y-32635100D01*
X59323000Y-30434100D02*
X60677000Y-30434100D01*
X58174000Y-31114100D02*
X58960000Y-31114100D01*
X61040000Y-31674100D02*
X62247000Y-31674100D01*
X61040000Y-31074100D02*
X61785000Y-31074100D01*
X61040000Y-30794100D02*
X61443000Y-30794100D01*
X61040000Y-31274100D02*
X61971000Y-31274100D01*
X61040000Y-32154100D02*
X62455000Y-32154100D01*
X57420000Y-32915100D02*
X62580000Y-32915100D01*
X58395000Y-30914100D02*
X58960000Y-30914100D01*
X61040000Y-30754100D02*
X61383000Y-30754100D01*
X57427000Y-32755100D02*
X62573000Y-32755100D01*
X61040000Y-32675100D02*
X62565000Y-32675100D01*
X61040000Y-32114100D02*
X62442000Y-32114100D01*
X61040000Y-31754100D02*
X62290000Y-31754100D01*
X57996000Y-31314100D02*
X58960000Y-31314100D01*
X57421000Y-32875100D02*
X62579000Y-32875100D01*
X61040000Y-32315100D02*
X62501000Y-32315100D01*
X61040000Y-31434100D02*
X62095000Y-31434100D01*
X61040000Y-31514100D02*
X62149000Y-31514100D01*
X61040000Y-32395100D02*
X62520000Y-32395100D01*
X58136000Y-31154100D02*
X58960000Y-31154100D01*
X58301000Y-30994100D02*
X58960000Y-30994100D01*
X57690000Y-31794100D02*
X58960000Y-31794100D01*
X57618000Y-31954100D02*
X58960000Y-31954100D01*
X57457000Y-32515100D02*
X58960000Y-32515100D01*
X57509000Y-32275100D02*
X58960000Y-32275100D01*
X57572000Y-32074100D02*
X58960000Y-32074100D01*
X61040000Y-32555100D02*
X62550000Y-32555100D01*
X61040000Y-31474100D02*
X62122000Y-31474100D01*
X61040000Y-31634100D02*
X62224000Y-31634100D01*
X57878000Y-31474100D02*
X58960000Y-31474100D01*
X57422000Y-32835100D02*
X62578000Y-32835100D01*
X58347000Y-30954100D02*
X58960000Y-30954100D01*
X57753000Y-31674100D02*
X58960000Y-31674100D01*
X61040000Y-30714100D02*
X61319000Y-30714100D01*
X61040000Y-32515100D02*
X62543000Y-32515100D01*
X58500000Y-30834100D02*
X58960000Y-30834100D01*
X61040000Y-31594100D02*
X62200000Y-31594100D01*
X57710000Y-31754100D02*
X58960000Y-31754100D01*
X61040000Y-32275100D02*
X62491000Y-32275100D01*
X62620000Y-32955100D02*
G75*
G03*
X62620000Y-32955100I-2620000J0D01*
G01*
%TO.C,MK1*%
X51685900Y-44040000D02*
X51685900Y-45004000D01*
X52365900Y-41822000D02*
X52365900Y-44178000D01*
X52045900Y-41347000D02*
X52045900Y-41960000D01*
X51125900Y-44040000D02*
X51125900Y-45348000D01*
X52085900Y-41395000D02*
X52085900Y-41960000D01*
X51005900Y-40602000D02*
X51005900Y-41960000D01*
X50364900Y-44040000D02*
X50364900Y-45561000D01*
X51725900Y-41029000D02*
X51725900Y-41960000D01*
X52125900Y-41446000D02*
X52125900Y-41960000D01*
X51565900Y-40905000D02*
X51565900Y-41960000D01*
X51085900Y-40635000D02*
X51085900Y-41960000D01*
X50684900Y-40499000D02*
X50684900Y-41960000D01*
X50244900Y-40427000D02*
X50244900Y-45573000D01*
X50404900Y-44040000D02*
X50404900Y-45556000D01*
X50644900Y-44040000D02*
X50644900Y-45511000D01*
X51165900Y-40671000D02*
X51165900Y-41960000D01*
X51805900Y-44040000D02*
X51805900Y-44901000D01*
X51045900Y-44040000D02*
X51045900Y-45382000D01*
X51725900Y-44040000D02*
X51725900Y-44971000D01*
X50404900Y-40444000D02*
X50404900Y-41960000D01*
X50604900Y-40480000D02*
X50604900Y-41960000D01*
X50845900Y-40545000D02*
X50845900Y-41960000D01*
X50324900Y-40435000D02*
X50324900Y-41960000D01*
X52045900Y-44040000D02*
X52045900Y-44653000D01*
X51485900Y-44040000D02*
X51485900Y-45149000D01*
X51285900Y-44040000D02*
X51285900Y-45268000D01*
X50925900Y-40572000D02*
X50925900Y-41960000D01*
X50444900Y-40450000D02*
X50444900Y-41960000D01*
X51605900Y-44040000D02*
X51605900Y-45065000D01*
X50724900Y-40509000D02*
X50724900Y-41960000D01*
X51445900Y-40825000D02*
X51445900Y-41960000D01*
X50925900Y-44040000D02*
X50925900Y-45428000D01*
X50805900Y-44040000D02*
X50805900Y-45468000D01*
X51445900Y-44040000D02*
X51445900Y-45175000D01*
X52085900Y-44040000D02*
X52085900Y-44605000D01*
X52525900Y-42195000D02*
X52525900Y-43805000D01*
X51965900Y-41257000D02*
X51965900Y-41960000D01*
X51405900Y-44040000D02*
X51405900Y-45200000D01*
X52325900Y-41749000D02*
X52325900Y-41960000D01*
X51165900Y-44040000D02*
X51165900Y-45329000D01*
X50524900Y-40464000D02*
X50524900Y-41960000D01*
X51845900Y-44040000D02*
X51845900Y-44864000D01*
X50324900Y-44040000D02*
X50324900Y-45565000D01*
X51925900Y-41215000D02*
X51925900Y-41960000D01*
X50444900Y-44040000D02*
X50444900Y-45550000D01*
X51245900Y-40710000D02*
X51245900Y-41960000D01*
X50484900Y-44040000D02*
X50484900Y-45543000D01*
X52605900Y-42482000D02*
X52605900Y-43518000D01*
X50084900Y-40420000D02*
X50084900Y-45580000D01*
X51485900Y-40851000D02*
X51485900Y-41960000D01*
X50724900Y-44040000D02*
X50724900Y-45491000D01*
X51805900Y-41099000D02*
X51805900Y-41960000D01*
X50484900Y-40457000D02*
X50484900Y-41960000D01*
X52245900Y-41617000D02*
X52245900Y-41960000D01*
X51205900Y-44040000D02*
X51205900Y-45310000D01*
X51765900Y-41063000D02*
X51765900Y-41960000D01*
X50564900Y-44040000D02*
X50564900Y-45528000D01*
X50965900Y-44040000D02*
X50965900Y-45414000D01*
X50364900Y-40439000D02*
X50364900Y-41960000D01*
X51405900Y-40800000D02*
X51405900Y-41960000D01*
X51645900Y-40965000D02*
X51645900Y-41960000D01*
X50284900Y-40431000D02*
X50284900Y-41960000D01*
X51085900Y-44040000D02*
X51085900Y-45365000D01*
X50124900Y-40421000D02*
X50124900Y-45579000D01*
X52405900Y-41902000D02*
X52405900Y-44098000D01*
X51245900Y-44040000D02*
X51245900Y-45290000D01*
X50284900Y-44040000D02*
X50284900Y-45569000D01*
X52285900Y-41681000D02*
X52285900Y-41960000D01*
X50965900Y-40586000D02*
X50965900Y-41960000D01*
X47240125Y-41525000D02*
X47740125Y-41525000D01*
X51205900Y-40690000D02*
X51205900Y-41960000D01*
X52485900Y-42085000D02*
X52485900Y-43915000D01*
X50684900Y-44040000D02*
X50684900Y-45501000D01*
X51325900Y-44040000D02*
X51325900Y-45247000D01*
X52325900Y-44040000D02*
X52325900Y-44251000D01*
X52245900Y-44040000D02*
X52245900Y-44383000D01*
X51765900Y-44040000D02*
X51765900Y-44937000D01*
X51045900Y-40618000D02*
X51045900Y-41960000D01*
X50524900Y-44040000D02*
X50524900Y-45536000D01*
X52125900Y-44040000D02*
X52125900Y-44554000D01*
X52205900Y-41557000D02*
X52205900Y-41960000D01*
X50604900Y-44040000D02*
X50604900Y-45520000D01*
X51605900Y-40935000D02*
X51605900Y-41960000D01*
X50885900Y-40558000D02*
X50885900Y-41960000D01*
X52445900Y-41989000D02*
X52445900Y-44011000D01*
X51845900Y-41136000D02*
X51845900Y-41960000D01*
X50044900Y-40420000D02*
X50044900Y-45580000D01*
X51645900Y-44040000D02*
X51645900Y-45035000D01*
X51685900Y-40996000D02*
X51685900Y-41960000D01*
X51565900Y-44040000D02*
X51565900Y-45095000D01*
X52285900Y-44040000D02*
X52285900Y-44319000D01*
X52005900Y-44040000D02*
X52005900Y-44699000D01*
X51885900Y-41174000D02*
X51885900Y-41960000D01*
X51525900Y-40878000D02*
X51525900Y-41960000D01*
X51925900Y-44040000D02*
X51925900Y-44785000D01*
X51325900Y-40753000D02*
X51325900Y-41960000D01*
X51885900Y-44040000D02*
X51885900Y-44826000D01*
X52165900Y-41500000D02*
X52165900Y-41960000D01*
X51965900Y-44040000D02*
X51965900Y-44743000D01*
X51125900Y-40652000D02*
X51125900Y-41960000D01*
X50644900Y-40489000D02*
X50644900Y-41960000D01*
X50765900Y-44040000D02*
X50765900Y-45480000D01*
X52165900Y-44040000D02*
X52165900Y-44500000D01*
X52005900Y-41301000D02*
X52005900Y-41960000D01*
X52205900Y-44040000D02*
X52205900Y-44443000D01*
X52565900Y-42323000D02*
X52565900Y-43677000D01*
X50845900Y-44040000D02*
X50845900Y-45455000D01*
X51525900Y-44040000D02*
X51525900Y-45122000D01*
X50204900Y-40424000D02*
X50204900Y-45576000D01*
X51365900Y-40776000D02*
X51365900Y-41960000D01*
X52645900Y-42716000D02*
X52645900Y-43284000D01*
X50564900Y-40472000D02*
X50564900Y-41960000D01*
X50805900Y-40532000D02*
X50805900Y-41960000D01*
X50164900Y-40422000D02*
X50164900Y-45578000D01*
X47490125Y-41275000D02*
X47490125Y-41775000D01*
X51005900Y-44040000D02*
X51005900Y-45398000D01*
X51285900Y-40732000D02*
X51285900Y-41960000D01*
X50885900Y-44040000D02*
X50885900Y-45442000D01*
X50765900Y-40520000D02*
X50765900Y-41960000D01*
X51365900Y-44040000D02*
X51365900Y-45224000D01*
X52664900Y-43000000D02*
G75*
G03*
X52664900Y-43000000I-2620000J0D01*
G01*
%TO.C,SW2*%
X93092000Y-55700000D02*
X101492000Y-55700000D01*
X101492000Y-55700000D02*
X101492000Y-60300000D01*
X101492000Y-60300000D02*
X93092000Y-60300000D01*
X93092000Y-60300000D02*
X93092000Y-55700000D01*
%TO.C,C4*%
X51353733Y-53010000D02*
X51646267Y-53010000D01*
X51353733Y-51990000D02*
X51646267Y-51990000D01*
%TO.C,SW3*%
X80900000Y-55700000D02*
X89300000Y-55700000D01*
X89300000Y-55700000D02*
X89300000Y-60300000D01*
X89300000Y-60300000D02*
X80900000Y-60300000D01*
X80900000Y-60300000D02*
X80900000Y-55700000D01*
%TO.C,C25*%
X86353733Y-50510000D02*
X86646267Y-50510000D01*
X86353733Y-49490000D02*
X86646267Y-49490000D01*
%TO.C,C10*%
X67990000Y-41353733D02*
X67990000Y-41646267D01*
X69010000Y-41353733D02*
X69010000Y-41646267D01*
%TO.C,C12*%
X58990000Y-64853733D02*
X58990000Y-65146267D01*
X60010000Y-64853733D02*
X60010000Y-65146267D01*
%TO.C,C30*%
X82884900Y-38440000D02*
X82884900Y-39969000D01*
X84365900Y-38440000D02*
X84365900Y-39337000D01*
X84685900Y-38440000D02*
X84685900Y-39005000D01*
X83204900Y-34880000D02*
X83204900Y-36360000D01*
X82964900Y-38440000D02*
X82964900Y-39961000D01*
X84085900Y-38440000D02*
X84085900Y-39549000D01*
X83965900Y-38440000D02*
X83965900Y-39624000D01*
X84925900Y-36149000D02*
X84925900Y-36360000D01*
X83565900Y-38440000D02*
X83565900Y-39814000D01*
X85205900Y-36882000D02*
X85205900Y-37918000D01*
X82724900Y-34821000D02*
X82724900Y-39979000D01*
X83084900Y-38440000D02*
X83084900Y-39943000D01*
X83885900Y-35132000D02*
X83885900Y-36360000D01*
X83445900Y-38440000D02*
X83445900Y-39855000D01*
X82924900Y-34835000D02*
X82924900Y-36360000D01*
X84045900Y-38440000D02*
X84045900Y-39575000D01*
X84645900Y-35747000D02*
X84645900Y-36360000D01*
X82804900Y-34824000D02*
X82804900Y-39976000D01*
X84805900Y-38440000D02*
X84805900Y-38843000D01*
X83244900Y-38440000D02*
X83244900Y-39911000D01*
X83765900Y-35071000D02*
X83765900Y-36360000D01*
X84005900Y-38440000D02*
X84005900Y-39600000D01*
X83925900Y-35153000D02*
X83925900Y-36360000D01*
X84805900Y-35957000D02*
X84805900Y-36360000D01*
X82884900Y-34831000D02*
X82884900Y-36360000D01*
X83885900Y-38440000D02*
X83885900Y-39668000D01*
X82764900Y-34822000D02*
X82764900Y-39978000D01*
X84565900Y-38440000D02*
X84565900Y-39143000D01*
X84725900Y-38440000D02*
X84725900Y-38954000D01*
X83525900Y-34972000D02*
X83525900Y-36360000D01*
X83284900Y-34899000D02*
X83284900Y-36360000D01*
X83164900Y-34872000D02*
X83164900Y-36360000D01*
X83485900Y-38440000D02*
X83485900Y-39842000D01*
X84605900Y-35701000D02*
X84605900Y-36360000D01*
X84165900Y-38440000D02*
X84165900Y-39495000D01*
X83365900Y-34920000D02*
X83365900Y-36360000D01*
X84725900Y-35846000D02*
X84725900Y-36360000D01*
X84205900Y-35335000D02*
X84205900Y-36360000D01*
X83725900Y-38440000D02*
X83725900Y-39748000D01*
X84685900Y-35795000D02*
X84685900Y-36360000D01*
X83405900Y-38440000D02*
X83405900Y-39868000D01*
X84525900Y-38440000D02*
X84525900Y-39185000D01*
X85125900Y-36595000D02*
X85125900Y-38205000D01*
X83124900Y-38440000D02*
X83124900Y-39936000D01*
X84485900Y-38440000D02*
X84485900Y-39226000D01*
X83805900Y-38440000D02*
X83805900Y-39710000D01*
X82684900Y-34820000D02*
X82684900Y-39980000D01*
X82924900Y-38440000D02*
X82924900Y-39965000D01*
X85165900Y-36723000D02*
X85165900Y-38077000D01*
X83645900Y-35018000D02*
X83645900Y-36360000D01*
X85245900Y-37116000D02*
X85245900Y-37684000D01*
X83365900Y-38440000D02*
X83365900Y-39880000D01*
X84325900Y-38440000D02*
X84325900Y-39371000D01*
X83965900Y-35176000D02*
X83965900Y-36360000D01*
X82644900Y-34820000D02*
X82644900Y-39980000D01*
X83525900Y-38440000D02*
X83525900Y-39828000D01*
X84245900Y-38440000D02*
X84245900Y-39435000D01*
X84605900Y-38440000D02*
X84605900Y-39099000D01*
X84165900Y-35305000D02*
X84165900Y-36360000D01*
X83925900Y-38440000D02*
X83925900Y-39647000D01*
X83485900Y-34958000D02*
X83485900Y-36360000D01*
X83685900Y-35035000D02*
X83685900Y-36360000D01*
X84205900Y-38440000D02*
X84205900Y-39465000D01*
X83164900Y-38440000D02*
X83164900Y-39928000D01*
X84565900Y-35657000D02*
X84565900Y-36360000D01*
X83204900Y-38440000D02*
X83204900Y-39920000D01*
X84005900Y-35200000D02*
X84005900Y-36360000D01*
X83244900Y-34889000D02*
X83244900Y-36360000D01*
X83605900Y-35002000D02*
X83605900Y-36360000D01*
X84845900Y-38440000D02*
X84845900Y-38783000D01*
X84085900Y-35251000D02*
X84085900Y-36360000D01*
X84645900Y-38440000D02*
X84645900Y-39053000D01*
X84525900Y-35615000D02*
X84525900Y-36360000D01*
X84405900Y-35499000D02*
X84405900Y-36360000D01*
X84325900Y-35429000D02*
X84325900Y-36360000D01*
X83845900Y-38440000D02*
X83845900Y-39690000D01*
X83324900Y-34909000D02*
X83324900Y-36360000D01*
X84965900Y-36222000D02*
X84965900Y-38578000D01*
X85045900Y-36389000D02*
X85045900Y-38411000D01*
X84765900Y-38440000D02*
X84765900Y-38900000D01*
X80090125Y-35675000D02*
X80090125Y-36175000D01*
X83605900Y-38440000D02*
X83605900Y-39798000D01*
X83004900Y-38440000D02*
X83004900Y-39956000D01*
X84485900Y-35574000D02*
X84485900Y-36360000D01*
X83004900Y-34844000D02*
X83004900Y-36360000D01*
X84245900Y-35365000D02*
X84245900Y-36360000D01*
X84285900Y-35396000D02*
X84285900Y-36360000D01*
X83405900Y-34932000D02*
X83405900Y-36360000D01*
X85085900Y-36485000D02*
X85085900Y-38315000D01*
X83845900Y-35110000D02*
X83845900Y-36360000D01*
X83324900Y-38440000D02*
X83324900Y-39891000D01*
X83084900Y-34857000D02*
X83084900Y-36360000D01*
X83124900Y-34864000D02*
X83124900Y-36360000D01*
X84885900Y-38440000D02*
X84885900Y-38719000D01*
X84125900Y-35278000D02*
X84125900Y-36360000D01*
X83645900Y-38440000D02*
X83645900Y-39782000D01*
X84045900Y-35225000D02*
X84045900Y-36360000D01*
X82844900Y-34827000D02*
X82844900Y-39973000D01*
X84885900Y-36081000D02*
X84885900Y-36360000D01*
X84445900Y-35536000D02*
X84445900Y-36360000D01*
X84405900Y-38440000D02*
X84405900Y-39301000D01*
X83445900Y-34945000D02*
X83445900Y-36360000D01*
X83685900Y-38440000D02*
X83685900Y-39765000D01*
X83044900Y-34850000D02*
X83044900Y-36360000D01*
X83725900Y-35052000D02*
X83725900Y-36360000D01*
X84125900Y-38440000D02*
X84125900Y-39522000D01*
X85005900Y-36302000D02*
X85005900Y-38498000D01*
X83805900Y-35090000D02*
X83805900Y-36360000D01*
X84845900Y-36017000D02*
X84845900Y-36360000D01*
X83044900Y-38440000D02*
X83044900Y-39950000D01*
X84285900Y-38440000D02*
X84285900Y-39404000D01*
X84365900Y-35463000D02*
X84365900Y-36360000D01*
X84925900Y-38440000D02*
X84925900Y-38651000D01*
X79840125Y-35925000D02*
X80340125Y-35925000D01*
X83284900Y-38440000D02*
X83284900Y-39901000D01*
X84765900Y-35900000D02*
X84765900Y-36360000D01*
X83565900Y-34986000D02*
X83565900Y-36360000D01*
X83765900Y-38440000D02*
X83765900Y-39729000D01*
X84445900Y-38440000D02*
X84445900Y-39264000D01*
X82964900Y-34839000D02*
X82964900Y-36360000D01*
X85264900Y-37400000D02*
G75*
G03*
X85264900Y-37400000I-2620000J0D01*
G01*
%TO.C,C26*%
X77098733Y-59510000D02*
X77391267Y-59510000D01*
X77098733Y-58490000D02*
X77391267Y-58490000D01*
%TO.C,C28*%
X78565900Y-34040000D02*
X78565900Y-35480000D01*
X78284900Y-30457000D02*
X78284900Y-31960000D01*
X80205900Y-31902000D02*
X80205900Y-34098000D01*
X79125900Y-30753000D02*
X79125900Y-31960000D01*
X80125900Y-31749000D02*
X80125900Y-31960000D01*
X79725900Y-34040000D02*
X79725900Y-34785000D01*
X79685900Y-31174000D02*
X79685900Y-31960000D01*
X78404900Y-30480000D02*
X78404900Y-31960000D01*
X79365900Y-34040000D02*
X79365900Y-35095000D01*
X79845900Y-31347000D02*
X79845900Y-31960000D01*
X78124900Y-30435000D02*
X78124900Y-31960000D01*
X78605900Y-30532000D02*
X78605900Y-31960000D01*
X79645900Y-31136000D02*
X79645900Y-31960000D01*
X79805900Y-34040000D02*
X79805900Y-34699000D01*
X78244900Y-30450000D02*
X78244900Y-31960000D01*
X78244900Y-34040000D02*
X78244900Y-35550000D01*
X80045900Y-34040000D02*
X80045900Y-34383000D01*
X78965900Y-34040000D02*
X78965900Y-35329000D01*
X79005900Y-34040000D02*
X79005900Y-35310000D01*
X78885900Y-30635000D02*
X78885900Y-31960000D01*
X79285900Y-34040000D02*
X79285900Y-35149000D01*
X79445900Y-34040000D02*
X79445900Y-35035000D01*
X78164900Y-34040000D02*
X78164900Y-35561000D01*
X77924900Y-30421000D02*
X77924900Y-35579000D01*
X78565900Y-30520000D02*
X78565900Y-31960000D01*
X78725900Y-34040000D02*
X78725900Y-35428000D01*
X79085900Y-30732000D02*
X79085900Y-31960000D01*
X79725900Y-31215000D02*
X79725900Y-31960000D01*
X78845900Y-30618000D02*
X78845900Y-31960000D01*
X79765900Y-34040000D02*
X79765900Y-34743000D01*
X78965900Y-30671000D02*
X78965900Y-31960000D01*
X78685900Y-34040000D02*
X78685900Y-35442000D01*
X78484900Y-30499000D02*
X78484900Y-31960000D01*
X79285900Y-30851000D02*
X79285900Y-31960000D01*
X78324900Y-34040000D02*
X78324900Y-35536000D01*
X77964900Y-30422000D02*
X77964900Y-35578000D01*
X79645900Y-34040000D02*
X79645900Y-34864000D01*
X80045900Y-31617000D02*
X80045900Y-31960000D01*
X79205900Y-34040000D02*
X79205900Y-35200000D01*
X78645900Y-30545000D02*
X78645900Y-31960000D01*
X77884900Y-30420000D02*
X77884900Y-35580000D01*
X79445900Y-30965000D02*
X79445900Y-31960000D01*
X79845900Y-34040000D02*
X79845900Y-34653000D01*
X78444900Y-30489000D02*
X78444900Y-31960000D01*
X78204900Y-30444000D02*
X78204900Y-31960000D01*
X79605900Y-31099000D02*
X79605900Y-31960000D01*
X79925900Y-31446000D02*
X79925900Y-31960000D01*
X78725900Y-30572000D02*
X78725900Y-31960000D01*
X78765900Y-34040000D02*
X78765900Y-35414000D01*
X80405900Y-32482000D02*
X80405900Y-33518000D01*
X79525900Y-34040000D02*
X79525900Y-34971000D01*
X79325900Y-30878000D02*
X79325900Y-31960000D01*
X79405900Y-34040000D02*
X79405900Y-35065000D01*
X79565900Y-31063000D02*
X79565900Y-31960000D01*
X79565900Y-34040000D02*
X79565900Y-34937000D01*
X78444900Y-34040000D02*
X78444900Y-35511000D01*
X78204900Y-34040000D02*
X78204900Y-35556000D01*
X78004900Y-30424000D02*
X78004900Y-35576000D01*
X80125900Y-34040000D02*
X80125900Y-34251000D01*
X79765900Y-31257000D02*
X79765900Y-31960000D01*
X79165900Y-30776000D02*
X79165900Y-31960000D01*
X79805900Y-31301000D02*
X79805900Y-31960000D01*
X79965900Y-31500000D02*
X79965900Y-31960000D01*
X78685900Y-30558000D02*
X78685900Y-31960000D01*
X79885900Y-31395000D02*
X79885900Y-31960000D01*
X78484900Y-34040000D02*
X78484900Y-35501000D01*
X79045900Y-30710000D02*
X79045900Y-31960000D01*
X78925900Y-30652000D02*
X78925900Y-31960000D01*
X79245900Y-30825000D02*
X79245900Y-31960000D01*
X80325900Y-32195000D02*
X80325900Y-33805000D01*
X78404900Y-34040000D02*
X78404900Y-35520000D01*
X78524900Y-34040000D02*
X78524900Y-35491000D01*
X78284900Y-34040000D02*
X78284900Y-35543000D01*
X78084900Y-34040000D02*
X78084900Y-35569000D01*
X78765900Y-30586000D02*
X78765900Y-31960000D01*
X78124900Y-34040000D02*
X78124900Y-35565000D01*
X78645900Y-34040000D02*
X78645900Y-35455000D01*
X78364900Y-34040000D02*
X78364900Y-35528000D01*
X80085900Y-31681000D02*
X80085900Y-31960000D01*
X79485900Y-30996000D02*
X79485900Y-31960000D01*
X78084900Y-30431000D02*
X78084900Y-31960000D01*
X78885900Y-34040000D02*
X78885900Y-35365000D01*
X78605900Y-34040000D02*
X78605900Y-35468000D01*
X79485900Y-34040000D02*
X79485900Y-35004000D01*
X79365900Y-30905000D02*
X79365900Y-31960000D01*
X78324900Y-30464000D02*
X78324900Y-31960000D01*
X79205900Y-30800000D02*
X79205900Y-31960000D01*
X77844900Y-30420000D02*
X77844900Y-35580000D01*
X80365900Y-32323000D02*
X80365900Y-33677000D01*
X78925900Y-34040000D02*
X78925900Y-35348000D01*
X78044900Y-30427000D02*
X78044900Y-35573000D01*
X79885900Y-34040000D02*
X79885900Y-34605000D01*
X79405900Y-30935000D02*
X79405900Y-31960000D01*
X80285900Y-32085000D02*
X80285900Y-33915000D01*
X78524900Y-30509000D02*
X78524900Y-31960000D01*
X75290125Y-31275000D02*
X75290125Y-31775000D01*
X79245900Y-34040000D02*
X79245900Y-35175000D01*
X79045900Y-34040000D02*
X79045900Y-35290000D01*
X80005900Y-34040000D02*
X80005900Y-34443000D01*
X78805900Y-30602000D02*
X78805900Y-31960000D01*
X79685900Y-34040000D02*
X79685900Y-34826000D01*
X79965900Y-34040000D02*
X79965900Y-34500000D01*
X80165900Y-31822000D02*
X80165900Y-34178000D01*
X78364900Y-30472000D02*
X78364900Y-31960000D01*
X79005900Y-30690000D02*
X79005900Y-31960000D01*
X80005900Y-31557000D02*
X80005900Y-31960000D01*
X79125900Y-34040000D02*
X79125900Y-35247000D01*
X80445900Y-32716000D02*
X80445900Y-33284000D01*
X80245900Y-31989000D02*
X80245900Y-34011000D01*
X79325900Y-34040000D02*
X79325900Y-35122000D01*
X79085900Y-34040000D02*
X79085900Y-35268000D01*
X79925900Y-34040000D02*
X79925900Y-34554000D01*
X78845900Y-34040000D02*
X78845900Y-35382000D01*
X80085900Y-34040000D02*
X80085900Y-34319000D01*
X78164900Y-30439000D02*
X78164900Y-31960000D01*
X75040125Y-31525000D02*
X75540125Y-31525000D01*
X79525900Y-31029000D02*
X79525900Y-31960000D01*
X78805900Y-34040000D02*
X78805900Y-35398000D01*
X79605900Y-34040000D02*
X79605900Y-34901000D01*
X79165900Y-34040000D02*
X79165900Y-35224000D01*
X80464900Y-33000000D02*
G75*
G03*
X80464900Y-33000000I-2620000J0D01*
G01*
%TO.C,R2*%
X54887624Y-43238500D02*
X54378176Y-43238500D01*
X54887624Y-42193500D02*
X54378176Y-42193500D01*
%TO.C,RV2*%
X89200000Y-48400000D02*
X93900000Y-48400000D01*
X93900000Y-48400000D02*
X93900000Y-53000000D01*
X93900000Y-53000000D02*
X89200000Y-53000000D01*
X89200000Y-53000000D02*
X89200000Y-48400000D01*
%TO.C,R1*%
X56245276Y-64477500D02*
X56754724Y-64477500D01*
X56245276Y-65522500D02*
X56754724Y-65522500D01*
%TO.C,U2*%
X47626900Y-32366000D02*
X53636900Y-32366000D01*
X53636900Y-39186000D02*
X53636900Y-37926000D01*
X53636900Y-32366000D02*
X53636900Y-33626000D01*
X49876900Y-39186000D02*
X53636900Y-39186000D01*
%TO.C,C29*%
X97290000Y-44391233D02*
X97290000Y-44683767D01*
X98310000Y-44391233D02*
X98310000Y-44683767D01*
%TO.C,C17*%
X73646267Y-56510000D02*
X73353733Y-56510000D01*
X73646267Y-55490000D02*
X73353733Y-55490000D01*
%TO.C,C13*%
X65146267Y-69510000D02*
X64853733Y-69510000D01*
X65146267Y-68490000D02*
X64853733Y-68490000D01*
%TO.C,C5*%
X49990000Y-55646267D02*
X49990000Y-55353733D01*
X51010000Y-55646267D02*
X51010000Y-55353733D01*
%TO.C,R9*%
X97277500Y-49282776D02*
X97277500Y-49792224D01*
X98322500Y-49282776D02*
X98322500Y-49792224D01*
%TO.C,C18*%
X78712478Y-64000000D02*
G75*
G03*
X78712478Y-64000000I-3612478J0D01*
G01*
%TO.C,C22*%
X81141233Y-50490000D02*
X81433767Y-50490000D01*
X81141233Y-51510000D02*
X81433767Y-51510000D01*
%TO.C,C2*%
X51990000Y-55353733D02*
X51990000Y-55646267D01*
X53010000Y-55353733D02*
X53010000Y-55646267D01*
%TO.C,R10*%
X100822500Y-44282776D02*
X100822500Y-44792224D01*
X99777500Y-44282776D02*
X99777500Y-44792224D01*
%TO.C,C19*%
X77146267Y-42490000D02*
X76853733Y-42490000D01*
X77146267Y-43510000D02*
X76853733Y-43510000D01*
%TO.C,C15*%
X73190000Y-51751233D02*
X73190000Y-52043767D01*
X74210000Y-51751233D02*
X74210000Y-52043767D01*
%TO.C,C9*%
X56990000Y-57646267D02*
X56990000Y-57353733D01*
X58010000Y-57646267D02*
X58010000Y-57353733D01*
%TO.C,R6*%
X76945276Y-48477500D02*
X77454724Y-48477500D01*
X76945276Y-49522500D02*
X77454724Y-49522500D01*
%TO.C,C6*%
X57646267Y-50010000D02*
X57353733Y-50010000D01*
X57646267Y-48990000D02*
X57353733Y-48990000D01*
%TO.C,R3*%
X71245276Y-38022500D02*
X71754724Y-38022500D01*
X71245276Y-36977500D02*
X71754724Y-36977500D01*
%TO.C,R8*%
X99777500Y-49282776D02*
X99777500Y-49792224D01*
X100822500Y-49282776D02*
X100822500Y-49792224D01*
%TO.C,R7*%
X77499724Y-55477500D02*
X76990276Y-55477500D01*
X77499724Y-56522500D02*
X76990276Y-56522500D01*
%TO.C,R11*%
X102277500Y-49792224D02*
X102277500Y-49282776D01*
X103322500Y-49792224D02*
X103322500Y-49282776D01*
%TO.C,U1*%
X57050000Y-54733144D02*
G75*
G03*
X58950217Y-54732863I950000J733144D01*
G01*
X58950217Y-53267137D02*
G75*
G03*
X57050000Y-53266856I-950217J-732863D01*
G01*
%TO.C,C7*%
X57646267Y-50990000D02*
X57353733Y-50990000D01*
X57646267Y-52010000D02*
X57353733Y-52010000D01*
%TO.C,C11*%
X52646267Y-30490000D02*
X52353733Y-30490000D01*
X52646267Y-31510000D02*
X52353733Y-31510000D01*
%TO.C,AE1*%
X51710000Y-48170000D02*
X51830000Y-48170000D01*
X49170000Y-49500000D02*
X49170000Y-48170000D01*
X51830000Y-50830000D02*
X51830000Y-48170000D01*
X51710000Y-50830000D02*
X51830000Y-50830000D01*
X49170000Y-48170000D02*
X50500000Y-48170000D01*
%TO.C,C16*%
X76853733Y-38510000D02*
X77146267Y-38510000D01*
X76853733Y-37490000D02*
X77146267Y-37490000D01*
%TO.C,U4*%
X77175000Y-41375000D02*
X75825000Y-41375000D01*
X77175000Y-39625000D02*
X75825000Y-39625000D01*
%TO.C,C23*%
X77053733Y-51510000D02*
X77346267Y-51510000D01*
X77053733Y-50490000D02*
X77346267Y-50490000D01*
%TO.C,SW4*%
X93092000Y-63248000D02*
X101492000Y-63248000D01*
X101492000Y-63248000D02*
X101492000Y-67848000D01*
X101492000Y-67848000D02*
X93092000Y-67848000D01*
X93092000Y-67848000D02*
X93092000Y-63248000D01*
%TO.C,D1*%
X103535000Y-46197500D02*
X103535000Y-43737500D01*
X102065000Y-46197500D02*
X103535000Y-46197500D01*
X102065000Y-43737500D02*
X102065000Y-46197500D01*
%TO.C,C3*%
X54944000Y-67305733D02*
X54944000Y-67598267D01*
X55964000Y-67305733D02*
X55964000Y-67598267D01*
%TO.C,C20*%
X95853733Y-52490000D02*
X96146267Y-52490000D01*
X95853733Y-53510000D02*
X96146267Y-53510000D01*
%TO.C,SW5*%
X80900000Y-63030000D02*
X89300000Y-63030000D01*
X89300000Y-63030000D02*
X89300000Y-67630000D01*
X89300000Y-67630000D02*
X80900000Y-67630000D01*
X80900000Y-67630000D02*
X80900000Y-63030000D01*
%TD*%
M02*
