%TF.GenerationSoftware,KiCad,Pcbnew,6.0.7+dfsg-1build1*%
%TF.CreationDate,2022-11-20T16:40:00+09:00*%
%TF.ProjectId,FM_Transciver,464d5f54-7261-46e7-9363-697665722e6b,rev?*%
%TF.SameCoordinates,Original*%
%TF.FileFunction,Legend,Bot*%
%TF.FilePolarity,Positive*%
%FSLAX46Y46*%
G04 Gerber Fmt 4.6, Leading zero omitted, Abs format (unit mm)*
G04 Created by KiCad (PCBNEW 6.0.7+dfsg-1build1) date 2022-11-20 16:40:00*
%MOMM*%
%LPD*%
G01*
G04 APERTURE LIST*
%ADD10C,0.150000*%
G04 APERTURE END LIST*
D10*
X97987619Y-65163571D02*
X98320952Y-65163571D01*
X98320952Y-65687380D02*
X98320952Y-64687380D01*
X97844761Y-64687380D01*
X97463809Y-65687380D02*
X97463809Y-64687380D01*
X97130476Y-65401666D01*
X96797142Y-64687380D01*
X96797142Y-65687380D01*
X95701904Y-64687380D02*
X95130476Y-64687380D01*
X95416190Y-65687380D02*
X95416190Y-64687380D01*
X94797142Y-65687380D02*
X94797142Y-65020714D01*
X94797142Y-65211190D02*
X94749523Y-65115952D01*
X94701904Y-65068333D01*
X94606666Y-65020714D01*
X94511428Y-65020714D01*
X93749523Y-65687380D02*
X93749523Y-65163571D01*
X93797142Y-65068333D01*
X93892380Y-65020714D01*
X94082857Y-65020714D01*
X94178095Y-65068333D01*
X93749523Y-65639761D02*
X93844761Y-65687380D01*
X94082857Y-65687380D01*
X94178095Y-65639761D01*
X94225714Y-65544523D01*
X94225714Y-65449285D01*
X94178095Y-65354047D01*
X94082857Y-65306428D01*
X93844761Y-65306428D01*
X93749523Y-65258809D01*
X93273333Y-65020714D02*
X93273333Y-65687380D01*
X93273333Y-65115952D02*
X93225714Y-65068333D01*
X93130476Y-65020714D01*
X92987619Y-65020714D01*
X92892380Y-65068333D01*
X92844761Y-65163571D01*
X92844761Y-65687380D01*
X92416190Y-65639761D02*
X92320952Y-65687380D01*
X92130476Y-65687380D01*
X92035238Y-65639761D01*
X91987619Y-65544523D01*
X91987619Y-65496904D01*
X92035238Y-65401666D01*
X92130476Y-65354047D01*
X92273333Y-65354047D01*
X92368571Y-65306428D01*
X92416190Y-65211190D01*
X92416190Y-65163571D01*
X92368571Y-65068333D01*
X92273333Y-65020714D01*
X92130476Y-65020714D01*
X92035238Y-65068333D01*
X91130476Y-65639761D02*
X91225714Y-65687380D01*
X91416190Y-65687380D01*
X91511428Y-65639761D01*
X91559047Y-65592142D01*
X91606666Y-65496904D01*
X91606666Y-65211190D01*
X91559047Y-65115952D01*
X91511428Y-65068333D01*
X91416190Y-65020714D01*
X91225714Y-65020714D01*
X91130476Y-65068333D01*
X90701904Y-65687380D02*
X90701904Y-65020714D01*
X90701904Y-64687380D02*
X90749523Y-64735000D01*
X90701904Y-64782619D01*
X90654285Y-64735000D01*
X90701904Y-64687380D01*
X90701904Y-64782619D01*
X90320952Y-65020714D02*
X90082857Y-65687380D01*
X89844761Y-65020714D01*
X89082857Y-65639761D02*
X89178095Y-65687380D01*
X89368571Y-65687380D01*
X89463809Y-65639761D01*
X89511428Y-65544523D01*
X89511428Y-65163571D01*
X89463809Y-65068333D01*
X89368571Y-65020714D01*
X89178095Y-65020714D01*
X89082857Y-65068333D01*
X89035238Y-65163571D01*
X89035238Y-65258809D01*
X89511428Y-65354047D01*
X88606666Y-65687380D02*
X88606666Y-65020714D01*
X88606666Y-65211190D02*
X88559047Y-65115952D01*
X88511428Y-65068333D01*
X88416190Y-65020714D01*
X88320952Y-65020714D01*
X87320952Y-65020714D02*
X87082857Y-65687380D01*
X86844761Y-65020714D01*
X85940000Y-65687380D02*
X86511428Y-65687380D01*
X86225714Y-65687380D02*
X86225714Y-64687380D01*
X86320952Y-64830238D01*
X86416190Y-64925476D01*
X86511428Y-64973095D01*
X85511428Y-65592142D02*
X85463809Y-65639761D01*
X85511428Y-65687380D01*
X85559047Y-65639761D01*
X85511428Y-65592142D01*
X85511428Y-65687380D01*
X84844761Y-64687380D02*
X84749523Y-64687380D01*
X84654285Y-64735000D01*
X84606666Y-64782619D01*
X84559047Y-64877857D01*
X84511428Y-65068333D01*
X84511428Y-65306428D01*
X84559047Y-65496904D01*
X84606666Y-65592142D01*
X84654285Y-65639761D01*
X84749523Y-65687380D01*
X84844761Y-65687380D01*
X84940000Y-65639761D01*
X84987619Y-65592142D01*
X85035238Y-65496904D01*
X85082857Y-65306428D01*
X85082857Y-65068333D01*
X85035238Y-64877857D01*
X84987619Y-64782619D01*
X84940000Y-64735000D01*
X84844761Y-64687380D01*
X97273333Y-67297380D02*
X97273333Y-66297380D01*
X97035238Y-66297380D01*
X96892380Y-66345000D01*
X96797142Y-66440238D01*
X96749523Y-66535476D01*
X96701904Y-66725952D01*
X96701904Y-66868809D01*
X96749523Y-67059285D01*
X96797142Y-67154523D01*
X96892380Y-67249761D01*
X97035238Y-67297380D01*
X97273333Y-67297380D01*
X95892380Y-67249761D02*
X95987619Y-67297380D01*
X96178095Y-67297380D01*
X96273333Y-67249761D01*
X96320952Y-67154523D01*
X96320952Y-66773571D01*
X96273333Y-66678333D01*
X96178095Y-66630714D01*
X95987619Y-66630714D01*
X95892380Y-66678333D01*
X95844761Y-66773571D01*
X95844761Y-66868809D01*
X96320952Y-66964047D01*
X95559047Y-66630714D02*
X95178095Y-66630714D01*
X95416190Y-66297380D02*
X95416190Y-67154523D01*
X95368571Y-67249761D01*
X95273333Y-67297380D01*
X95178095Y-67297380D01*
X94463809Y-67249761D02*
X94559047Y-67297380D01*
X94749523Y-67297380D01*
X94844761Y-67249761D01*
X94892380Y-67154523D01*
X94892380Y-66773571D01*
X94844761Y-66678333D01*
X94749523Y-66630714D01*
X94559047Y-66630714D01*
X94463809Y-66678333D01*
X94416190Y-66773571D01*
X94416190Y-66868809D01*
X94892380Y-66964047D01*
X93559047Y-67249761D02*
X93654285Y-67297380D01*
X93844761Y-67297380D01*
X93940000Y-67249761D01*
X93987619Y-67202142D01*
X94035238Y-67106904D01*
X94035238Y-66821190D01*
X93987619Y-66725952D01*
X93940000Y-66678333D01*
X93844761Y-66630714D01*
X93654285Y-66630714D01*
X93559047Y-66678333D01*
X93273333Y-66630714D02*
X92892380Y-66630714D01*
X93130476Y-66297380D02*
X93130476Y-67154523D01*
X93082857Y-67249761D01*
X92987619Y-67297380D01*
X92892380Y-67297380D01*
X92559047Y-67297380D02*
X92559047Y-66630714D01*
X92559047Y-66297380D02*
X92606666Y-66345000D01*
X92559047Y-66392619D01*
X92511428Y-66345000D01*
X92559047Y-66297380D01*
X92559047Y-66392619D01*
X92178095Y-66630714D02*
X91940000Y-67297380D01*
X91701904Y-66630714D01*
X90940000Y-67249761D02*
X91035238Y-67297380D01*
X91225714Y-67297380D01*
X91320952Y-67249761D01*
X91368571Y-67154523D01*
X91368571Y-66773571D01*
X91320952Y-66678333D01*
X91225714Y-66630714D01*
X91035238Y-66630714D01*
X90940000Y-66678333D01*
X90892380Y-66773571D01*
X90892380Y-66868809D01*
X91368571Y-66964047D01*
X89368571Y-66773571D02*
X89225714Y-66821190D01*
X89178095Y-66868809D01*
X89130476Y-66964047D01*
X89130476Y-67106904D01*
X89178095Y-67202142D01*
X89225714Y-67249761D01*
X89320952Y-67297380D01*
X89701904Y-67297380D01*
X89701904Y-66297380D01*
X89368571Y-66297380D01*
X89273333Y-66345000D01*
X89225714Y-66392619D01*
X89178095Y-66487857D01*
X89178095Y-66583095D01*
X89225714Y-66678333D01*
X89273333Y-66725952D01*
X89368571Y-66773571D01*
X89701904Y-66773571D01*
X88273333Y-67297380D02*
X88273333Y-66773571D01*
X88320952Y-66678333D01*
X88416190Y-66630714D01*
X88606666Y-66630714D01*
X88701904Y-66678333D01*
X88273333Y-67249761D02*
X88368571Y-67297380D01*
X88606666Y-67297380D01*
X88701904Y-67249761D01*
X88749523Y-67154523D01*
X88749523Y-67059285D01*
X88701904Y-66964047D01*
X88606666Y-66916428D01*
X88368571Y-66916428D01*
X88273333Y-66868809D01*
X87368571Y-67297380D02*
X87368571Y-66297380D01*
X87368571Y-67249761D02*
X87463809Y-67297380D01*
X87654285Y-67297380D01*
X87749523Y-67249761D01*
X87797142Y-67202142D01*
X87844761Y-67106904D01*
X87844761Y-66821190D01*
X87797142Y-66725952D01*
X87749523Y-66678333D01*
X87654285Y-66630714D01*
X87463809Y-66630714D01*
X87368571Y-66678333D01*
X86463809Y-66630714D02*
X86463809Y-67440238D01*
X86511428Y-67535476D01*
X86559047Y-67583095D01*
X86654285Y-67630714D01*
X86797142Y-67630714D01*
X86892380Y-67583095D01*
X86463809Y-67249761D02*
X86559047Y-67297380D01*
X86749523Y-67297380D01*
X86844761Y-67249761D01*
X86892380Y-67202142D01*
X86940000Y-67106904D01*
X86940000Y-66821190D01*
X86892380Y-66725952D01*
X86844761Y-66678333D01*
X86749523Y-66630714D01*
X86559047Y-66630714D01*
X86463809Y-66678333D01*
X85606666Y-67249761D02*
X85701904Y-67297380D01*
X85892380Y-67297380D01*
X85987619Y-67249761D01*
X86035238Y-67154523D01*
X86035238Y-66773571D01*
X85987619Y-66678333D01*
X85892380Y-66630714D01*
X85701904Y-66630714D01*
X85606666Y-66678333D01*
X85559047Y-66773571D01*
X85559047Y-66868809D01*
X86035238Y-66964047D01*
M02*
