%TF.GenerationSoftware,KiCad,Pcbnew,6.0.7+dfsg-1build1*%
%TF.CreationDate,2022-11-20T16:40:00+09:00*%
%TF.ProjectId,FM_Transciver,464d5f54-7261-46e7-9363-697665722e6b,rev?*%
%TF.SameCoordinates,Original*%
%TF.FileFunction,Copper,L2,Bot*%
%TF.FilePolarity,Positive*%
%FSLAX46Y46*%
G04 Gerber Fmt 4.6, Leading zero omitted, Abs format (unit mm)*
G04 Created by KiCad (PCBNEW 6.0.7+dfsg-1build1) date 2022-11-20 16:40:00*
%MOMM*%
%LPD*%
G01*
G04 APERTURE LIST*
%TA.AperFunction,ComponentPad*%
%ADD10C,1.524000*%
%TD*%
%TA.AperFunction,ComponentPad*%
%ADD11R,1.600000X1.600000*%
%TD*%
%TA.AperFunction,ComponentPad*%
%ADD12C,1.600000*%
%TD*%
%TA.AperFunction,ComponentPad*%
%ADD13O,1.600000X1.600000*%
%TD*%
%TA.AperFunction,ComponentPad*%
%ADD14R,1.700000X1.700000*%
%TD*%
%TA.AperFunction,ComponentPad*%
%ADD15O,1.700000X1.700000*%
%TD*%
%TA.AperFunction,ComponentPad*%
%ADD16C,1.000000*%
%TD*%
%TA.AperFunction,ViaPad*%
%ADD17C,1.000000*%
%TD*%
%TA.AperFunction,ViaPad*%
%ADD18C,0.800000*%
%TD*%
%TA.AperFunction,Conductor*%
%ADD19C,0.400000*%
%TD*%
%TA.AperFunction,Conductor*%
%ADD20C,0.250000*%
%TD*%
G04 APERTURE END LIST*
D10*
%TO.P,RV1,1,1*%
%TO.N,GND*%
X73600000Y-42100000D03*
%TO.P,RV1,2,2*%
%TO.N,Net-(R3-Pad2)*%
X72000000Y-40500000D03*
%TO.P,RV1,3,3*%
%TO.N,Net-(C14-Pad1)*%
X70400000Y-42100000D03*
%TD*%
D11*
%TO.P,C27,1*%
%TO.N,PDN*%
X64500000Y-38794900D03*
D12*
%TO.P,C27,2*%
%TO.N,GND*%
X64500000Y-41294900D03*
%TD*%
D11*
%TO.P,U3,1,R_IN*%
%TO.N,Net-(C15-Pad2)*%
X61700000Y-45850000D03*
D13*
%TO.P,U3,2,AF_BIAS*%
%TO.N,Net-(C6-Pad1)*%
X61700000Y-48390000D03*
%TO.P,U3,3,AF_GND*%
%TO.N,GND*%
X61700000Y-50930000D03*
%TO.P,U3,4,OSC_BIAS*%
%TO.N,Net-(C7-Pad1)*%
X61700000Y-53470000D03*
%TO.P,U3,5,XTAL*%
%TO.N,Net-(U1-Pad2)*%
X61700000Y-56010000D03*
%TO.P,U3,6,XTAL*%
%TO.N,Net-(C9-Pad1)*%
X61700000Y-58550000D03*
%TO.P,U3,7,RF_OUT*%
%TO.N,Net-(C5-Pad1)*%
X61700000Y-61090000D03*
%TO.P,U3,8,GND*%
%TO.N,GND*%
X61700000Y-63630000D03*
%TO.P,U3,9,OSC*%
%TO.N,Net-(C12-Pad2)*%
X61700000Y-66170000D03*
%TO.P,U3,10,OSC*%
%TO.N,Net-(C13-Pad1)*%
X69320000Y-66170000D03*
%TO.P,U3,11,VREF*%
%TO.N,unconnected-(U3-Pad11)*%
X69320000Y-63630000D03*
%TO.P,U3,12,MOD_IN*%
%TO.N,Net-(C21-Pad2)*%
X69320000Y-61090000D03*
%TO.P,U3,13,PILOT_OUT*%
%TO.N,Net-(R6-Pad1)*%
X69320000Y-58550000D03*
%TO.P,U3,14,MPX_OUT*%
%TO.N,Net-(R5-Pad1)*%
X69320000Y-56010000D03*
%TO.P,U3,15,VCC*%
%TO.N,1.8V*%
X69320000Y-53470000D03*
%TO.P,U3,16,MPX_BAL*%
%TO.N,Net-(RV2-Pad3)*%
X69320000Y-50930000D03*
%TO.P,U3,17,MPX_BAL*%
%TO.N,Net-(RV2-Pad1)*%
X69320000Y-48390000D03*
%TO.P,U3,18,L_IN*%
%TO.N,Net-(C15-Pad2)*%
X69320000Y-45850000D03*
%TD*%
D14*
%TO.P,BT1,1,+*%
%TO.N,PDN*%
X59525000Y-38750000D03*
D15*
%TO.P,BT1,2,-*%
%TO.N,Net-(BT1-Pad2)*%
X59525000Y-41290000D03*
%TD*%
D10*
%TO.P,SW1,1,A*%
%TO.N,unconnected-(SW1-Pad1)*%
X70500000Y-31500000D03*
%TO.P,SW1,2,B*%
%TO.N,Net-(BT1-Pad2)*%
X68000000Y-31500000D03*
%TO.P,SW1,3,C*%
%TO.N,GND*%
X65500000Y-31500000D03*
%TD*%
D11*
%TO.P,C31,1*%
%TO.N,1.8V*%
X60000000Y-34205100D03*
D12*
%TO.P,C31,2*%
%TO.N,GND*%
X60000000Y-31705100D03*
%TD*%
D11*
%TO.P,MK1,1,-*%
%TO.N,GND*%
X48794900Y-43000000D03*
D12*
%TO.P,MK1,2,+*%
%TO.N,Net-(C10-Pad2)*%
X51294900Y-43000000D03*
%TD*%
D11*
%TO.P,C30,1*%
%TO.N,Net-(C30-Pad1)*%
X81394900Y-37400000D03*
D12*
%TO.P,C30,2*%
%TO.N,Net-(C30-Pad2)*%
X83894900Y-37400000D03*
%TD*%
D11*
%TO.P,C28,1*%
%TO.N,Net-(C28-Pad1)*%
X76594900Y-33000000D03*
D12*
%TO.P,C28,2*%
%TO.N,Net-(C28-Pad2)*%
X79094900Y-33000000D03*
%TD*%
D10*
%TO.P,RV2,1,1*%
%TO.N,Net-(RV2-Pad1)*%
X93100000Y-51600000D03*
%TO.P,RV2,2,2*%
%TO.N,1.8V*%
X91500000Y-50000000D03*
%TO.P,RV2,3,3*%
%TO.N,Net-(RV2-Pad3)*%
X89900000Y-51600000D03*
%TD*%
%TO.P,C18,1*%
%TO.N,Net-(C13-Pad1)*%
X72500000Y-64000000D03*
%TO.P,C18,2*%
%TO.N,Net-(C18-Pad2)*%
X77500000Y-64000000D03*
%TD*%
D16*
%TO.P,U1,1,1*%
%TO.N,Net-(C9-Pad2)*%
X57050000Y-54000000D03*
%TO.P,U1,2,2*%
%TO.N,Net-(U1-Pad2)*%
X58950000Y-54000000D03*
%TD*%
D14*
%TO.P,AE1,1,A*%
%TO.N,Net-(AE1-Pad1)*%
X50500000Y-49500000D03*
%TD*%
D17*
%TO.N,PDN*%
X88038400Y-40710400D03*
%TO.N,GND*%
X85200000Y-43600000D03*
X52295200Y-34215000D03*
X84000000Y-47000000D03*
%TO.N,1.8V*%
X57466100Y-43355300D03*
X83249700Y-53900000D03*
X58044500Y-63714000D03*
D18*
%TO.N,Net-(C15-Pad2)*%
X72516100Y-57096500D03*
%TO.N,Net-(C24-Pad2)*%
X99568800Y-36404300D03*
X89707600Y-45625000D03*
X91671900Y-44849600D03*
%TO.N,Net-(D1-Pad2)*%
X102800000Y-42531400D03*
X102800000Y-47515400D03*
%TO.N,Net-(R10-Pad1)*%
X94522700Y-47121100D03*
X102800000Y-51554800D03*
X101377900Y-44069100D03*
%TD*%
D19*
%TO.N,PDN*%
X64500000Y-38794900D02*
X86122900Y-38794900D01*
X86122900Y-38794900D02*
X88038400Y-40710400D01*
%TO.N,GND*%
X58789700Y-31705100D02*
X60000000Y-31705100D01*
X48794900Y-43000000D02*
X48794900Y-41699900D01*
X63003800Y-52233800D02*
X61700000Y-50930000D01*
X48794900Y-41699900D02*
X54287500Y-36207300D01*
X84000000Y-47000000D02*
X84000000Y-44800000D01*
X84000000Y-44800000D02*
X85200000Y-43600000D01*
X54287500Y-36207300D02*
X58789700Y-31705100D01*
X52295200Y-34215000D02*
X54287500Y-36207300D01*
X63003800Y-62326200D02*
X63003800Y-52233800D01*
X61700000Y-63630000D02*
X63003800Y-62326200D01*
X65294900Y-31705100D02*
X65500000Y-31500000D01*
X60000000Y-31705100D02*
X65294900Y-31705100D01*
%TO.N,1.8V*%
X56038100Y-44783300D02*
X56038100Y-61707600D01*
X69320000Y-53470000D02*
X83249700Y-53470000D01*
X58133700Y-43355300D02*
X57466100Y-43355300D01*
X67639600Y-49431500D02*
X67639600Y-51789600D01*
X56038100Y-61707600D02*
X58044500Y-63714000D01*
X60000000Y-35505200D02*
X58133700Y-37371500D01*
X58133700Y-43355300D02*
X61563400Y-43355300D01*
X58133700Y-37371500D02*
X58133700Y-43355300D01*
X60000000Y-34205100D02*
X60000000Y-35505200D01*
X83249700Y-53470000D02*
X89900400Y-53470000D01*
X91500000Y-51870400D02*
X91500000Y-50000000D01*
X67639600Y-51789600D02*
X69320000Y-53470000D01*
X89900400Y-53470000D02*
X91500000Y-51870400D01*
X61563400Y-43355300D02*
X67639600Y-49431500D01*
X57466100Y-43355300D02*
X56038100Y-44783300D01*
X83249700Y-53470000D02*
X83249700Y-53900000D01*
D20*
%TO.N,Net-(C13-Pad1)*%
X72500000Y-64000000D02*
X70330000Y-66170000D01*
X70330000Y-66170000D02*
X69320000Y-66170000D01*
%TO.N,Net-(C15-Pad2)*%
X61981400Y-46975100D02*
X62825100Y-47818800D01*
X62825100Y-48741300D02*
X68779000Y-54695200D01*
X68779000Y-54695200D02*
X70114800Y-54695200D01*
X61981400Y-46131400D02*
X61700000Y-45850000D01*
X62825100Y-47818800D02*
X62825100Y-48741300D01*
X61981400Y-46975100D02*
X61981400Y-46131400D01*
X70114800Y-54695200D02*
X72516100Y-57096500D01*
%TO.N,Net-(C24-Pad2)*%
X91671900Y-44849600D02*
X90483000Y-44849600D01*
X99568800Y-36404300D02*
X99568800Y-36952700D01*
X99568800Y-36952700D02*
X91671900Y-44849600D01*
X90483000Y-44849600D02*
X89707600Y-45625000D01*
%TO.N,Net-(D1-Pad2)*%
X102800000Y-47515400D02*
X102800000Y-42531400D01*
%TO.N,Net-(R10-Pad1)*%
X98336700Y-47121100D02*
X94522700Y-47121100D01*
X98351500Y-47106300D02*
X98336700Y-47121100D01*
X101377900Y-44069100D02*
X98351500Y-47095500D01*
X98351500Y-47106300D02*
X102800000Y-51554800D01*
X98351500Y-47095500D02*
X98351500Y-47106300D01*
%TO.N,Net-(RV2-Pad1)*%
X91579700Y-48390000D02*
X93100000Y-49910300D01*
X69320000Y-48390000D02*
X91579700Y-48390000D01*
X93100000Y-49910300D02*
X93100000Y-51600000D01*
%TO.N,Net-(RV2-Pad3)*%
X69320000Y-50930000D02*
X89230000Y-50930000D01*
X89230000Y-50930000D02*
X89900000Y-51600000D01*
%TO.N,Net-(U1-Pad2)*%
X60574900Y-55624900D02*
X61314900Y-55624900D01*
X61314900Y-55624900D02*
X61700000Y-56010000D01*
X58950000Y-54000000D02*
X60574900Y-55624900D01*
%TO.N,Net-(BT1-Pad2)*%
X66414864Y-32643000D02*
X66857000Y-32643000D01*
X59525000Y-41290000D02*
X61252865Y-39562135D01*
X66857000Y-32643000D02*
X68000000Y-31500000D01*
X61252865Y-39562135D02*
X61252865Y-37804999D01*
X61252865Y-37804999D02*
X66414864Y-32643000D01*
%TD*%
%TA.AperFunction,Conductor*%
%TO.N,1.8V*%
G36*
X103433621Y-30528502D02*
G01*
X103480114Y-30582158D01*
X103491500Y-30634500D01*
X103491500Y-41663548D01*
X103471498Y-41731669D01*
X103417842Y-41778162D01*
X103347568Y-41788266D01*
X103291441Y-41765485D01*
X103256752Y-41740282D01*
X103250724Y-41737598D01*
X103250722Y-41737597D01*
X103088319Y-41665291D01*
X103088318Y-41665291D01*
X103082288Y-41662606D01*
X102971344Y-41639024D01*
X102901944Y-41624272D01*
X102901939Y-41624272D01*
X102895487Y-41622900D01*
X102704513Y-41622900D01*
X102698061Y-41624272D01*
X102698056Y-41624272D01*
X102628656Y-41639024D01*
X102517712Y-41662606D01*
X102511682Y-41665291D01*
X102511681Y-41665291D01*
X102349278Y-41737597D01*
X102349276Y-41737598D01*
X102343248Y-41740282D01*
X102337907Y-41744162D01*
X102337906Y-41744163D01*
X102308241Y-41765716D01*
X102188747Y-41852534D01*
X102184326Y-41857444D01*
X102184325Y-41857445D01*
X102095445Y-41956157D01*
X102060960Y-41994456D01*
X101965473Y-42159844D01*
X101906458Y-42341472D01*
X101905768Y-42348033D01*
X101905768Y-42348035D01*
X101896899Y-42432423D01*
X101886496Y-42531400D01*
X101887186Y-42537965D01*
X101900431Y-42663980D01*
X101906458Y-42721328D01*
X101965473Y-42902956D01*
X101968776Y-42908678D01*
X101968777Y-42908679D01*
X101975187Y-42919781D01*
X102060960Y-43068344D01*
X102134137Y-43149615D01*
X102164853Y-43213621D01*
X102166500Y-43233924D01*
X102166500Y-43271795D01*
X102146498Y-43339916D01*
X102092842Y-43386409D01*
X102022568Y-43396513D01*
X101966439Y-43373731D01*
X101839994Y-43281863D01*
X101839993Y-43281862D01*
X101834652Y-43277982D01*
X101828624Y-43275298D01*
X101828622Y-43275297D01*
X101666219Y-43202991D01*
X101666218Y-43202991D01*
X101660188Y-43200306D01*
X101566788Y-43180453D01*
X101479844Y-43161972D01*
X101479839Y-43161972D01*
X101473387Y-43160600D01*
X101282413Y-43160600D01*
X101275961Y-43161972D01*
X101275956Y-43161972D01*
X101189013Y-43180453D01*
X101095612Y-43200306D01*
X101089582Y-43202991D01*
X101089581Y-43202991D01*
X100927178Y-43275297D01*
X100927176Y-43275298D01*
X100921148Y-43277982D01*
X100915807Y-43281862D01*
X100915806Y-43281863D01*
X100865743Y-43318236D01*
X100766647Y-43390234D01*
X100638860Y-43532156D01*
X100543373Y-43697544D01*
X100484358Y-43879172D01*
X100467634Y-44038297D01*
X100466993Y-44044393D01*
X100439980Y-44110050D01*
X100430778Y-44120318D01*
X98100400Y-46450695D01*
X98038088Y-46484721D01*
X98011305Y-46487600D01*
X95230900Y-46487600D01*
X95162779Y-46467598D01*
X95143553Y-46451257D01*
X95143280Y-46451560D01*
X95138368Y-46447137D01*
X95133953Y-46442234D01*
X94979452Y-46329982D01*
X94973424Y-46327298D01*
X94973422Y-46327297D01*
X94811019Y-46254991D01*
X94811018Y-46254991D01*
X94804988Y-46252306D01*
X94697615Y-46229483D01*
X94624644Y-46213972D01*
X94624639Y-46213972D01*
X94618187Y-46212600D01*
X94427213Y-46212600D01*
X94420761Y-46213972D01*
X94420756Y-46213972D01*
X94347785Y-46229483D01*
X94240412Y-46252306D01*
X94234382Y-46254991D01*
X94234381Y-46254991D01*
X94071978Y-46327297D01*
X94071976Y-46327298D01*
X94065948Y-46329982D01*
X93911447Y-46442234D01*
X93907026Y-46447144D01*
X93907025Y-46447145D01*
X93873192Y-46484721D01*
X93783660Y-46584156D01*
X93688173Y-46749544D01*
X93629158Y-46931172D01*
X93628468Y-46937733D01*
X93628468Y-46937735D01*
X93624188Y-46978456D01*
X93609196Y-47121100D01*
X93609886Y-47127665D01*
X93621083Y-47234195D01*
X93629158Y-47311028D01*
X93688173Y-47492656D01*
X93691476Y-47498378D01*
X93691477Y-47498379D01*
X93709741Y-47530013D01*
X93783660Y-47658044D01*
X93788078Y-47662951D01*
X93788079Y-47662952D01*
X93871807Y-47755941D01*
X93911447Y-47799966D01*
X93999103Y-47863652D01*
X94020078Y-47878891D01*
X94065948Y-47912218D01*
X94071976Y-47914902D01*
X94071978Y-47914903D01*
X94224887Y-47982982D01*
X94240412Y-47989894D01*
X94333813Y-48009747D01*
X94420756Y-48028228D01*
X94420761Y-48028228D01*
X94427213Y-48029600D01*
X94618187Y-48029600D01*
X94624639Y-48028228D01*
X94624644Y-48028228D01*
X94711587Y-48009747D01*
X94804988Y-47989894D01*
X94820513Y-47982982D01*
X94973422Y-47914903D01*
X94973424Y-47914902D01*
X94979452Y-47912218D01*
X94999618Y-47897567D01*
X95124488Y-47806843D01*
X95133953Y-47799966D01*
X95138368Y-47795063D01*
X95143280Y-47790640D01*
X95144405Y-47791889D01*
X95197714Y-47759049D01*
X95230900Y-47754600D01*
X98051706Y-47754600D01*
X98119827Y-47774602D01*
X98140801Y-47791505D01*
X101852878Y-51503583D01*
X101886904Y-51565895D01*
X101889093Y-51579506D01*
X101906458Y-51744728D01*
X101965473Y-51926356D01*
X102060960Y-52091744D01*
X102065378Y-52096651D01*
X102065379Y-52096652D01*
X102159582Y-52201275D01*
X102188747Y-52233666D01*
X102275723Y-52296858D01*
X102321547Y-52330151D01*
X102343248Y-52345918D01*
X102349276Y-52348602D01*
X102349278Y-52348603D01*
X102511681Y-52420909D01*
X102517712Y-52423594D01*
X102611112Y-52443447D01*
X102698056Y-52461928D01*
X102698061Y-52461928D01*
X102704513Y-52463300D01*
X102895487Y-52463300D01*
X102901939Y-52461928D01*
X102901944Y-52461928D01*
X102988888Y-52443447D01*
X103082288Y-52423594D01*
X103088319Y-52420909D01*
X103250722Y-52348603D01*
X103250724Y-52348602D01*
X103256752Y-52345918D01*
X103291441Y-52320715D01*
X103358306Y-52296858D01*
X103427457Y-52312938D01*
X103476938Y-52363851D01*
X103491500Y-52422652D01*
X103491500Y-69365500D01*
X103471498Y-69433621D01*
X103417842Y-69480114D01*
X103365500Y-69491500D01*
X47634500Y-69491500D01*
X47566379Y-69471498D01*
X47519886Y-69417842D01*
X47508500Y-69365500D01*
X47508500Y-53985851D01*
X56036719Y-53985851D01*
X56037235Y-53991995D01*
X56051685Y-54164079D01*
X56053268Y-54182934D01*
X56069288Y-54238802D01*
X56090937Y-54314300D01*
X56107783Y-54373050D01*
X56110602Y-54378535D01*
X56180671Y-54514873D01*
X56198187Y-54548956D01*
X56321035Y-54703953D01*
X56325728Y-54707947D01*
X56325729Y-54707948D01*
X56405357Y-54775716D01*
X56471650Y-54832136D01*
X56644294Y-54928624D01*
X56832392Y-54989740D01*
X57028777Y-55013158D01*
X57034912Y-55012686D01*
X57034914Y-55012686D01*
X57219830Y-54998457D01*
X57219834Y-54998456D01*
X57225972Y-54997984D01*
X57416463Y-54944798D01*
X57421967Y-54942018D01*
X57421969Y-54942017D01*
X57587495Y-54858404D01*
X57587497Y-54858403D01*
X57592996Y-54855625D01*
X57739711Y-54740999D01*
X57743991Y-54737655D01*
X57748847Y-54733861D01*
X57878078Y-54584145D01*
X57889396Y-54564222D01*
X57940433Y-54514873D01*
X58010051Y-54500950D01*
X58076145Y-54526875D01*
X58097146Y-54549781D01*
X58098187Y-54548956D01*
X58221035Y-54703953D01*
X58225728Y-54707947D01*
X58225729Y-54707948D01*
X58305357Y-54775716D01*
X58371650Y-54832136D01*
X58544294Y-54928624D01*
X58732392Y-54989740D01*
X58928777Y-55013158D01*
X58934912Y-55012686D01*
X58934914Y-55012686D01*
X58977090Y-55009440D01*
X58999578Y-55007710D01*
X59069033Y-55022427D01*
X59098340Y-55044244D01*
X60071243Y-56017147D01*
X60078787Y-56025437D01*
X60082900Y-56031918D01*
X60088677Y-56037343D01*
X60132567Y-56078558D01*
X60135409Y-56081313D01*
X60155131Y-56101035D01*
X60158255Y-56103458D01*
X60158259Y-56103462D01*
X60158324Y-56103512D01*
X60167345Y-56111217D01*
X60199579Y-56141486D01*
X60206527Y-56145305D01*
X60206529Y-56145307D01*
X60217332Y-56151246D01*
X60233859Y-56162102D01*
X60243598Y-56169657D01*
X60243600Y-56169658D01*
X60249860Y-56174514D01*
X60290440Y-56192074D01*
X60301088Y-56197291D01*
X60339840Y-56218595D01*
X60347517Y-56220566D01*
X60349277Y-56221263D01*
X60405251Y-56264937D01*
X60424600Y-56305803D01*
X60464289Y-56453921D01*
X60464293Y-56453931D01*
X60465716Y-56459243D01*
X60468041Y-56464228D01*
X60560151Y-56661762D01*
X60560154Y-56661767D01*
X60562477Y-56666749D01*
X60693802Y-56854300D01*
X60855700Y-57016198D01*
X60860208Y-57019355D01*
X60860211Y-57019357D01*
X60938389Y-57074098D01*
X61043251Y-57147523D01*
X61048233Y-57149846D01*
X61048238Y-57149849D01*
X61082457Y-57165805D01*
X61135742Y-57212722D01*
X61155203Y-57280999D01*
X61134661Y-57348959D01*
X61082457Y-57394195D01*
X61048238Y-57410151D01*
X61048233Y-57410154D01*
X61043251Y-57412477D01*
X60972852Y-57461771D01*
X60860211Y-57540643D01*
X60860208Y-57540645D01*
X60855700Y-57543802D01*
X60693802Y-57705700D01*
X60562477Y-57893251D01*
X60560154Y-57898233D01*
X60560151Y-57898238D01*
X60510368Y-58005000D01*
X60465716Y-58100757D01*
X60406457Y-58321913D01*
X60386502Y-58550000D01*
X60406457Y-58778087D01*
X60465716Y-58999243D01*
X60468039Y-59004224D01*
X60468039Y-59004225D01*
X60560151Y-59201762D01*
X60560154Y-59201767D01*
X60562477Y-59206749D01*
X60693802Y-59394300D01*
X60855700Y-59556198D01*
X60860208Y-59559355D01*
X60860211Y-59559357D01*
X60938389Y-59614098D01*
X61043251Y-59687523D01*
X61048233Y-59689846D01*
X61048238Y-59689849D01*
X61082457Y-59705805D01*
X61135742Y-59752722D01*
X61155203Y-59820999D01*
X61134661Y-59888959D01*
X61082457Y-59934195D01*
X61048238Y-59950151D01*
X61048233Y-59950154D01*
X61043251Y-59952477D01*
X60938389Y-60025902D01*
X60860211Y-60080643D01*
X60860208Y-60080645D01*
X60855700Y-60083802D01*
X60693802Y-60245700D01*
X60562477Y-60433251D01*
X60560154Y-60438233D01*
X60560151Y-60438238D01*
X60468039Y-60635775D01*
X60465716Y-60640757D01*
X60406457Y-60861913D01*
X60386502Y-61090000D01*
X60406457Y-61318087D01*
X60465716Y-61539243D01*
X60468039Y-61544224D01*
X60468039Y-61544225D01*
X60560151Y-61741762D01*
X60560154Y-61741767D01*
X60562477Y-61746749D01*
X60693802Y-61934300D01*
X60855700Y-62096198D01*
X60860208Y-62099355D01*
X60860211Y-62099357D01*
X60938389Y-62154098D01*
X61043251Y-62227523D01*
X61048233Y-62229846D01*
X61048238Y-62229849D01*
X61082457Y-62245805D01*
X61135742Y-62292722D01*
X61155203Y-62360999D01*
X61134661Y-62428959D01*
X61082457Y-62474195D01*
X61048238Y-62490151D01*
X61048233Y-62490154D01*
X61043251Y-62492477D01*
X60966026Y-62546551D01*
X60860211Y-62620643D01*
X60860208Y-62620645D01*
X60855700Y-62623802D01*
X60693802Y-62785700D01*
X60690645Y-62790208D01*
X60690643Y-62790211D01*
X60654523Y-62841796D01*
X60562477Y-62973251D01*
X60560154Y-62978233D01*
X60560151Y-62978238D01*
X60468039Y-63175775D01*
X60465716Y-63180757D01*
X60464294Y-63186065D01*
X60464293Y-63186067D01*
X60407881Y-63396598D01*
X60406457Y-63401913D01*
X60386502Y-63630000D01*
X60406457Y-63858087D01*
X60465716Y-64079243D01*
X60468039Y-64084224D01*
X60468039Y-64084225D01*
X60560151Y-64281762D01*
X60560154Y-64281767D01*
X60562477Y-64286749D01*
X60629327Y-64382220D01*
X60670610Y-64441178D01*
X60693802Y-64474300D01*
X60855700Y-64636198D01*
X60860208Y-64639355D01*
X60860211Y-64639357D01*
X60864250Y-64642185D01*
X61043251Y-64767523D01*
X61048233Y-64769846D01*
X61048238Y-64769849D01*
X61082457Y-64785805D01*
X61135742Y-64832722D01*
X61155203Y-64900999D01*
X61134661Y-64968959D01*
X61082457Y-65014195D01*
X61048238Y-65030151D01*
X61048233Y-65030154D01*
X61043251Y-65032477D01*
X60944918Y-65101331D01*
X60860211Y-65160643D01*
X60860208Y-65160645D01*
X60855700Y-65163802D01*
X60693802Y-65325700D01*
X60562477Y-65513251D01*
X60560154Y-65518233D01*
X60560151Y-65518238D01*
X60468039Y-65715775D01*
X60465716Y-65720757D01*
X60406457Y-65941913D01*
X60386502Y-66170000D01*
X60406457Y-66398087D01*
X60407881Y-66403400D01*
X60407881Y-66403402D01*
X60460934Y-66601395D01*
X60465716Y-66619243D01*
X60468039Y-66624224D01*
X60468039Y-66624225D01*
X60560151Y-66821762D01*
X60560154Y-66821767D01*
X60562477Y-66826749D01*
X60693802Y-67014300D01*
X60855700Y-67176198D01*
X60860208Y-67179355D01*
X60860211Y-67179357D01*
X60938389Y-67234098D01*
X61043251Y-67307523D01*
X61048233Y-67309846D01*
X61048238Y-67309849D01*
X61245775Y-67401961D01*
X61250757Y-67404284D01*
X61256065Y-67405706D01*
X61256067Y-67405707D01*
X61466598Y-67462119D01*
X61466600Y-67462119D01*
X61471913Y-67463543D01*
X61700000Y-67483498D01*
X61928087Y-67463543D01*
X61933400Y-67462119D01*
X61933402Y-67462119D01*
X62143933Y-67405707D01*
X62143935Y-67405706D01*
X62149243Y-67404284D01*
X62154225Y-67401961D01*
X62351762Y-67309849D01*
X62351767Y-67309846D01*
X62356749Y-67307523D01*
X62461611Y-67234098D01*
X62539789Y-67179357D01*
X62539792Y-67179355D01*
X62544300Y-67176198D01*
X62706198Y-67014300D01*
X62837523Y-66826749D01*
X62839846Y-66821767D01*
X62839849Y-66821762D01*
X62931961Y-66624225D01*
X62931961Y-66624224D01*
X62934284Y-66619243D01*
X62939067Y-66601395D01*
X62992119Y-66403402D01*
X62992119Y-66403400D01*
X62993543Y-66398087D01*
X63013498Y-66170000D01*
X62993543Y-65941913D01*
X62934284Y-65720757D01*
X62931961Y-65715775D01*
X62839849Y-65518238D01*
X62839846Y-65518233D01*
X62837523Y-65513251D01*
X62706198Y-65325700D01*
X62544300Y-65163802D01*
X62539792Y-65160645D01*
X62539789Y-65160643D01*
X62455082Y-65101331D01*
X62356749Y-65032477D01*
X62351767Y-65030154D01*
X62351762Y-65030151D01*
X62317543Y-65014195D01*
X62264258Y-64967278D01*
X62244797Y-64899001D01*
X62265339Y-64831041D01*
X62317543Y-64785805D01*
X62351762Y-64769849D01*
X62351767Y-64769846D01*
X62356749Y-64767523D01*
X62535750Y-64642185D01*
X62539789Y-64639357D01*
X62539792Y-64639355D01*
X62544300Y-64636198D01*
X62706198Y-64474300D01*
X62729391Y-64441178D01*
X62770673Y-64382220D01*
X62837523Y-64286749D01*
X62839846Y-64281767D01*
X62839849Y-64281762D01*
X62931961Y-64084225D01*
X62931961Y-64084224D01*
X62934284Y-64079243D01*
X62993543Y-63858087D01*
X63013498Y-63630000D01*
X62993556Y-63402064D01*
X63007545Y-63332460D01*
X63029982Y-63301988D01*
X63484320Y-62847650D01*
X63490585Y-62841796D01*
X63528460Y-62808755D01*
X63534185Y-62803761D01*
X63570914Y-62751500D01*
X63574846Y-62746205D01*
X63609591Y-62701894D01*
X63614277Y-62695918D01*
X63617402Y-62688996D01*
X63618764Y-62686748D01*
X63627168Y-62672015D01*
X63628422Y-62669676D01*
X63632790Y-62663461D01*
X63635549Y-62656385D01*
X63635551Y-62656381D01*
X63656002Y-62603926D01*
X63658558Y-62597846D01*
X63681718Y-62546551D01*
X63684845Y-62539626D01*
X63686229Y-62532155D01*
X63687030Y-62529601D01*
X63691667Y-62513322D01*
X63692323Y-62510767D01*
X63695082Y-62503691D01*
X63703421Y-62440349D01*
X63704453Y-62433833D01*
X63714712Y-62378480D01*
X63716096Y-62371013D01*
X63715404Y-62359001D01*
X63712509Y-62308802D01*
X63712300Y-62301549D01*
X63712300Y-52262727D01*
X63712592Y-52254158D01*
X63716010Y-52204025D01*
X63716010Y-52204021D01*
X63716526Y-52196448D01*
X63705536Y-52133481D01*
X63704575Y-52126965D01*
X63700313Y-52091744D01*
X63696902Y-52063558D01*
X63694219Y-52056457D01*
X63693578Y-52053848D01*
X63689113Y-52037528D01*
X63688348Y-52034995D01*
X63687043Y-52027517D01*
X63661352Y-51968990D01*
X63658867Y-51962902D01*
X63638972Y-51910249D01*
X63638971Y-51910247D01*
X63636287Y-51903144D01*
X63631986Y-51896885D01*
X63630749Y-51894520D01*
X63622527Y-51879748D01*
X63621172Y-51877456D01*
X63618116Y-51870495D01*
X63613491Y-51864468D01*
X63613489Y-51864464D01*
X63579207Y-51819787D01*
X63575329Y-51814450D01*
X63543459Y-51768078D01*
X63543458Y-51768077D01*
X63539157Y-51761819D01*
X63519975Y-51744728D01*
X63492639Y-51720373D01*
X63487363Y-51715392D01*
X63029982Y-51258011D01*
X62995956Y-51195699D01*
X62993556Y-51157934D01*
X63011065Y-50957815D01*
X63013498Y-50930000D01*
X62993543Y-50701913D01*
X62979009Y-50647672D01*
X62935707Y-50486067D01*
X62935706Y-50486065D01*
X62934284Y-50480757D01*
X62931484Y-50474752D01*
X62839849Y-50278238D01*
X62839846Y-50278233D01*
X62837523Y-50273251D01*
X62706198Y-50085700D01*
X62544300Y-49923802D01*
X62539792Y-49920645D01*
X62539789Y-49920643D01*
X62371480Y-49802792D01*
X62356749Y-49792477D01*
X62351767Y-49790154D01*
X62351762Y-49790151D01*
X62317543Y-49774195D01*
X62264258Y-49727278D01*
X62244797Y-49659001D01*
X62265339Y-49591041D01*
X62317543Y-49545805D01*
X62351762Y-49529849D01*
X62351767Y-49529846D01*
X62356749Y-49527523D01*
X62361258Y-49524366D01*
X62361263Y-49524363D01*
X62481101Y-49440452D01*
X62548375Y-49417764D01*
X62617235Y-49435049D01*
X62642466Y-49454570D01*
X65450622Y-52262727D01*
X68255430Y-55067535D01*
X68289456Y-55129847D01*
X68284391Y-55200662D01*
X68269548Y-55228901D01*
X68182477Y-55353251D01*
X68180154Y-55358233D01*
X68180151Y-55358238D01*
X68088039Y-55555775D01*
X68085716Y-55560757D01*
X68026457Y-55781913D01*
X68006502Y-56010000D01*
X68026457Y-56238087D01*
X68027881Y-56243400D01*
X68027881Y-56243402D01*
X68051615Y-56331976D01*
X68085716Y-56459243D01*
X68088039Y-56464224D01*
X68088039Y-56464225D01*
X68180151Y-56661762D01*
X68180154Y-56661767D01*
X68182477Y-56666749D01*
X68313802Y-56854300D01*
X68475700Y-57016198D01*
X68480208Y-57019355D01*
X68480211Y-57019357D01*
X68558389Y-57074098D01*
X68663251Y-57147523D01*
X68668233Y-57149846D01*
X68668238Y-57149849D01*
X68702457Y-57165805D01*
X68755742Y-57212722D01*
X68775203Y-57280999D01*
X68754661Y-57348959D01*
X68702457Y-57394195D01*
X68668238Y-57410151D01*
X68668233Y-57410154D01*
X68663251Y-57412477D01*
X68592852Y-57461771D01*
X68480211Y-57540643D01*
X68480208Y-57540645D01*
X68475700Y-57543802D01*
X68313802Y-57705700D01*
X68182477Y-57893251D01*
X68180154Y-57898233D01*
X68180151Y-57898238D01*
X68130368Y-58005000D01*
X68085716Y-58100757D01*
X68026457Y-58321913D01*
X68006502Y-58550000D01*
X68026457Y-58778087D01*
X68085716Y-58999243D01*
X68088039Y-59004224D01*
X68088039Y-59004225D01*
X68180151Y-59201762D01*
X68180154Y-59201767D01*
X68182477Y-59206749D01*
X68313802Y-59394300D01*
X68475700Y-59556198D01*
X68480208Y-59559355D01*
X68480211Y-59559357D01*
X68558389Y-59614098D01*
X68663251Y-59687523D01*
X68668233Y-59689846D01*
X68668238Y-59689849D01*
X68702457Y-59705805D01*
X68755742Y-59752722D01*
X68775203Y-59820999D01*
X68754661Y-59888959D01*
X68702457Y-59934195D01*
X68668238Y-59950151D01*
X68668233Y-59950154D01*
X68663251Y-59952477D01*
X68558389Y-60025902D01*
X68480211Y-60080643D01*
X68480208Y-60080645D01*
X68475700Y-60083802D01*
X68313802Y-60245700D01*
X68182477Y-60433251D01*
X68180154Y-60438233D01*
X68180151Y-60438238D01*
X68088039Y-60635775D01*
X68085716Y-60640757D01*
X68026457Y-60861913D01*
X68006502Y-61090000D01*
X68026457Y-61318087D01*
X68085716Y-61539243D01*
X68088039Y-61544224D01*
X68088039Y-61544225D01*
X68180151Y-61741762D01*
X68180154Y-61741767D01*
X68182477Y-61746749D01*
X68313802Y-61934300D01*
X68475700Y-62096198D01*
X68480208Y-62099355D01*
X68480211Y-62099357D01*
X68558389Y-62154098D01*
X68663251Y-62227523D01*
X68668233Y-62229846D01*
X68668238Y-62229849D01*
X68702457Y-62245805D01*
X68755742Y-62292722D01*
X68775203Y-62360999D01*
X68754661Y-62428959D01*
X68702457Y-62474195D01*
X68668238Y-62490151D01*
X68668233Y-62490154D01*
X68663251Y-62492477D01*
X68586026Y-62546551D01*
X68480211Y-62620643D01*
X68480208Y-62620645D01*
X68475700Y-62623802D01*
X68313802Y-62785700D01*
X68310645Y-62790208D01*
X68310643Y-62790211D01*
X68274523Y-62841796D01*
X68182477Y-62973251D01*
X68180154Y-62978233D01*
X68180151Y-62978238D01*
X68088039Y-63175775D01*
X68085716Y-63180757D01*
X68084294Y-63186065D01*
X68084293Y-63186067D01*
X68027881Y-63396598D01*
X68026457Y-63401913D01*
X68006502Y-63630000D01*
X68026457Y-63858087D01*
X68085716Y-64079243D01*
X68088039Y-64084224D01*
X68088039Y-64084225D01*
X68180151Y-64281762D01*
X68180154Y-64281767D01*
X68182477Y-64286749D01*
X68249327Y-64382220D01*
X68290610Y-64441178D01*
X68313802Y-64474300D01*
X68475700Y-64636198D01*
X68480208Y-64639355D01*
X68480211Y-64639357D01*
X68484250Y-64642185D01*
X68663251Y-64767523D01*
X68668233Y-64769846D01*
X68668238Y-64769849D01*
X68702457Y-64785805D01*
X68755742Y-64832722D01*
X68775203Y-64900999D01*
X68754661Y-64968959D01*
X68702457Y-65014195D01*
X68668238Y-65030151D01*
X68668233Y-65030154D01*
X68663251Y-65032477D01*
X68564918Y-65101331D01*
X68480211Y-65160643D01*
X68480208Y-65160645D01*
X68475700Y-65163802D01*
X68313802Y-65325700D01*
X68182477Y-65513251D01*
X68180154Y-65518233D01*
X68180151Y-65518238D01*
X68088039Y-65715775D01*
X68085716Y-65720757D01*
X68026457Y-65941913D01*
X68006502Y-66170000D01*
X68026457Y-66398087D01*
X68027881Y-66403400D01*
X68027881Y-66403402D01*
X68080934Y-66601395D01*
X68085716Y-66619243D01*
X68088039Y-66624224D01*
X68088039Y-66624225D01*
X68180151Y-66821762D01*
X68180154Y-66821767D01*
X68182477Y-66826749D01*
X68313802Y-67014300D01*
X68475700Y-67176198D01*
X68480208Y-67179355D01*
X68480211Y-67179357D01*
X68558389Y-67234098D01*
X68663251Y-67307523D01*
X68668233Y-67309846D01*
X68668238Y-67309849D01*
X68865775Y-67401961D01*
X68870757Y-67404284D01*
X68876065Y-67405706D01*
X68876067Y-67405707D01*
X69086598Y-67462119D01*
X69086600Y-67462119D01*
X69091913Y-67463543D01*
X69320000Y-67483498D01*
X69548087Y-67463543D01*
X69553400Y-67462119D01*
X69553402Y-67462119D01*
X69763933Y-67405707D01*
X69763935Y-67405706D01*
X69769243Y-67404284D01*
X69774225Y-67401961D01*
X69971762Y-67309849D01*
X69971767Y-67309846D01*
X69976749Y-67307523D01*
X70081611Y-67234098D01*
X70159789Y-67179357D01*
X70159792Y-67179355D01*
X70164300Y-67176198D01*
X70326198Y-67014300D01*
X70457523Y-66826749D01*
X70458485Y-66827423D01*
X70505634Y-66782471D01*
X70516984Y-66777314D01*
X70529914Y-66772195D01*
X70541142Y-66768351D01*
X70575983Y-66758229D01*
X70575984Y-66758229D01*
X70583593Y-66756018D01*
X70590412Y-66751985D01*
X70590417Y-66751983D01*
X70601028Y-66745707D01*
X70618776Y-66737012D01*
X70637617Y-66729552D01*
X70673387Y-66703564D01*
X70683307Y-66697048D01*
X70714535Y-66678580D01*
X70714538Y-66678578D01*
X70721362Y-66674542D01*
X70735683Y-66660221D01*
X70750717Y-66647380D01*
X70760694Y-66640131D01*
X70767107Y-66635472D01*
X70795298Y-66601395D01*
X70803288Y-66592616D01*
X72117778Y-65278126D01*
X72180090Y-65244100D01*
X72239484Y-65245514D01*
X72244019Y-65246729D01*
X72278537Y-65255978D01*
X72500000Y-65275353D01*
X72721463Y-65255978D01*
X72882966Y-65212703D01*
X72930886Y-65199863D01*
X72930888Y-65199862D01*
X72936196Y-65198440D01*
X72941178Y-65196117D01*
X73132690Y-65106814D01*
X73132695Y-65106811D01*
X73137677Y-65104488D01*
X73243841Y-65030151D01*
X73315270Y-64980136D01*
X73315273Y-64980134D01*
X73319781Y-64976977D01*
X73476977Y-64819781D01*
X73500768Y-64785805D01*
X73601331Y-64642185D01*
X73601332Y-64642183D01*
X73604488Y-64637676D01*
X73606811Y-64632694D01*
X73606814Y-64632689D01*
X73696117Y-64441178D01*
X73696118Y-64441177D01*
X73698440Y-64436196D01*
X73755978Y-64221463D01*
X73775353Y-64000000D01*
X76224647Y-64000000D01*
X76244022Y-64221463D01*
X76301560Y-64436196D01*
X76303882Y-64441177D01*
X76303883Y-64441178D01*
X76393186Y-64632689D01*
X76393189Y-64632694D01*
X76395512Y-64637676D01*
X76398668Y-64642183D01*
X76398669Y-64642185D01*
X76499233Y-64785805D01*
X76523023Y-64819781D01*
X76680219Y-64976977D01*
X76684727Y-64980134D01*
X76684730Y-64980136D01*
X76756159Y-65030151D01*
X76862323Y-65104488D01*
X76867305Y-65106811D01*
X76867310Y-65106814D01*
X77058822Y-65196117D01*
X77063804Y-65198440D01*
X77069112Y-65199862D01*
X77069114Y-65199863D01*
X77117034Y-65212703D01*
X77278537Y-65255978D01*
X77500000Y-65275353D01*
X77721463Y-65255978D01*
X77882966Y-65212703D01*
X77930886Y-65199863D01*
X77930888Y-65199862D01*
X77936196Y-65198440D01*
X77941178Y-65196117D01*
X78132690Y-65106814D01*
X78132695Y-65106811D01*
X78137677Y-65104488D01*
X78243841Y-65030151D01*
X78315270Y-64980136D01*
X78315273Y-64980134D01*
X78319781Y-64976977D01*
X78476977Y-64819781D01*
X78500768Y-64785805D01*
X78601331Y-64642185D01*
X78601332Y-64642183D01*
X78604488Y-64637676D01*
X78606811Y-64632694D01*
X78606814Y-64632689D01*
X78696117Y-64441178D01*
X78696118Y-64441177D01*
X78698440Y-64436196D01*
X78755978Y-64221463D01*
X78775353Y-64000000D01*
X78755978Y-63778537D01*
X78698440Y-63563804D01*
X78696117Y-63558822D01*
X78606814Y-63367311D01*
X78606811Y-63367306D01*
X78604488Y-63362324D01*
X78583577Y-63332460D01*
X78480136Y-63184730D01*
X78480134Y-63184727D01*
X78476977Y-63180219D01*
X78319781Y-63023023D01*
X78315273Y-63019866D01*
X78315270Y-63019864D01*
X78239505Y-62966813D01*
X78137677Y-62895512D01*
X78132695Y-62893189D01*
X78132690Y-62893186D01*
X77941178Y-62803883D01*
X77941177Y-62803882D01*
X77936196Y-62801560D01*
X77930888Y-62800138D01*
X77930886Y-62800137D01*
X77862462Y-62781803D01*
X77721463Y-62744022D01*
X77500000Y-62724647D01*
X77278537Y-62744022D01*
X77137538Y-62781803D01*
X77069114Y-62800137D01*
X77069112Y-62800138D01*
X77063804Y-62801560D01*
X77058823Y-62803882D01*
X77058822Y-62803883D01*
X76867311Y-62893186D01*
X76867306Y-62893189D01*
X76862324Y-62895512D01*
X76857817Y-62898668D01*
X76857815Y-62898669D01*
X76684730Y-63019864D01*
X76684727Y-63019866D01*
X76680219Y-63023023D01*
X76523023Y-63180219D01*
X76519866Y-63184727D01*
X76519864Y-63184730D01*
X76416423Y-63332460D01*
X76395512Y-63362324D01*
X76393189Y-63367306D01*
X76393186Y-63367311D01*
X76303883Y-63558822D01*
X76301560Y-63563804D01*
X76244022Y-63778537D01*
X76224647Y-64000000D01*
X73775353Y-64000000D01*
X73755978Y-63778537D01*
X73698440Y-63563804D01*
X73696117Y-63558822D01*
X73606814Y-63367311D01*
X73606811Y-63367306D01*
X73604488Y-63362324D01*
X73583577Y-63332460D01*
X73480136Y-63184730D01*
X73480134Y-63184727D01*
X73476977Y-63180219D01*
X73319781Y-63023023D01*
X73315273Y-63019866D01*
X73315270Y-63019864D01*
X73239505Y-62966813D01*
X73137677Y-62895512D01*
X73132695Y-62893189D01*
X73132690Y-62893186D01*
X72941178Y-62803883D01*
X72941177Y-62803882D01*
X72936196Y-62801560D01*
X72930888Y-62800138D01*
X72930886Y-62800137D01*
X72862462Y-62781803D01*
X72721463Y-62744022D01*
X72500000Y-62724647D01*
X72278537Y-62744022D01*
X72137538Y-62781803D01*
X72069114Y-62800137D01*
X72069112Y-62800138D01*
X72063804Y-62801560D01*
X72058823Y-62803882D01*
X72058822Y-62803883D01*
X71867311Y-62893186D01*
X71867306Y-62893189D01*
X71862324Y-62895512D01*
X71857817Y-62898668D01*
X71857815Y-62898669D01*
X71684730Y-63019864D01*
X71684727Y-63019866D01*
X71680219Y-63023023D01*
X71523023Y-63180219D01*
X71519866Y-63184727D01*
X71519864Y-63184730D01*
X71416423Y-63332460D01*
X71395512Y-63362324D01*
X71393189Y-63367306D01*
X71393186Y-63367311D01*
X71303883Y-63558822D01*
X71301560Y-63563804D01*
X71244022Y-63778537D01*
X71224647Y-64000000D01*
X71244022Y-64221463D01*
X71245445Y-64226772D01*
X71245446Y-64226780D01*
X71254485Y-64260512D01*
X71252797Y-64331489D01*
X71221874Y-64382220D01*
X70391391Y-65212703D01*
X70329079Y-65246729D01*
X70258264Y-65241664D01*
X70213201Y-65212703D01*
X70164300Y-65163802D01*
X70159792Y-65160645D01*
X70159789Y-65160643D01*
X70075082Y-65101331D01*
X69976749Y-65032477D01*
X69971767Y-65030154D01*
X69971762Y-65030151D01*
X69937543Y-65014195D01*
X69884258Y-64967278D01*
X69864797Y-64899001D01*
X69885339Y-64831041D01*
X69937543Y-64785805D01*
X69971762Y-64769849D01*
X69971767Y-64769846D01*
X69976749Y-64767523D01*
X70155750Y-64642185D01*
X70159789Y-64639357D01*
X70159792Y-64639355D01*
X70164300Y-64636198D01*
X70326198Y-64474300D01*
X70349391Y-64441178D01*
X70390673Y-64382220D01*
X70457523Y-64286749D01*
X70459846Y-64281767D01*
X70459849Y-64281762D01*
X70551961Y-64084225D01*
X70551961Y-64084224D01*
X70554284Y-64079243D01*
X70613543Y-63858087D01*
X70633498Y-63630000D01*
X70613543Y-63401913D01*
X70612119Y-63396598D01*
X70555707Y-63186067D01*
X70555706Y-63186065D01*
X70554284Y-63180757D01*
X70551961Y-63175775D01*
X70459849Y-62978238D01*
X70459846Y-62978233D01*
X70457523Y-62973251D01*
X70365477Y-62841796D01*
X70329357Y-62790211D01*
X70329355Y-62790208D01*
X70326198Y-62785700D01*
X70164300Y-62623802D01*
X70159792Y-62620645D01*
X70159789Y-62620643D01*
X70053974Y-62546551D01*
X69976749Y-62492477D01*
X69971767Y-62490154D01*
X69971762Y-62490151D01*
X69937543Y-62474195D01*
X69884258Y-62427278D01*
X69864797Y-62359001D01*
X69885339Y-62291041D01*
X69937543Y-62245805D01*
X69971762Y-62229849D01*
X69971767Y-62229846D01*
X69976749Y-62227523D01*
X70081611Y-62154098D01*
X70159789Y-62099357D01*
X70159792Y-62099355D01*
X70164300Y-62096198D01*
X70326198Y-61934300D01*
X70457523Y-61746749D01*
X70459846Y-61741767D01*
X70459849Y-61741762D01*
X70551961Y-61544225D01*
X70551961Y-61544224D01*
X70554284Y-61539243D01*
X70613543Y-61318087D01*
X70633498Y-61090000D01*
X70613543Y-60861913D01*
X70554284Y-60640757D01*
X70551961Y-60635775D01*
X70459849Y-60438238D01*
X70459846Y-60438233D01*
X70457523Y-60433251D01*
X70326198Y-60245700D01*
X70164300Y-60083802D01*
X70159792Y-60080645D01*
X70159789Y-60080643D01*
X70081611Y-60025902D01*
X69976749Y-59952477D01*
X69971767Y-59950154D01*
X69971762Y-59950151D01*
X69937543Y-59934195D01*
X69884258Y-59887278D01*
X69864797Y-59819001D01*
X69885339Y-59751041D01*
X69937543Y-59705805D01*
X69971762Y-59689849D01*
X69971767Y-59689846D01*
X69976749Y-59687523D01*
X70081611Y-59614098D01*
X70159789Y-59559357D01*
X70159792Y-59559355D01*
X70164300Y-59556198D01*
X70326198Y-59394300D01*
X70457523Y-59206749D01*
X70459846Y-59201767D01*
X70459849Y-59201762D01*
X70551961Y-59004225D01*
X70551961Y-59004224D01*
X70554284Y-58999243D01*
X70613543Y-58778087D01*
X70633498Y-58550000D01*
X70613543Y-58321913D01*
X70554284Y-58100757D01*
X70509632Y-58005000D01*
X70459849Y-57898238D01*
X70459846Y-57898233D01*
X70457523Y-57893251D01*
X70326198Y-57705700D01*
X70164300Y-57543802D01*
X70159792Y-57540645D01*
X70159789Y-57540643D01*
X70047148Y-57461771D01*
X69976749Y-57412477D01*
X69971767Y-57410154D01*
X69971762Y-57410151D01*
X69937543Y-57394195D01*
X69884258Y-57347278D01*
X69864797Y-57279001D01*
X69885339Y-57211041D01*
X69937543Y-57165805D01*
X69971762Y-57149849D01*
X69971767Y-57149846D01*
X69976749Y-57147523D01*
X70081611Y-57074098D01*
X70159789Y-57019357D01*
X70159792Y-57019355D01*
X70164300Y-57016198D01*
X70326198Y-56854300D01*
X70457523Y-56666749D01*
X70459846Y-56661767D01*
X70459849Y-56661762D01*
X70551961Y-56464225D01*
X70551961Y-56464224D01*
X70554284Y-56459243D01*
X70588386Y-56331975D01*
X70625337Y-56271353D01*
X70689197Y-56240332D01*
X70759692Y-56248760D01*
X70799187Y-56275492D01*
X71568978Y-57045283D01*
X71603004Y-57107595D01*
X71605193Y-57121208D01*
X71618129Y-57244284D01*
X71622558Y-57286428D01*
X71681573Y-57468056D01*
X71777060Y-57633444D01*
X71781478Y-57638351D01*
X71781479Y-57638352D01*
X71846181Y-57710211D01*
X71904847Y-57775366D01*
X72059348Y-57887618D01*
X72065376Y-57890302D01*
X72065378Y-57890303D01*
X72227781Y-57962609D01*
X72233812Y-57965294D01*
X72327212Y-57985147D01*
X72414156Y-58003628D01*
X72414161Y-58003628D01*
X72420613Y-58005000D01*
X72611587Y-58005000D01*
X72618039Y-58003628D01*
X72618044Y-58003628D01*
X72704988Y-57985147D01*
X72798388Y-57965294D01*
X72804419Y-57962609D01*
X72966822Y-57890303D01*
X72966824Y-57890302D01*
X72972852Y-57887618D01*
X73127353Y-57775366D01*
X73186019Y-57710211D01*
X73250721Y-57638352D01*
X73250722Y-57638351D01*
X73255140Y-57633444D01*
X73350627Y-57468056D01*
X73409642Y-57286428D01*
X73414072Y-57244284D01*
X73428914Y-57103065D01*
X73429604Y-57096500D01*
X73421164Y-57016198D01*
X73410332Y-56913135D01*
X73410332Y-56913133D01*
X73409642Y-56906572D01*
X73350627Y-56724944D01*
X73255140Y-56559556D01*
X73169307Y-56464228D01*
X73131775Y-56422545D01*
X73131774Y-56422544D01*
X73127353Y-56417634D01*
X72972852Y-56305382D01*
X72966824Y-56302698D01*
X72966822Y-56302697D01*
X72804419Y-56230391D01*
X72804418Y-56230391D01*
X72798388Y-56227706D01*
X72704987Y-56207853D01*
X72618044Y-56189372D01*
X72618039Y-56189372D01*
X72611587Y-56188000D01*
X72555694Y-56188000D01*
X72487573Y-56167998D01*
X72466599Y-56151095D01*
X71544406Y-55228901D01*
X70618452Y-54302947D01*
X70610912Y-54294661D01*
X70606800Y-54288182D01*
X70557148Y-54241556D01*
X70554307Y-54238802D01*
X70534570Y-54219065D01*
X70531373Y-54216585D01*
X70522349Y-54208878D01*
X70516733Y-54203604D01*
X70480769Y-54142391D01*
X70483608Y-54071451D01*
X70488793Y-54058506D01*
X70551490Y-53924053D01*
X70555236Y-53913761D01*
X70601394Y-53741497D01*
X70601058Y-53727401D01*
X70593116Y-53724000D01*
X69192000Y-53724000D01*
X69123879Y-53703998D01*
X69077386Y-53650342D01*
X69066000Y-53598000D01*
X69066000Y-53342000D01*
X69086002Y-53273879D01*
X69139658Y-53227386D01*
X69192000Y-53216000D01*
X70587967Y-53216000D01*
X70601498Y-53212027D01*
X70602727Y-53203478D01*
X70555236Y-53026239D01*
X70551490Y-53015947D01*
X70459414Y-52818489D01*
X70453931Y-52808993D01*
X70328972Y-52630533D01*
X70321916Y-52622125D01*
X70167875Y-52468084D01*
X70159467Y-52461028D01*
X69981007Y-52336069D01*
X69971511Y-52330586D01*
X69936951Y-52314471D01*
X69883666Y-52267554D01*
X69864205Y-52199277D01*
X69884747Y-52131317D01*
X69936951Y-52086081D01*
X69971762Y-52069849D01*
X69971767Y-52069846D01*
X69976749Y-52067523D01*
X70081611Y-51994098D01*
X70159789Y-51939357D01*
X70159792Y-51939355D01*
X70164300Y-51936198D01*
X70326198Y-51774300D01*
X70330555Y-51768078D01*
X70436181Y-51617229D01*
X70491638Y-51572901D01*
X70539394Y-51563500D01*
X88505995Y-51563500D01*
X88574116Y-51583502D01*
X88620609Y-51637158D01*
X88631516Y-51678518D01*
X88644022Y-51821463D01*
X88701560Y-52036196D01*
X88703882Y-52041177D01*
X88703883Y-52041178D01*
X88793186Y-52232689D01*
X88793189Y-52232694D01*
X88795512Y-52237676D01*
X88798668Y-52242183D01*
X88798669Y-52242185D01*
X88873184Y-52348603D01*
X88923023Y-52419781D01*
X89080219Y-52576977D01*
X89084727Y-52580134D01*
X89084730Y-52580136D01*
X89144237Y-52621803D01*
X89262323Y-52704488D01*
X89267305Y-52706811D01*
X89267310Y-52706814D01*
X89458822Y-52796117D01*
X89463804Y-52798440D01*
X89469112Y-52799862D01*
X89469114Y-52799863D01*
X89502255Y-52808743D01*
X89678537Y-52855978D01*
X89900000Y-52875353D01*
X90121463Y-52855978D01*
X90297745Y-52808743D01*
X90330886Y-52799863D01*
X90330888Y-52799862D01*
X90336196Y-52798440D01*
X90341178Y-52796117D01*
X90532690Y-52706814D01*
X90532695Y-52706811D01*
X90537677Y-52704488D01*
X90655763Y-52621803D01*
X90715270Y-52580136D01*
X90715273Y-52580134D01*
X90719781Y-52576977D01*
X90876977Y-52419781D01*
X90926817Y-52348603D01*
X91001331Y-52242185D01*
X91001332Y-52242183D01*
X91004488Y-52237676D01*
X91006811Y-52232694D01*
X91006814Y-52232689D01*
X91096117Y-52041178D01*
X91096118Y-52041177D01*
X91098440Y-52036196D01*
X91155978Y-51821463D01*
X91175353Y-51600000D01*
X91157270Y-51393309D01*
X91171259Y-51323706D01*
X91220659Y-51272713D01*
X91293773Y-51256808D01*
X91494525Y-51274372D01*
X91505475Y-51274372D01*
X91706227Y-51256808D01*
X91775832Y-51270797D01*
X91826824Y-51320196D01*
X91842730Y-51393309D01*
X91824647Y-51600000D01*
X91844022Y-51821463D01*
X91901560Y-52036196D01*
X91903882Y-52041177D01*
X91903883Y-52041178D01*
X91993186Y-52232689D01*
X91993189Y-52232694D01*
X91995512Y-52237676D01*
X91998668Y-52242183D01*
X91998669Y-52242185D01*
X92073184Y-52348603D01*
X92123023Y-52419781D01*
X92280219Y-52576977D01*
X92284727Y-52580134D01*
X92284730Y-52580136D01*
X92344237Y-52621803D01*
X92462323Y-52704488D01*
X92467305Y-52706811D01*
X92467310Y-52706814D01*
X92658822Y-52796117D01*
X92663804Y-52798440D01*
X92669112Y-52799862D01*
X92669114Y-52799863D01*
X92702255Y-52808743D01*
X92878537Y-52855978D01*
X93100000Y-52875353D01*
X93321463Y-52855978D01*
X93497745Y-52808743D01*
X93530886Y-52799863D01*
X93530888Y-52799862D01*
X93536196Y-52798440D01*
X93541178Y-52796117D01*
X93732690Y-52706814D01*
X93732695Y-52706811D01*
X93737677Y-52704488D01*
X93855763Y-52621803D01*
X93915270Y-52580136D01*
X93915273Y-52580134D01*
X93919781Y-52576977D01*
X94076977Y-52419781D01*
X94126817Y-52348603D01*
X94201331Y-52242185D01*
X94201332Y-52242183D01*
X94204488Y-52237676D01*
X94206811Y-52232694D01*
X94206814Y-52232689D01*
X94296117Y-52041178D01*
X94296118Y-52041177D01*
X94298440Y-52036196D01*
X94355978Y-51821463D01*
X94375353Y-51600000D01*
X94355978Y-51378537D01*
X94298440Y-51163804D01*
X94293219Y-51152607D01*
X94206814Y-50967311D01*
X94206811Y-50967306D01*
X94204488Y-50962324D01*
X94178021Y-50924525D01*
X94080136Y-50784730D01*
X94080134Y-50784727D01*
X94076977Y-50780219D01*
X93919781Y-50623023D01*
X93915273Y-50619866D01*
X93915270Y-50619864D01*
X93787229Y-50530209D01*
X93742901Y-50474752D01*
X93733500Y-50426996D01*
X93733500Y-49989067D01*
X93734027Y-49977884D01*
X93735702Y-49970391D01*
X93734139Y-49920643D01*
X93733562Y-49902301D01*
X93733500Y-49898343D01*
X93733500Y-49870444D01*
X93732996Y-49866453D01*
X93732063Y-49854611D01*
X93730923Y-49818336D01*
X93730674Y-49810411D01*
X93728462Y-49802797D01*
X93728461Y-49802792D01*
X93725023Y-49790959D01*
X93721012Y-49771595D01*
X93719467Y-49759364D01*
X93718474Y-49751503D01*
X93715557Y-49744136D01*
X93715556Y-49744131D01*
X93702198Y-49710392D01*
X93698354Y-49699165D01*
X93688230Y-49664322D01*
X93686018Y-49656707D01*
X93675707Y-49639272D01*
X93667012Y-49621524D01*
X93659552Y-49602683D01*
X93633564Y-49566913D01*
X93627048Y-49556993D01*
X93608580Y-49525765D01*
X93608578Y-49525762D01*
X93604542Y-49518938D01*
X93590221Y-49504617D01*
X93577380Y-49489583D01*
X93570131Y-49479606D01*
X93565472Y-49473193D01*
X93531395Y-49445002D01*
X93522616Y-49437012D01*
X92083352Y-47997747D01*
X92075812Y-47989461D01*
X92071700Y-47982982D01*
X92022048Y-47936356D01*
X92019207Y-47933602D01*
X91999470Y-47913865D01*
X91996273Y-47911385D01*
X91987251Y-47903680D01*
X91960800Y-47878841D01*
X91955021Y-47873414D01*
X91948075Y-47869595D01*
X91948072Y-47869593D01*
X91937266Y-47863652D01*
X91920747Y-47852801D01*
X91920283Y-47852441D01*
X91904741Y-47840386D01*
X91897472Y-47837241D01*
X91897468Y-47837238D01*
X91864163Y-47822826D01*
X91853513Y-47817609D01*
X91814760Y-47796305D01*
X91795137Y-47791267D01*
X91776434Y-47784863D01*
X91765120Y-47779967D01*
X91765119Y-47779967D01*
X91757845Y-47776819D01*
X91750022Y-47775580D01*
X91750012Y-47775577D01*
X91714176Y-47769901D01*
X91702556Y-47767495D01*
X91667411Y-47758472D01*
X91667410Y-47758472D01*
X91659730Y-47756500D01*
X91639476Y-47756500D01*
X91619765Y-47754949D01*
X91607586Y-47753020D01*
X91599757Y-47751780D01*
X91591865Y-47752526D01*
X91555739Y-47755941D01*
X91543881Y-47756500D01*
X84946656Y-47756500D01*
X84878535Y-47736498D01*
X84832042Y-47682842D01*
X84821938Y-47612568D01*
X84837100Y-47568263D01*
X84922723Y-47417542D01*
X84922725Y-47417537D01*
X84925769Y-47412179D01*
X84988197Y-47224513D01*
X85012985Y-47028295D01*
X85013380Y-47000000D01*
X84994080Y-46803167D01*
X84983377Y-46767715D01*
X84938697Y-46619731D01*
X84936916Y-46613831D01*
X84844066Y-46439204D01*
X84736857Y-46307753D01*
X84709303Y-46242321D01*
X84708500Y-46228117D01*
X84708500Y-45625000D01*
X88794096Y-45625000D01*
X88814058Y-45814928D01*
X88873073Y-45996556D01*
X88968560Y-46161944D01*
X88972978Y-46166851D01*
X88972979Y-46166852D01*
X89087403Y-46293933D01*
X89096347Y-46303866D01*
X89250848Y-46416118D01*
X89256876Y-46418802D01*
X89256878Y-46418803D01*
X89411400Y-46487600D01*
X89425312Y-46493794D01*
X89518713Y-46513647D01*
X89605656Y-46532128D01*
X89605661Y-46532128D01*
X89612113Y-46533500D01*
X89803087Y-46533500D01*
X89809539Y-46532128D01*
X89809544Y-46532128D01*
X89896487Y-46513647D01*
X89989888Y-46493794D01*
X90003800Y-46487600D01*
X90158322Y-46418803D01*
X90158324Y-46418802D01*
X90164352Y-46416118D01*
X90318853Y-46303866D01*
X90327797Y-46293933D01*
X90442221Y-46166852D01*
X90442222Y-46166851D01*
X90446640Y-46161944D01*
X90542127Y-45996556D01*
X90601142Y-45814928D01*
X90618507Y-45649706D01*
X90645520Y-45584050D01*
X90654722Y-45573782D01*
X90708499Y-45520005D01*
X90770811Y-45485979D01*
X90797594Y-45483100D01*
X90963700Y-45483100D01*
X91031821Y-45503102D01*
X91051047Y-45519443D01*
X91051320Y-45519140D01*
X91056232Y-45523563D01*
X91060647Y-45528466D01*
X91082229Y-45544146D01*
X91137152Y-45584050D01*
X91215148Y-45640718D01*
X91221176Y-45643402D01*
X91221178Y-45643403D01*
X91383581Y-45715709D01*
X91389612Y-45718394D01*
X91483013Y-45738247D01*
X91569956Y-45756728D01*
X91569961Y-45756728D01*
X91576413Y-45758100D01*
X91767387Y-45758100D01*
X91773839Y-45756728D01*
X91773844Y-45756728D01*
X91860788Y-45738247D01*
X91954188Y-45718394D01*
X91960219Y-45715709D01*
X92122622Y-45643403D01*
X92122624Y-45643402D01*
X92128652Y-45640718D01*
X92283153Y-45528466D01*
X92305991Y-45503102D01*
X92406521Y-45391452D01*
X92406522Y-45391451D01*
X92410940Y-45386544D01*
X92484157Y-45259729D01*
X92503123Y-45226879D01*
X92503124Y-45226878D01*
X92506427Y-45221156D01*
X92565442Y-45039528D01*
X92568998Y-45005700D01*
X92576406Y-44935209D01*
X92582807Y-44874306D01*
X92609820Y-44808650D01*
X92619022Y-44798382D01*
X96289463Y-41127942D01*
X99961053Y-37456352D01*
X99969339Y-37448812D01*
X99975818Y-37444700D01*
X99989925Y-37429678D01*
X100022443Y-37395049D01*
X100025198Y-37392207D01*
X100044935Y-37372470D01*
X100047415Y-37369273D01*
X100055120Y-37360251D01*
X100079959Y-37333800D01*
X100085386Y-37328021D01*
X100089205Y-37321075D01*
X100089207Y-37321072D01*
X100095148Y-37310266D01*
X100105999Y-37293747D01*
X100113558Y-37284001D01*
X100118414Y-37277741D01*
X100121559Y-37270472D01*
X100121562Y-37270468D01*
X100135974Y-37237163D01*
X100141191Y-37226513D01*
X100162495Y-37187760D01*
X100167533Y-37168137D01*
X100173937Y-37149434D01*
X100178833Y-37138120D01*
X100178833Y-37138119D01*
X100181981Y-37130845D01*
X100185718Y-37107252D01*
X100216531Y-37042654D01*
X100303417Y-36946157D01*
X100303420Y-36946153D01*
X100307840Y-36941244D01*
X100403327Y-36775856D01*
X100462342Y-36594228D01*
X100466392Y-36555700D01*
X100481614Y-36410865D01*
X100482304Y-36404300D01*
X100466227Y-36251332D01*
X100463032Y-36220935D01*
X100463032Y-36220933D01*
X100462342Y-36214372D01*
X100403327Y-36032744D01*
X100307840Y-35867356D01*
X100180053Y-35725434D01*
X100025552Y-35613182D01*
X100019524Y-35610498D01*
X100019522Y-35610497D01*
X99857119Y-35538191D01*
X99857118Y-35538191D01*
X99851088Y-35535506D01*
X99743941Y-35512731D01*
X99670744Y-35497172D01*
X99670739Y-35497172D01*
X99664287Y-35495800D01*
X99473313Y-35495800D01*
X99466861Y-35497172D01*
X99466856Y-35497172D01*
X99393659Y-35512731D01*
X99286512Y-35535506D01*
X99280485Y-35538189D01*
X99280477Y-35538192D01*
X99168810Y-35587909D01*
X99098443Y-35597343D01*
X99034146Y-35567236D01*
X99022396Y-35555382D01*
X98954023Y-35476588D01*
X98954021Y-35476586D01*
X98950523Y-35472555D01*
X98908970Y-35438484D01*
X98776373Y-35329760D01*
X98776367Y-35329756D01*
X98772245Y-35326376D01*
X98767609Y-35323737D01*
X98767606Y-35323735D01*
X98576529Y-35214968D01*
X98571886Y-35212325D01*
X98355175Y-35133663D01*
X98349926Y-35132714D01*
X98349923Y-35132713D01*
X98132392Y-35093377D01*
X98132385Y-35093376D01*
X98128308Y-35092639D01*
X98110586Y-35091803D01*
X98105644Y-35091570D01*
X98105637Y-35091570D01*
X98104156Y-35091500D01*
X97942110Y-35091500D01*
X97875191Y-35097178D01*
X97775591Y-35105629D01*
X97775587Y-35105630D01*
X97770280Y-35106080D01*
X97765125Y-35107418D01*
X97765119Y-35107419D01*
X97552297Y-35162657D01*
X97552293Y-35162658D01*
X97547128Y-35163999D01*
X97542262Y-35166191D01*
X97542259Y-35166192D01*
X97433980Y-35214968D01*
X97336925Y-35258688D01*
X97145681Y-35387441D01*
X96978865Y-35546576D01*
X96841246Y-35731542D01*
X96736760Y-35937051D01*
X96735178Y-35942145D01*
X96735177Y-35942148D01*
X96690354Y-36086502D01*
X96668393Y-36157227D01*
X96667692Y-36162516D01*
X96642407Y-36353295D01*
X96638102Y-36385774D01*
X96646751Y-36616158D01*
X96694093Y-36841791D01*
X96696051Y-36846750D01*
X96696052Y-36846752D01*
X96735159Y-36945775D01*
X96778776Y-37056221D01*
X96781543Y-37060780D01*
X96781544Y-37060783D01*
X96846689Y-37168138D01*
X96898377Y-37253317D01*
X96901874Y-37257347D01*
X97025662Y-37400000D01*
X97049477Y-37427445D01*
X97070521Y-37444700D01*
X97223627Y-37570240D01*
X97223633Y-37570244D01*
X97227755Y-37573624D01*
X97232391Y-37576263D01*
X97232394Y-37576265D01*
X97323433Y-37628087D01*
X97428114Y-37687675D01*
X97616064Y-37755897D01*
X97673270Y-37797940D01*
X97698666Y-37864239D01*
X97684186Y-37933744D01*
X97662166Y-37963430D01*
X94690682Y-40934913D01*
X91721400Y-43904195D01*
X91659088Y-43938221D01*
X91632305Y-43941100D01*
X91576413Y-43941100D01*
X91569961Y-43942472D01*
X91569956Y-43942472D01*
X91483013Y-43960953D01*
X91389612Y-43980806D01*
X91383582Y-43983491D01*
X91383581Y-43983491D01*
X91221178Y-44055797D01*
X91221176Y-44055798D01*
X91215148Y-44058482D01*
X91209807Y-44062362D01*
X91209806Y-44062363D01*
X91178613Y-44085026D01*
X91060647Y-44170734D01*
X91056232Y-44175637D01*
X91051320Y-44180060D01*
X91050195Y-44178811D01*
X90996886Y-44211651D01*
X90963700Y-44216100D01*
X90561767Y-44216100D01*
X90550584Y-44215573D01*
X90543091Y-44213898D01*
X90535165Y-44214147D01*
X90535164Y-44214147D01*
X90475014Y-44216038D01*
X90471055Y-44216100D01*
X90443144Y-44216100D01*
X90439210Y-44216597D01*
X90439209Y-44216597D01*
X90439144Y-44216605D01*
X90427307Y-44217538D01*
X90395490Y-44218538D01*
X90391029Y-44218678D01*
X90383110Y-44218927D01*
X90365454Y-44224056D01*
X90363658Y-44224578D01*
X90344306Y-44228586D01*
X90337235Y-44229480D01*
X90324203Y-44231126D01*
X90316834Y-44234043D01*
X90316832Y-44234044D01*
X90283097Y-44247400D01*
X90271869Y-44251245D01*
X90229407Y-44263582D01*
X90222585Y-44267616D01*
X90222579Y-44267619D01*
X90211968Y-44273894D01*
X90194218Y-44282590D01*
X90182756Y-44287128D01*
X90182751Y-44287131D01*
X90175383Y-44290048D01*
X90159283Y-44301745D01*
X90139625Y-44316027D01*
X90129707Y-44322543D01*
X90111019Y-44333595D01*
X90091637Y-44345058D01*
X90077313Y-44359382D01*
X90062281Y-44372221D01*
X90045893Y-44384128D01*
X90017712Y-44418193D01*
X90009722Y-44426973D01*
X89757100Y-44679595D01*
X89694788Y-44713621D01*
X89668005Y-44716500D01*
X89612113Y-44716500D01*
X89605661Y-44717872D01*
X89605656Y-44717872D01*
X89518712Y-44736353D01*
X89425312Y-44756206D01*
X89419282Y-44758891D01*
X89419281Y-44758891D01*
X89256878Y-44831197D01*
X89256876Y-44831198D01*
X89250848Y-44833882D01*
X89245507Y-44837762D01*
X89245506Y-44837763D01*
X89229214Y-44849600D01*
X89096347Y-44946134D01*
X89091926Y-44951044D01*
X89091925Y-44951045D01*
X88978030Y-45077539D01*
X88968560Y-45088056D01*
X88965259Y-45093774D01*
X88891715Y-45221156D01*
X88873073Y-45253444D01*
X88814058Y-45435072D01*
X88813368Y-45441633D01*
X88813368Y-45441635D01*
X88806908Y-45503102D01*
X88794096Y-45625000D01*
X84708500Y-45625000D01*
X84708500Y-45145660D01*
X84728502Y-45077539D01*
X84745405Y-45056565D01*
X85156691Y-44645279D01*
X85219003Y-44611253D01*
X85236115Y-44608746D01*
X85290929Y-44604528D01*
X85369830Y-44598457D01*
X85369834Y-44598456D01*
X85375972Y-44597984D01*
X85566463Y-44544798D01*
X85571967Y-44542018D01*
X85571969Y-44542017D01*
X85737495Y-44458404D01*
X85737497Y-44458403D01*
X85742996Y-44455625D01*
X85877340Y-44350664D01*
X85893991Y-44337655D01*
X85898847Y-44333861D01*
X85999254Y-44217538D01*
X86024049Y-44188813D01*
X86024050Y-44188811D01*
X86028078Y-44184145D01*
X86125769Y-44012179D01*
X86188197Y-43824513D01*
X86212985Y-43628295D01*
X86213380Y-43600000D01*
X86194080Y-43403167D01*
X86189021Y-43386409D01*
X86141220Y-43228087D01*
X86136916Y-43213831D01*
X86044066Y-43039204D01*
X85942988Y-42915270D01*
X85922960Y-42890713D01*
X85922957Y-42890710D01*
X85919065Y-42885938D01*
X85912724Y-42880692D01*
X85771425Y-42763799D01*
X85771421Y-42763797D01*
X85766675Y-42759870D01*
X85592701Y-42665802D01*
X85403768Y-42607318D01*
X85397643Y-42606674D01*
X85397642Y-42606674D01*
X85213204Y-42587289D01*
X85213202Y-42587289D01*
X85207075Y-42586645D01*
X85124576Y-42594153D01*
X85016251Y-42604011D01*
X85016248Y-42604012D01*
X85010112Y-42604570D01*
X85004206Y-42606308D01*
X85004202Y-42606309D01*
X84899076Y-42637249D01*
X84820381Y-42660410D01*
X84814923Y-42663263D01*
X84814919Y-42663265D01*
X84724147Y-42710720D01*
X84645110Y-42752040D01*
X84490975Y-42875968D01*
X84363846Y-43027474D01*
X84360879Y-43032872D01*
X84360875Y-43032877D01*
X84334895Y-43080136D01*
X84268567Y-43200787D01*
X84266706Y-43206654D01*
X84266705Y-43206656D01*
X84237138Y-43299863D01*
X84208765Y-43389306D01*
X84191751Y-43540994D01*
X84188421Y-43570679D01*
X84160950Y-43636146D01*
X84152301Y-43645729D01*
X83519480Y-44278550D01*
X83513215Y-44284404D01*
X83469615Y-44322439D01*
X83432872Y-44374719D01*
X83428939Y-44380014D01*
X83389524Y-44430282D01*
X83386401Y-44437198D01*
X83385017Y-44439484D01*
X83376643Y-44454165D01*
X83375378Y-44456525D01*
X83371010Y-44462739D01*
X83368250Y-44469818D01*
X83368249Y-44469820D01*
X83347798Y-44522275D01*
X83345247Y-44528344D01*
X83318955Y-44586573D01*
X83317571Y-44594040D01*
X83316770Y-44596595D01*
X83312141Y-44612848D01*
X83311478Y-44615428D01*
X83308718Y-44622509D01*
X83300971Y-44681358D01*
X83300379Y-44685852D01*
X83299348Y-44692359D01*
X83287704Y-44755186D01*
X83288141Y-44762766D01*
X83288141Y-44762767D01*
X83291291Y-44817392D01*
X83291500Y-44824646D01*
X83291500Y-46229483D01*
X83271498Y-46297604D01*
X83262021Y-46310473D01*
X83163846Y-46427474D01*
X83160879Y-46432872D01*
X83160875Y-46432877D01*
X83126632Y-46495166D01*
X83068567Y-46600787D01*
X83066706Y-46606654D01*
X83066705Y-46606656D01*
X83017961Y-46760316D01*
X83008765Y-46789306D01*
X82986719Y-46985851D01*
X82987235Y-46991995D01*
X83000983Y-47155716D01*
X83003268Y-47182934D01*
X83004967Y-47188858D01*
X83052179Y-47353506D01*
X83057783Y-47373050D01*
X83060602Y-47378535D01*
X83138452Y-47530013D01*
X83148187Y-47548956D01*
X83152013Y-47553783D01*
X83155353Y-47558966D01*
X83153890Y-47559909D01*
X83177423Y-47618038D01*
X83164257Y-47687803D01*
X83115462Y-47739375D01*
X83052041Y-47756500D01*
X70539394Y-47756500D01*
X70471273Y-47736498D01*
X70436181Y-47702771D01*
X70329357Y-47550211D01*
X70329355Y-47550208D01*
X70326198Y-47545700D01*
X70164300Y-47383802D01*
X70159792Y-47380645D01*
X70159789Y-47380643D01*
X70060368Y-47311028D01*
X69976749Y-47252477D01*
X69971767Y-47250154D01*
X69971762Y-47250151D01*
X69937543Y-47234195D01*
X69884258Y-47187278D01*
X69864797Y-47119001D01*
X69885339Y-47051041D01*
X69937543Y-47005805D01*
X69971762Y-46989849D01*
X69971767Y-46989846D01*
X69976749Y-46987523D01*
X70106450Y-46896705D01*
X70159789Y-46859357D01*
X70159792Y-46859355D01*
X70164300Y-46856198D01*
X70326198Y-46694300D01*
X70457523Y-46506749D01*
X70459846Y-46501767D01*
X70459849Y-46501762D01*
X70551961Y-46304225D01*
X70551961Y-46304224D01*
X70554284Y-46299243D01*
X70566142Y-46254991D01*
X70612119Y-46083402D01*
X70612119Y-46083400D01*
X70613543Y-46078087D01*
X70633498Y-45850000D01*
X70613543Y-45621913D01*
X70586005Y-45519140D01*
X70555707Y-45406067D01*
X70555706Y-45406065D01*
X70554284Y-45400757D01*
X70549945Y-45391452D01*
X70459849Y-45198238D01*
X70459846Y-45198233D01*
X70457523Y-45193251D01*
X70345289Y-45032965D01*
X70329357Y-45010211D01*
X70329355Y-45010208D01*
X70326198Y-45005700D01*
X70164300Y-44843802D01*
X70159792Y-44840645D01*
X70159789Y-44840643D01*
X70039200Y-44756206D01*
X69976749Y-44712477D01*
X69971767Y-44710154D01*
X69971762Y-44710151D01*
X69774225Y-44618039D01*
X69774224Y-44618039D01*
X69769243Y-44615716D01*
X69763935Y-44614294D01*
X69763933Y-44614293D01*
X69553402Y-44557881D01*
X69553400Y-44557881D01*
X69548087Y-44556457D01*
X69320000Y-44536502D01*
X69091913Y-44556457D01*
X69086600Y-44557881D01*
X69086598Y-44557881D01*
X68876067Y-44614293D01*
X68876065Y-44614294D01*
X68870757Y-44615716D01*
X68865776Y-44618039D01*
X68865775Y-44618039D01*
X68668238Y-44710151D01*
X68668233Y-44710154D01*
X68663251Y-44712477D01*
X68600800Y-44756206D01*
X68480211Y-44840643D01*
X68480208Y-44840645D01*
X68475700Y-44843802D01*
X68313802Y-45005700D01*
X68310645Y-45010208D01*
X68310643Y-45010211D01*
X68294711Y-45032965D01*
X68182477Y-45193251D01*
X68180154Y-45198233D01*
X68180151Y-45198238D01*
X68090055Y-45391452D01*
X68085716Y-45400757D01*
X68084294Y-45406065D01*
X68084293Y-45406067D01*
X68053995Y-45519140D01*
X68026457Y-45621913D01*
X68006502Y-45850000D01*
X68026457Y-46078087D01*
X68027881Y-46083400D01*
X68027881Y-46083402D01*
X68073859Y-46254991D01*
X68085716Y-46299243D01*
X68088039Y-46304224D01*
X68088039Y-46304225D01*
X68180151Y-46501762D01*
X68180154Y-46501767D01*
X68182477Y-46506749D01*
X68313802Y-46694300D01*
X68475700Y-46856198D01*
X68480208Y-46859355D01*
X68480211Y-46859357D01*
X68533550Y-46896705D01*
X68663251Y-46987523D01*
X68668233Y-46989846D01*
X68668238Y-46989849D01*
X68702457Y-47005805D01*
X68755742Y-47052722D01*
X68775203Y-47120999D01*
X68754661Y-47188959D01*
X68702457Y-47234195D01*
X68668238Y-47250151D01*
X68668233Y-47250154D01*
X68663251Y-47252477D01*
X68579632Y-47311028D01*
X68480211Y-47380643D01*
X68480208Y-47380645D01*
X68475700Y-47383802D01*
X68313802Y-47545700D01*
X68310645Y-47550208D01*
X68310643Y-47550211D01*
X68266980Y-47612568D01*
X68182477Y-47733251D01*
X68180154Y-47738233D01*
X68180151Y-47738238D01*
X68099409Y-47911392D01*
X68085716Y-47940757D01*
X68084294Y-47946065D01*
X68084293Y-47946067D01*
X68031927Y-48141500D01*
X68026457Y-48161913D01*
X68006502Y-48390000D01*
X68026457Y-48618087D01*
X68085716Y-48839243D01*
X68088039Y-48844224D01*
X68088039Y-48844225D01*
X68180151Y-49041762D01*
X68180154Y-49041767D01*
X68182477Y-49046749D01*
X68313802Y-49234300D01*
X68475700Y-49396198D01*
X68480208Y-49399355D01*
X68480211Y-49399357D01*
X68506499Y-49417764D01*
X68663251Y-49527523D01*
X68668233Y-49529846D01*
X68668238Y-49529849D01*
X68702457Y-49545805D01*
X68755742Y-49592722D01*
X68775203Y-49660999D01*
X68754661Y-49728959D01*
X68702457Y-49774195D01*
X68668238Y-49790151D01*
X68668233Y-49790154D01*
X68663251Y-49792477D01*
X68648520Y-49802792D01*
X68480211Y-49920643D01*
X68480208Y-49920645D01*
X68475700Y-49923802D01*
X68313802Y-50085700D01*
X68182477Y-50273251D01*
X68180154Y-50278233D01*
X68180151Y-50278238D01*
X68088516Y-50474752D01*
X68085716Y-50480757D01*
X68084294Y-50486065D01*
X68084293Y-50486067D01*
X68040991Y-50647672D01*
X68026457Y-50701913D01*
X68006502Y-50930000D01*
X68026457Y-51158087D01*
X68085716Y-51379243D01*
X68088039Y-51384224D01*
X68088039Y-51384225D01*
X68180151Y-51581762D01*
X68180154Y-51581767D01*
X68182477Y-51586749D01*
X68217774Y-51637158D01*
X68305063Y-51761819D01*
X68313802Y-51774300D01*
X68475700Y-51936198D01*
X68480208Y-51939355D01*
X68480211Y-51939357D01*
X68558389Y-51994098D01*
X68663251Y-52067523D01*
X68668233Y-52069846D01*
X68668238Y-52069849D01*
X68703049Y-52086081D01*
X68756334Y-52132998D01*
X68775795Y-52201275D01*
X68755253Y-52269235D01*
X68703049Y-52314471D01*
X68668489Y-52330586D01*
X68658993Y-52336069D01*
X68480533Y-52461028D01*
X68472125Y-52468084D01*
X68318084Y-52622125D01*
X68311028Y-52630533D01*
X68186069Y-52808993D01*
X68180586Y-52818489D01*
X68135028Y-52916189D01*
X68088110Y-52969474D01*
X68019833Y-52988935D01*
X67951873Y-52968393D01*
X67931738Y-52952034D01*
X66237716Y-51258011D01*
X63495505Y-48515800D01*
X63461479Y-48453488D01*
X63458600Y-48426705D01*
X63458600Y-47897567D01*
X63459127Y-47886384D01*
X63460802Y-47878891D01*
X63459745Y-47845242D01*
X63458662Y-47810801D01*
X63458600Y-47806843D01*
X63458600Y-47778944D01*
X63458096Y-47774953D01*
X63457163Y-47763111D01*
X63457036Y-47759049D01*
X63455774Y-47718911D01*
X63453562Y-47711297D01*
X63453561Y-47711292D01*
X63450123Y-47699459D01*
X63446112Y-47680095D01*
X63444567Y-47667864D01*
X63443574Y-47660003D01*
X63440657Y-47652636D01*
X63440656Y-47652631D01*
X63427298Y-47618892D01*
X63423454Y-47607665D01*
X63413330Y-47572822D01*
X63411118Y-47565207D01*
X63400807Y-47547772D01*
X63392112Y-47530024D01*
X63384652Y-47511183D01*
X63375350Y-47498379D01*
X63358664Y-47475413D01*
X63352148Y-47465493D01*
X63333680Y-47434265D01*
X63333678Y-47434262D01*
X63329642Y-47427438D01*
X63315321Y-47413117D01*
X63302480Y-47398083D01*
X63295231Y-47388106D01*
X63290572Y-47381693D01*
X63284467Y-47376642D01*
X63284462Y-47376637D01*
X63256502Y-47353506D01*
X63247724Y-47345519D01*
X63120598Y-47218393D01*
X62962779Y-47060575D01*
X62928754Y-46998262D01*
X62933818Y-46927447D01*
X62941355Y-46910969D01*
X62945233Y-46903886D01*
X62950615Y-46896705D01*
X62963910Y-46861242D01*
X62998971Y-46767715D01*
X63001745Y-46760316D01*
X63008500Y-46698134D01*
X63008500Y-45001866D01*
X63001745Y-44939684D01*
X62950615Y-44803295D01*
X62863261Y-44686739D01*
X62746705Y-44599385D01*
X62610316Y-44548255D01*
X62548134Y-44541500D01*
X60851866Y-44541500D01*
X60789684Y-44548255D01*
X60653295Y-44599385D01*
X60536739Y-44686739D01*
X60449385Y-44803295D01*
X60398255Y-44939684D01*
X60391500Y-45001866D01*
X60391500Y-46698134D01*
X60398255Y-46760316D01*
X60449385Y-46896705D01*
X60536739Y-47013261D01*
X60653295Y-47100615D01*
X60789684Y-47151745D01*
X60800474Y-47152917D01*
X60802606Y-47153803D01*
X60805222Y-47154425D01*
X60805121Y-47154848D01*
X60866035Y-47180155D01*
X60906463Y-47238517D01*
X60908922Y-47309471D01*
X60872629Y-47370490D01*
X60863969Y-47377489D01*
X60860207Y-47380646D01*
X60855700Y-47383802D01*
X60693802Y-47545700D01*
X60690645Y-47550208D01*
X60690643Y-47550211D01*
X60646980Y-47612568D01*
X60562477Y-47733251D01*
X60560154Y-47738233D01*
X60560151Y-47738238D01*
X60479409Y-47911392D01*
X60465716Y-47940757D01*
X60464294Y-47946065D01*
X60464293Y-47946067D01*
X60411927Y-48141500D01*
X60406457Y-48161913D01*
X60386502Y-48390000D01*
X60406457Y-48618087D01*
X60465716Y-48839243D01*
X60468039Y-48844224D01*
X60468039Y-48844225D01*
X60560151Y-49041762D01*
X60560154Y-49041767D01*
X60562477Y-49046749D01*
X60693802Y-49234300D01*
X60855700Y-49396198D01*
X60860208Y-49399355D01*
X60860211Y-49399357D01*
X60886499Y-49417764D01*
X61043251Y-49527523D01*
X61048233Y-49529846D01*
X61048238Y-49529849D01*
X61082457Y-49545805D01*
X61135742Y-49592722D01*
X61155203Y-49660999D01*
X61134661Y-49728959D01*
X61082457Y-49774195D01*
X61048238Y-49790151D01*
X61048233Y-49790154D01*
X61043251Y-49792477D01*
X61028520Y-49802792D01*
X60860211Y-49920643D01*
X60860208Y-49920645D01*
X60855700Y-49923802D01*
X60693802Y-50085700D01*
X60562477Y-50273251D01*
X60560154Y-50278233D01*
X60560151Y-50278238D01*
X60468516Y-50474752D01*
X60465716Y-50480757D01*
X60464294Y-50486065D01*
X60464293Y-50486067D01*
X60420991Y-50647672D01*
X60406457Y-50701913D01*
X60386502Y-50930000D01*
X60406457Y-51158087D01*
X60465716Y-51379243D01*
X60468039Y-51384224D01*
X60468039Y-51384225D01*
X60560151Y-51581762D01*
X60560154Y-51581767D01*
X60562477Y-51586749D01*
X60597774Y-51637158D01*
X60685063Y-51761819D01*
X60693802Y-51774300D01*
X60855700Y-51936198D01*
X60860208Y-51939355D01*
X60860211Y-51939357D01*
X60938389Y-51994098D01*
X61043251Y-52067523D01*
X61048233Y-52069846D01*
X61048238Y-52069849D01*
X61082457Y-52085805D01*
X61135742Y-52132722D01*
X61155203Y-52200999D01*
X61134661Y-52268959D01*
X61082457Y-52314195D01*
X61048238Y-52330151D01*
X61048233Y-52330154D01*
X61043251Y-52332477D01*
X60938389Y-52405902D01*
X60860211Y-52460643D01*
X60860208Y-52460645D01*
X60855700Y-52463802D01*
X60693802Y-52625700D01*
X60562477Y-52813251D01*
X60560154Y-52818233D01*
X60560151Y-52818238D01*
X60481362Y-52987204D01*
X60465716Y-53020757D01*
X60464294Y-53026065D01*
X60464293Y-53026067D01*
X60407881Y-53236598D01*
X60406457Y-53241913D01*
X60386502Y-53470000D01*
X60406457Y-53698087D01*
X60407881Y-53703400D01*
X60407881Y-53703402D01*
X60433032Y-53797264D01*
X60465716Y-53919243D01*
X60468039Y-53924224D01*
X60468039Y-53924225D01*
X60560151Y-54121762D01*
X60560154Y-54121767D01*
X60562477Y-54126749D01*
X60616292Y-54203604D01*
X60685853Y-54302947D01*
X60693802Y-54314300D01*
X60855700Y-54476198D01*
X60860208Y-54479355D01*
X60860211Y-54479357D01*
X60891049Y-54500950D01*
X61043251Y-54607523D01*
X61048233Y-54609846D01*
X61048238Y-54609849D01*
X61082457Y-54625805D01*
X61135742Y-54672722D01*
X61155203Y-54740999D01*
X61134661Y-54808959D01*
X61082457Y-54854195D01*
X61048238Y-54870151D01*
X61048233Y-54870154D01*
X61043251Y-54872477D01*
X60943938Y-54942017D01*
X60938781Y-54945628D01*
X60871507Y-54968316D01*
X60802647Y-54951031D01*
X60777414Y-54931510D01*
X60394861Y-54548956D01*
X59996673Y-54150768D01*
X59962648Y-54088456D01*
X59960763Y-54045883D01*
X59962985Y-54028295D01*
X59963380Y-54000000D01*
X59944080Y-53803167D01*
X59886916Y-53613831D01*
X59794066Y-53439204D01*
X59714788Y-53342000D01*
X59672960Y-53290713D01*
X59672957Y-53290710D01*
X59669065Y-53285938D01*
X59662724Y-53280692D01*
X59521425Y-53163799D01*
X59521421Y-53163797D01*
X59516675Y-53159870D01*
X59342701Y-53065802D01*
X59153768Y-53007318D01*
X59147643Y-53006674D01*
X59147642Y-53006674D01*
X58963204Y-52987289D01*
X58963202Y-52987289D01*
X58957075Y-52986645D01*
X58874576Y-52994153D01*
X58766251Y-53004011D01*
X58766248Y-53004012D01*
X58760112Y-53004570D01*
X58754206Y-53006308D01*
X58754202Y-53006309D01*
X58649076Y-53037249D01*
X58570381Y-53060410D01*
X58564923Y-53063263D01*
X58564919Y-53063265D01*
X58474147Y-53110720D01*
X58395110Y-53152040D01*
X58240975Y-53275968D01*
X58113846Y-53427474D01*
X58110876Y-53432877D01*
X58110873Y-53432881D01*
X58110707Y-53433183D01*
X58110579Y-53433310D01*
X58107393Y-53437963D01*
X58106509Y-53437358D01*
X58060363Y-53483243D01*
X57990947Y-53498138D01*
X57924497Y-53473139D01*
X57896082Y-53442996D01*
X57894066Y-53439204D01*
X57880644Y-53422747D01*
X57772960Y-53290713D01*
X57772957Y-53290710D01*
X57769065Y-53285938D01*
X57762724Y-53280692D01*
X57621425Y-53163799D01*
X57621421Y-53163797D01*
X57616675Y-53159870D01*
X57442701Y-53065802D01*
X57253768Y-53007318D01*
X57247643Y-53006674D01*
X57247642Y-53006674D01*
X57063204Y-52987289D01*
X57063202Y-52987289D01*
X57057075Y-52986645D01*
X56974576Y-52994153D01*
X56866251Y-53004011D01*
X56866248Y-53004012D01*
X56860112Y-53004570D01*
X56854206Y-53006308D01*
X56854202Y-53006309D01*
X56749076Y-53037249D01*
X56670381Y-53060410D01*
X56664923Y-53063263D01*
X56664919Y-53063265D01*
X56574147Y-53110720D01*
X56495110Y-53152040D01*
X56340975Y-53275968D01*
X56213846Y-53427474D01*
X56210879Y-53432872D01*
X56210875Y-53432877D01*
X56174998Y-53498138D01*
X56118567Y-53600787D01*
X56116706Y-53606654D01*
X56116705Y-53606656D01*
X56073931Y-53741497D01*
X56058765Y-53789306D01*
X56036719Y-53985851D01*
X47508500Y-53985851D01*
X47508500Y-50398134D01*
X49141500Y-50398134D01*
X49148255Y-50460316D01*
X49199385Y-50596705D01*
X49286739Y-50713261D01*
X49403295Y-50800615D01*
X49539684Y-50851745D01*
X49601866Y-50858500D01*
X51398134Y-50858500D01*
X51460316Y-50851745D01*
X51596705Y-50800615D01*
X51713261Y-50713261D01*
X51800615Y-50596705D01*
X51851745Y-50460316D01*
X51858500Y-50398134D01*
X51858500Y-48601866D01*
X51851745Y-48539684D01*
X51800615Y-48403295D01*
X51713261Y-48286739D01*
X51596705Y-48199385D01*
X51460316Y-48148255D01*
X51398134Y-48141500D01*
X49601866Y-48141500D01*
X49539684Y-48148255D01*
X49403295Y-48199385D01*
X49286739Y-48286739D01*
X49199385Y-48403295D01*
X49148255Y-48539684D01*
X49141500Y-48601866D01*
X49141500Y-50398134D01*
X47508500Y-50398134D01*
X47508500Y-44322864D01*
X47528502Y-44254743D01*
X47582158Y-44208250D01*
X47652432Y-44198146D01*
X47710065Y-44222038D01*
X47748195Y-44250615D01*
X47884584Y-44301745D01*
X47946766Y-44308500D01*
X49643034Y-44308500D01*
X49705216Y-44301745D01*
X49841605Y-44250615D01*
X49958161Y-44163261D01*
X50045515Y-44046705D01*
X50096645Y-43910316D01*
X50098591Y-43911046D01*
X50128445Y-43858795D01*
X50191403Y-43825979D01*
X50262107Y-43832409D01*
X50304900Y-43860498D01*
X50450600Y-44006198D01*
X50455108Y-44009355D01*
X50455111Y-44009357D01*
X50525269Y-44058482D01*
X50638151Y-44137523D01*
X50643133Y-44139846D01*
X50643138Y-44139849D01*
X50840675Y-44231961D01*
X50845657Y-44234284D01*
X50850965Y-44235706D01*
X50850967Y-44235707D01*
X51061498Y-44292119D01*
X51061500Y-44292119D01*
X51066813Y-44293543D01*
X51294900Y-44313498D01*
X51522987Y-44293543D01*
X51528300Y-44292119D01*
X51528302Y-44292119D01*
X51738833Y-44235707D01*
X51738835Y-44235706D01*
X51744143Y-44234284D01*
X51749125Y-44231961D01*
X51946662Y-44139849D01*
X51946667Y-44139846D01*
X51951649Y-44137523D01*
X52064531Y-44058482D01*
X52134689Y-44009357D01*
X52134692Y-44009355D01*
X52139200Y-44006198D01*
X52301098Y-43844300D01*
X52309425Y-43832409D01*
X52429266Y-43661257D01*
X52432423Y-43656749D01*
X52434746Y-43651767D01*
X52434749Y-43651762D01*
X52526861Y-43454225D01*
X52526861Y-43454224D01*
X52529184Y-43449243D01*
X52546021Y-43386409D01*
X52587019Y-43233402D01*
X52587019Y-43233400D01*
X52588443Y-43228087D01*
X52608398Y-43000000D01*
X52588443Y-42771913D01*
X52582354Y-42749187D01*
X52530607Y-42556067D01*
X52530606Y-42556065D01*
X52529184Y-42550757D01*
X52519788Y-42530607D01*
X52434749Y-42348238D01*
X52434746Y-42348233D01*
X52432423Y-42343251D01*
X52358998Y-42238389D01*
X52304257Y-42160211D01*
X52304255Y-42160208D01*
X52301098Y-42155700D01*
X52139200Y-41993802D01*
X52134692Y-41990645D01*
X52134689Y-41990643D01*
X52018119Y-41909020D01*
X51951649Y-41862477D01*
X51946667Y-41860154D01*
X51946662Y-41860151D01*
X51749125Y-41768039D01*
X51749124Y-41768039D01*
X51744143Y-41765716D01*
X51738835Y-41764294D01*
X51738833Y-41764293D01*
X51528302Y-41707881D01*
X51528300Y-41707881D01*
X51522987Y-41706457D01*
X51294900Y-41686502D01*
X51066813Y-41706457D01*
X51061500Y-41707881D01*
X51061498Y-41707881D01*
X50850967Y-41764293D01*
X50850965Y-41764294D01*
X50845657Y-41765716D01*
X50840676Y-41768039D01*
X50840675Y-41768039D01*
X50643138Y-41860151D01*
X50643133Y-41860154D01*
X50638151Y-41862477D01*
X50571681Y-41909020D01*
X50455111Y-41990643D01*
X50455108Y-41990645D01*
X50450600Y-41993802D01*
X50304900Y-42139502D01*
X50242588Y-42173528D01*
X50171773Y-42168463D01*
X50114937Y-42125916D01*
X50097768Y-42089263D01*
X50096645Y-42089684D01*
X50048667Y-41961703D01*
X50045515Y-41953295D01*
X49958161Y-41836739D01*
X49904042Y-41796179D01*
X49861527Y-41739320D01*
X49856501Y-41668501D01*
X49890512Y-41606258D01*
X54782149Y-36714622D01*
X54782616Y-36714156D01*
X54843701Y-36653708D01*
X54843705Y-36653703D01*
X54846825Y-36650616D01*
X54847639Y-36649288D01*
X54848918Y-36647852D01*
X56447001Y-35049769D01*
X58692001Y-35049769D01*
X58692371Y-35056590D01*
X58697895Y-35107452D01*
X58701521Y-35122704D01*
X58746676Y-35243154D01*
X58755214Y-35258749D01*
X58831715Y-35360824D01*
X58844276Y-35373385D01*
X58946351Y-35449886D01*
X58961946Y-35458424D01*
X59082394Y-35503578D01*
X59097649Y-35507205D01*
X59148514Y-35512731D01*
X59155328Y-35513100D01*
X59727885Y-35513100D01*
X59743124Y-35508625D01*
X59744329Y-35507235D01*
X59746000Y-35499552D01*
X59746000Y-35494984D01*
X60254000Y-35494984D01*
X60258475Y-35510223D01*
X60259865Y-35511428D01*
X60267548Y-35513099D01*
X60844669Y-35513099D01*
X60851490Y-35512729D01*
X60902352Y-35507205D01*
X60917604Y-35503579D01*
X61038054Y-35458424D01*
X61053649Y-35449886D01*
X61155724Y-35373385D01*
X61168285Y-35360824D01*
X61244786Y-35258749D01*
X61253324Y-35243154D01*
X61298478Y-35122706D01*
X61302105Y-35107451D01*
X61307631Y-35056586D01*
X61308000Y-35049772D01*
X61308000Y-34477215D01*
X61303525Y-34461976D01*
X61302135Y-34460771D01*
X61294452Y-34459100D01*
X60272115Y-34459100D01*
X60256876Y-34463575D01*
X60255671Y-34464965D01*
X60254000Y-34472648D01*
X60254000Y-35494984D01*
X59746000Y-35494984D01*
X59746000Y-34477215D01*
X59741525Y-34461976D01*
X59740135Y-34460771D01*
X59732452Y-34459100D01*
X58710116Y-34459100D01*
X58694877Y-34463575D01*
X58693672Y-34464965D01*
X58692001Y-34472648D01*
X58692001Y-35049769D01*
X56447001Y-35049769D01*
X56908720Y-34588050D01*
X58881493Y-32615278D01*
X58943803Y-32581253D01*
X59014618Y-32586318D01*
X59059681Y-32615279D01*
X59139922Y-32695520D01*
X59173948Y-32757832D01*
X59168883Y-32828647D01*
X59126336Y-32885483D01*
X59089394Y-32902783D01*
X59089793Y-32903848D01*
X58961946Y-32951776D01*
X58946351Y-32960314D01*
X58844276Y-33036815D01*
X58831715Y-33049376D01*
X58755214Y-33151451D01*
X58746676Y-33167046D01*
X58701522Y-33287494D01*
X58697895Y-33302749D01*
X58692369Y-33353614D01*
X58692000Y-33360428D01*
X58692000Y-33932985D01*
X58696475Y-33948224D01*
X58697865Y-33949429D01*
X58705548Y-33951100D01*
X61289884Y-33951100D01*
X61305123Y-33946625D01*
X61306328Y-33945235D01*
X61307999Y-33937552D01*
X61307999Y-33360431D01*
X61307629Y-33353610D01*
X61302105Y-33302748D01*
X61298479Y-33287496D01*
X61253324Y-33167046D01*
X61244786Y-33151451D01*
X61168285Y-33049376D01*
X61155724Y-33036815D01*
X61053649Y-32960314D01*
X61038054Y-32951776D01*
X60910207Y-32903848D01*
X60910904Y-32901988D01*
X60858372Y-32871969D01*
X60825558Y-32809010D01*
X60831992Y-32738306D01*
X60860079Y-32695519D01*
X61006198Y-32549400D01*
X61063665Y-32467329D01*
X61119122Y-32423001D01*
X61166878Y-32413600D01*
X64564652Y-32413600D01*
X64632773Y-32433602D01*
X64653747Y-32450505D01*
X64680219Y-32476977D01*
X64684727Y-32480134D01*
X64684730Y-32480136D01*
X64744648Y-32522091D01*
X64862323Y-32604488D01*
X64867305Y-32606811D01*
X64867310Y-32606814D01*
X65057540Y-32695519D01*
X65063804Y-32698440D01*
X65168250Y-32726426D01*
X65228871Y-32763378D01*
X65259893Y-32827239D01*
X65251464Y-32897733D01*
X65224732Y-32937228D01*
X63039255Y-35122704D01*
X60860612Y-37301347D01*
X60852326Y-37308887D01*
X60845847Y-37312999D01*
X60840422Y-37318776D01*
X60799222Y-37362650D01*
X60796467Y-37365492D01*
X60776730Y-37385229D01*
X60774250Y-37388426D01*
X60766548Y-37397444D01*
X60764149Y-37400000D01*
X60750230Y-37414822D01*
X60689017Y-37450788D01*
X60614150Y-37446552D01*
X60492718Y-37401029D01*
X60492712Y-37401027D01*
X60485316Y-37398255D01*
X60423134Y-37391500D01*
X58626866Y-37391500D01*
X58564684Y-37398255D01*
X58428295Y-37449385D01*
X58311739Y-37536739D01*
X58224385Y-37653295D01*
X58173255Y-37789684D01*
X58166500Y-37851866D01*
X58166500Y-39648134D01*
X58173255Y-39710316D01*
X58224385Y-39846705D01*
X58311739Y-39963261D01*
X58428295Y-40050615D01*
X58436704Y-40053767D01*
X58436705Y-40053768D01*
X58545451Y-40094535D01*
X58602216Y-40137176D01*
X58626916Y-40203738D01*
X58611709Y-40273087D01*
X58592316Y-40299568D01*
X58465629Y-40432138D01*
X58339743Y-40616680D01*
X58292715Y-40717993D01*
X58284742Y-40735171D01*
X58245688Y-40819305D01*
X58185989Y-41034570D01*
X58162251Y-41256695D01*
X58162548Y-41261848D01*
X58162548Y-41261851D01*
X58173847Y-41457815D01*
X58175110Y-41479715D01*
X58176247Y-41484761D01*
X58176248Y-41484767D01*
X58194561Y-41566025D01*
X58224222Y-41697639D01*
X58308266Y-41904616D01*
X58424987Y-42095088D01*
X58571250Y-42263938D01*
X58743126Y-42406632D01*
X58936000Y-42519338D01*
X58940825Y-42521180D01*
X58940826Y-42521181D01*
X58984779Y-42537965D01*
X59144692Y-42599030D01*
X59149760Y-42600061D01*
X59149763Y-42600062D01*
X59257017Y-42621883D01*
X59363597Y-42643567D01*
X59368772Y-42643757D01*
X59368774Y-42643757D01*
X59581673Y-42651564D01*
X59581677Y-42651564D01*
X59586837Y-42651753D01*
X59591957Y-42651097D01*
X59591959Y-42651097D01*
X59803288Y-42624025D01*
X59803289Y-42624025D01*
X59808416Y-42623368D01*
X59813366Y-42621883D01*
X60017429Y-42560661D01*
X60017434Y-42560659D01*
X60022384Y-42559174D01*
X60222994Y-42460896D01*
X60404860Y-42331173D01*
X60409273Y-42326776D01*
X60559435Y-42177137D01*
X60563096Y-42173489D01*
X60590977Y-42134689D01*
X60690435Y-41996277D01*
X60693453Y-41992077D01*
X60715899Y-41946662D01*
X60790136Y-41796453D01*
X60790137Y-41796451D01*
X60792430Y-41791811D01*
X60843749Y-41622900D01*
X60855865Y-41583023D01*
X60855865Y-41583021D01*
X60857370Y-41578069D01*
X60886529Y-41356590D01*
X60886611Y-41353240D01*
X60888036Y-41294900D01*
X63186502Y-41294900D01*
X63206457Y-41522987D01*
X63207881Y-41528300D01*
X63207881Y-41528302D01*
X63262374Y-41731669D01*
X63265716Y-41744143D01*
X63268039Y-41749124D01*
X63268039Y-41749125D01*
X63360151Y-41946662D01*
X63360154Y-41946667D01*
X63362477Y-41951649D01*
X63389781Y-41990643D01*
X63465647Y-42098990D01*
X63493802Y-42139200D01*
X63655700Y-42301098D01*
X63660208Y-42304255D01*
X63660211Y-42304257D01*
X63722733Y-42348035D01*
X63843251Y-42432423D01*
X63848233Y-42434746D01*
X63848238Y-42434749D01*
X64024051Y-42516731D01*
X64050757Y-42529184D01*
X64056065Y-42530606D01*
X64056067Y-42530607D01*
X64266598Y-42587019D01*
X64266600Y-42587019D01*
X64271913Y-42588443D01*
X64500000Y-42608398D01*
X64728087Y-42588443D01*
X64733400Y-42587019D01*
X64733402Y-42587019D01*
X64943933Y-42530607D01*
X64943935Y-42530606D01*
X64949243Y-42529184D01*
X64975949Y-42516731D01*
X65151762Y-42434749D01*
X65151767Y-42434746D01*
X65156749Y-42432423D01*
X65277267Y-42348035D01*
X65339789Y-42304257D01*
X65339792Y-42304255D01*
X65344300Y-42301098D01*
X65506198Y-42139200D01*
X65534354Y-42098990D01*
X65610219Y-41990643D01*
X65637523Y-41951649D01*
X65639846Y-41946667D01*
X65639849Y-41946662D01*
X65731961Y-41749125D01*
X65731961Y-41749124D01*
X65734284Y-41744143D01*
X65737627Y-41731669D01*
X65792119Y-41528302D01*
X65792119Y-41528300D01*
X65793543Y-41522987D01*
X65813498Y-41294900D01*
X65793543Y-41066813D01*
X65786280Y-41039707D01*
X65735707Y-40850967D01*
X65735706Y-40850965D01*
X65734284Y-40845657D01*
X65701704Y-40775788D01*
X65639849Y-40643138D01*
X65639846Y-40643133D01*
X65637523Y-40638151D01*
X65544622Y-40505475D01*
X65509357Y-40455111D01*
X65509355Y-40455108D01*
X65506198Y-40450600D01*
X65360498Y-40304900D01*
X65326472Y-40242588D01*
X65331537Y-40171773D01*
X65374084Y-40114937D01*
X65410737Y-40097768D01*
X65410316Y-40096645D01*
X65538297Y-40048667D01*
X65546705Y-40045515D01*
X65663261Y-39958161D01*
X65750615Y-39841605D01*
X65801745Y-39705216D01*
X65808500Y-39643034D01*
X65808500Y-39629400D01*
X65828502Y-39561279D01*
X65882158Y-39514786D01*
X65934500Y-39503400D01*
X70904789Y-39503400D01*
X70972910Y-39523402D01*
X71019403Y-39577058D01*
X71029507Y-39647332D01*
X71008002Y-39701670D01*
X70898672Y-39857810D01*
X70898669Y-39857816D01*
X70895512Y-39862324D01*
X70893189Y-39867306D01*
X70893186Y-39867311D01*
X70803883Y-40058822D01*
X70801560Y-40063804D01*
X70800138Y-40069112D01*
X70800137Y-40069114D01*
X70792760Y-40096645D01*
X70744022Y-40278537D01*
X70724647Y-40500000D01*
X70725834Y-40513567D01*
X70742685Y-40706183D01*
X70728696Y-40775788D01*
X70679296Y-40826780D01*
X70606183Y-40842685D01*
X70405475Y-40825126D01*
X70400000Y-40824647D01*
X70178537Y-40844022D01*
X70034949Y-40882497D01*
X69969114Y-40900137D01*
X69969112Y-40900138D01*
X69963804Y-40901560D01*
X69958823Y-40903882D01*
X69958822Y-40903883D01*
X69767311Y-40993186D01*
X69767306Y-40993189D01*
X69762324Y-40995512D01*
X69757817Y-40998668D01*
X69757815Y-40998669D01*
X69584730Y-41119864D01*
X69584727Y-41119866D01*
X69580219Y-41123023D01*
X69423023Y-41280219D01*
X69419866Y-41284727D01*
X69419864Y-41284730D01*
X69308160Y-41444261D01*
X69295512Y-41462324D01*
X69293189Y-41467306D01*
X69293186Y-41467311D01*
X69228394Y-41606258D01*
X69201560Y-41663804D01*
X69200138Y-41669112D01*
X69200137Y-41669114D01*
X69189615Y-41708384D01*
X69144022Y-41878537D01*
X69124647Y-42100000D01*
X69144022Y-42321463D01*
X69201560Y-42536196D01*
X69203882Y-42541177D01*
X69203883Y-42541178D01*
X69293186Y-42732689D01*
X69293189Y-42732694D01*
X69295512Y-42737676D01*
X69298668Y-42742183D01*
X69298669Y-42742185D01*
X69396575Y-42882009D01*
X69423023Y-42919781D01*
X69580219Y-43076977D01*
X69584727Y-43080134D01*
X69584730Y-43080136D01*
X69643294Y-43121143D01*
X69762323Y-43204488D01*
X69767305Y-43206811D01*
X69767310Y-43206814D01*
X69928254Y-43281863D01*
X69963804Y-43298440D01*
X69969112Y-43299862D01*
X69969114Y-43299863D01*
X70034949Y-43317503D01*
X70178537Y-43355978D01*
X70400000Y-43375353D01*
X70621463Y-43355978D01*
X70765051Y-43317503D01*
X70830886Y-43299863D01*
X70830888Y-43299862D01*
X70836196Y-43298440D01*
X70871746Y-43281863D01*
X71032690Y-43206814D01*
X71032695Y-43206811D01*
X71037677Y-43204488D01*
X71156706Y-43121143D01*
X71215270Y-43080136D01*
X71215273Y-43080134D01*
X71219781Y-43076977D01*
X71376977Y-42919781D01*
X71403426Y-42882009D01*
X71501331Y-42742185D01*
X71501332Y-42742183D01*
X71504488Y-42737676D01*
X71506811Y-42732694D01*
X71506814Y-42732689D01*
X71596117Y-42541178D01*
X71596118Y-42541177D01*
X71598440Y-42536196D01*
X71655978Y-42321463D01*
X71675353Y-42100000D01*
X71657315Y-41893817D01*
X71671304Y-41824212D01*
X71720704Y-41773220D01*
X71793817Y-41757315D01*
X71994525Y-41774874D01*
X72000000Y-41775353D01*
X72005475Y-41774874D01*
X72206183Y-41757315D01*
X72275788Y-41771304D01*
X72326780Y-41820704D01*
X72342685Y-41893817D01*
X72324647Y-42100000D01*
X72344022Y-42321463D01*
X72401560Y-42536196D01*
X72403882Y-42541177D01*
X72403883Y-42541178D01*
X72493186Y-42732689D01*
X72493189Y-42732694D01*
X72495512Y-42737676D01*
X72498668Y-42742183D01*
X72498669Y-42742185D01*
X72596575Y-42882009D01*
X72623023Y-42919781D01*
X72780219Y-43076977D01*
X72784727Y-43080134D01*
X72784730Y-43080136D01*
X72843294Y-43121143D01*
X72962323Y-43204488D01*
X72967305Y-43206811D01*
X72967310Y-43206814D01*
X73128254Y-43281863D01*
X73163804Y-43298440D01*
X73169112Y-43299862D01*
X73169114Y-43299863D01*
X73234949Y-43317503D01*
X73378537Y-43355978D01*
X73600000Y-43375353D01*
X73821463Y-43355978D01*
X73965051Y-43317503D01*
X74030886Y-43299863D01*
X74030888Y-43299862D01*
X74036196Y-43298440D01*
X74071746Y-43281863D01*
X74232690Y-43206814D01*
X74232695Y-43206811D01*
X74237677Y-43204488D01*
X74356706Y-43121143D01*
X74415270Y-43080136D01*
X74415273Y-43080134D01*
X74419781Y-43076977D01*
X74576977Y-42919781D01*
X74603426Y-42882009D01*
X74701331Y-42742185D01*
X74701332Y-42742183D01*
X74704488Y-42737676D01*
X74706811Y-42732694D01*
X74706814Y-42732689D01*
X74796117Y-42541178D01*
X74796118Y-42541177D01*
X74798440Y-42536196D01*
X74855978Y-42321463D01*
X74875353Y-42100000D01*
X74855978Y-41878537D01*
X74810385Y-41708384D01*
X74799863Y-41669114D01*
X74799862Y-41669112D01*
X74798440Y-41663804D01*
X74771606Y-41606258D01*
X74706814Y-41467311D01*
X74706811Y-41467306D01*
X74704488Y-41462324D01*
X74691840Y-41444261D01*
X74580136Y-41284730D01*
X74580134Y-41284727D01*
X74576977Y-41280219D01*
X74419781Y-41123023D01*
X74415273Y-41119866D01*
X74415270Y-41119864D01*
X74286342Y-41029588D01*
X74237677Y-40995512D01*
X74232695Y-40993189D01*
X74232690Y-40993186D01*
X74041178Y-40903883D01*
X74041177Y-40903882D01*
X74036196Y-40901560D01*
X74030888Y-40900138D01*
X74030886Y-40900137D01*
X73965051Y-40882497D01*
X73821463Y-40844022D01*
X73600000Y-40824647D01*
X73594525Y-40825126D01*
X73393817Y-40842685D01*
X73324212Y-40828696D01*
X73273220Y-40779296D01*
X73257315Y-40706183D01*
X73274166Y-40513567D01*
X73275353Y-40500000D01*
X73255978Y-40278537D01*
X73207240Y-40096645D01*
X73199863Y-40069114D01*
X73199862Y-40069112D01*
X73198440Y-40063804D01*
X73196117Y-40058822D01*
X73106814Y-39867311D01*
X73106811Y-39867306D01*
X73104488Y-39862324D01*
X73101331Y-39857816D01*
X73101328Y-39857810D01*
X72991998Y-39701670D01*
X72969310Y-39634396D01*
X72986595Y-39565536D01*
X73038365Y-39516952D01*
X73095211Y-39503400D01*
X85777240Y-39503400D01*
X85845361Y-39523402D01*
X85866335Y-39540305D01*
X86992774Y-40666744D01*
X87026800Y-40729056D01*
X87029237Y-40745296D01*
X87037665Y-40845657D01*
X87041668Y-40893334D01*
X87043367Y-40899258D01*
X87092984Y-41072293D01*
X87096183Y-41083450D01*
X87186587Y-41259356D01*
X87309435Y-41414353D01*
X87314128Y-41418347D01*
X87314129Y-41418348D01*
X87371661Y-41467311D01*
X87460050Y-41542536D01*
X87632694Y-41639024D01*
X87820792Y-41700140D01*
X88017177Y-41723558D01*
X88023312Y-41723086D01*
X88023314Y-41723086D01*
X88208230Y-41708857D01*
X88208234Y-41708856D01*
X88214372Y-41708384D01*
X88404863Y-41655198D01*
X88410367Y-41652418D01*
X88410369Y-41652417D01*
X88575895Y-41568804D01*
X88575897Y-41568803D01*
X88581396Y-41566025D01*
X88737247Y-41444261D01*
X88866478Y-41294545D01*
X88964169Y-41122579D01*
X89026597Y-40934913D01*
X89051385Y-40738695D01*
X89051780Y-40710400D01*
X89032480Y-40513567D01*
X88975316Y-40324231D01*
X88882466Y-40149604D01*
X88764109Y-40004484D01*
X88761360Y-40001113D01*
X88761357Y-40001110D01*
X88757465Y-39996338D01*
X88736164Y-39978716D01*
X88609825Y-39874199D01*
X88609821Y-39874197D01*
X88605075Y-39870270D01*
X88431101Y-39776202D01*
X88242168Y-39717718D01*
X88236043Y-39717074D01*
X88236042Y-39717074D01*
X88171742Y-39710316D01*
X88069220Y-39699541D01*
X88003564Y-39672528D01*
X87993296Y-39663326D01*
X86644350Y-38314380D01*
X86638496Y-38308115D01*
X86638101Y-38307662D01*
X86600461Y-38264515D01*
X86548180Y-38227771D01*
X86542886Y-38223839D01*
X86498593Y-38189109D01*
X86492618Y-38184424D01*
X86485702Y-38181301D01*
X86483416Y-38179917D01*
X86468735Y-38171543D01*
X86466375Y-38170278D01*
X86460161Y-38165910D01*
X86453082Y-38163150D01*
X86453080Y-38163149D01*
X86400625Y-38142698D01*
X86394556Y-38140147D01*
X86336327Y-38113855D01*
X86328860Y-38112471D01*
X86326305Y-38111670D01*
X86310052Y-38107041D01*
X86307472Y-38106378D01*
X86300391Y-38103618D01*
X86292860Y-38102627D01*
X86292858Y-38102626D01*
X86263239Y-38098727D01*
X86237039Y-38095278D01*
X86230541Y-38094248D01*
X86167714Y-38082604D01*
X86160134Y-38083041D01*
X86160133Y-38083041D01*
X86105508Y-38086191D01*
X86098254Y-38086400D01*
X85216377Y-38086400D01*
X85148256Y-38066398D01*
X85101763Y-38012742D01*
X85091659Y-37942468D01*
X85102182Y-37907151D01*
X85126859Y-37854230D01*
X85126861Y-37854225D01*
X85129184Y-37849243D01*
X85140162Y-37808275D01*
X85187019Y-37633402D01*
X85187019Y-37633400D01*
X85188443Y-37628087D01*
X85208398Y-37400000D01*
X85188443Y-37171913D01*
X85129184Y-36950757D01*
X85047627Y-36775856D01*
X85034749Y-36748238D01*
X85034746Y-36748233D01*
X85032423Y-36743251D01*
X84943431Y-36616158D01*
X84904257Y-36560211D01*
X84904255Y-36560208D01*
X84901098Y-36555700D01*
X84739200Y-36393802D01*
X84734692Y-36390645D01*
X84734689Y-36390643D01*
X84727735Y-36385774D01*
X89638102Y-36385774D01*
X89646751Y-36616158D01*
X89694093Y-36841791D01*
X89696051Y-36846750D01*
X89696052Y-36846752D01*
X89735159Y-36945775D01*
X89778776Y-37056221D01*
X89781543Y-37060780D01*
X89781544Y-37060783D01*
X89846689Y-37168138D01*
X89898377Y-37253317D01*
X89901874Y-37257347D01*
X90025662Y-37400000D01*
X90049477Y-37427445D01*
X90070521Y-37444700D01*
X90223627Y-37570240D01*
X90223633Y-37570244D01*
X90227755Y-37573624D01*
X90232391Y-37576263D01*
X90232394Y-37576265D01*
X90323433Y-37628087D01*
X90428114Y-37687675D01*
X90644825Y-37766337D01*
X90650074Y-37767286D01*
X90650077Y-37767287D01*
X90867608Y-37806623D01*
X90867615Y-37806624D01*
X90871692Y-37807361D01*
X90889414Y-37808197D01*
X90894356Y-37808430D01*
X90894363Y-37808430D01*
X90895844Y-37808500D01*
X91057890Y-37808500D01*
X91124809Y-37802822D01*
X91224409Y-37794371D01*
X91224413Y-37794370D01*
X91229720Y-37793920D01*
X91234875Y-37792582D01*
X91234881Y-37792581D01*
X91447703Y-37737343D01*
X91447707Y-37737342D01*
X91452872Y-37736001D01*
X91457738Y-37733809D01*
X91457741Y-37733808D01*
X91617808Y-37661703D01*
X91663075Y-37641312D01*
X91854319Y-37512559D01*
X91864318Y-37503021D01*
X91956773Y-37414822D01*
X92021135Y-37353424D01*
X92053938Y-37309336D01*
X92155568Y-37172740D01*
X92158754Y-37168458D01*
X92168427Y-37149434D01*
X92260822Y-36967704D01*
X92263240Y-36962949D01*
X92295516Y-36859006D01*
X92330024Y-36747871D01*
X92331607Y-36742773D01*
X92335400Y-36714156D01*
X92361198Y-36519511D01*
X92361198Y-36519506D01*
X92361898Y-36514226D01*
X92353249Y-36283842D01*
X92305907Y-36058209D01*
X92303948Y-36053248D01*
X92223185Y-35848744D01*
X92223184Y-35848742D01*
X92221224Y-35843779D01*
X92152391Y-35730345D01*
X92104390Y-35651243D01*
X92101623Y-35646683D01*
X92075920Y-35617063D01*
X91954023Y-35476588D01*
X91954021Y-35476586D01*
X91950523Y-35472555D01*
X91908970Y-35438484D01*
X91776373Y-35329760D01*
X91776367Y-35329756D01*
X91772245Y-35326376D01*
X91767609Y-35323737D01*
X91767606Y-35323735D01*
X91576529Y-35214968D01*
X91571886Y-35212325D01*
X91355175Y-35133663D01*
X91349926Y-35132714D01*
X91349923Y-35132713D01*
X91132392Y-35093377D01*
X91132385Y-35093376D01*
X91128308Y-35092639D01*
X91110586Y-35091803D01*
X91105644Y-35091570D01*
X91105637Y-35091570D01*
X91104156Y-35091500D01*
X90942110Y-35091500D01*
X90875191Y-35097178D01*
X90775591Y-35105629D01*
X90775587Y-35105630D01*
X90770280Y-35106080D01*
X90765125Y-35107418D01*
X90765119Y-35107419D01*
X90552297Y-35162657D01*
X90552293Y-35162658D01*
X90547128Y-35163999D01*
X90542262Y-35166191D01*
X90542259Y-35166192D01*
X90433980Y-35214968D01*
X90336925Y-35258688D01*
X90145681Y-35387441D01*
X89978865Y-35546576D01*
X89841246Y-35731542D01*
X89736760Y-35937051D01*
X89735178Y-35942145D01*
X89735177Y-35942148D01*
X89690354Y-36086502D01*
X89668393Y-36157227D01*
X89667692Y-36162516D01*
X89642407Y-36353295D01*
X89638102Y-36385774D01*
X84727735Y-36385774D01*
X84656511Y-36335902D01*
X84551649Y-36262477D01*
X84546667Y-36260154D01*
X84546662Y-36260151D01*
X84349125Y-36168039D01*
X84349124Y-36168039D01*
X84344143Y-36165716D01*
X84338835Y-36164294D01*
X84338833Y-36164293D01*
X84128302Y-36107881D01*
X84128300Y-36107881D01*
X84122987Y-36106457D01*
X83894900Y-36086502D01*
X83666813Y-36106457D01*
X83661500Y-36107881D01*
X83661498Y-36107881D01*
X83450967Y-36164293D01*
X83450965Y-36164294D01*
X83445657Y-36165716D01*
X83440676Y-36168039D01*
X83440675Y-36168039D01*
X83243138Y-36260151D01*
X83243133Y-36260154D01*
X83238151Y-36262477D01*
X83133289Y-36335902D01*
X83055111Y-36390643D01*
X83055108Y-36390645D01*
X83050600Y-36393802D01*
X82904900Y-36539502D01*
X82842588Y-36573528D01*
X82771773Y-36568463D01*
X82714937Y-36525916D01*
X82697768Y-36489263D01*
X82696645Y-36489684D01*
X82648667Y-36361703D01*
X82645515Y-36353295D01*
X82558161Y-36236739D01*
X82441605Y-36149385D01*
X82305216Y-36098255D01*
X82243034Y-36091500D01*
X80546766Y-36091500D01*
X80484584Y-36098255D01*
X80348195Y-36149385D01*
X80231639Y-36236739D01*
X80144285Y-36353295D01*
X80093155Y-36489684D01*
X80086400Y-36551866D01*
X80086400Y-37960400D01*
X80066398Y-38028521D01*
X80012742Y-38075014D01*
X79960400Y-38086400D01*
X65934500Y-38086400D01*
X65866379Y-38066398D01*
X65819886Y-38012742D01*
X65808500Y-37960400D01*
X65808500Y-37946766D01*
X65801745Y-37884584D01*
X65750615Y-37748195D01*
X65663261Y-37631639D01*
X65546705Y-37544285D01*
X65410316Y-37493155D01*
X65348134Y-37486400D01*
X63651866Y-37486400D01*
X63589684Y-37493155D01*
X63453295Y-37544285D01*
X63336739Y-37631639D01*
X63249385Y-37748195D01*
X63198255Y-37884584D01*
X63191500Y-37946766D01*
X63191500Y-39643034D01*
X63198255Y-39705216D01*
X63249385Y-39841605D01*
X63336739Y-39958161D01*
X63453295Y-40045515D01*
X63461703Y-40048667D01*
X63589684Y-40096645D01*
X63588954Y-40098591D01*
X63641205Y-40128445D01*
X63674021Y-40191403D01*
X63667591Y-40262107D01*
X63639502Y-40304900D01*
X63493802Y-40450600D01*
X63490645Y-40455108D01*
X63490643Y-40455111D01*
X63455378Y-40505475D01*
X63362477Y-40638151D01*
X63360154Y-40643133D01*
X63360151Y-40643138D01*
X63298296Y-40775788D01*
X63265716Y-40845657D01*
X63264294Y-40850965D01*
X63264293Y-40850967D01*
X63213720Y-41039707D01*
X63206457Y-41066813D01*
X63186502Y-41294900D01*
X60888036Y-41294900D01*
X60888074Y-41293365D01*
X60888074Y-41293361D01*
X60888156Y-41290000D01*
X60869852Y-41067361D01*
X60841821Y-40955765D01*
X60844625Y-40884825D01*
X60874930Y-40835974D01*
X61255794Y-40455111D01*
X61645123Y-40065782D01*
X61653402Y-40058248D01*
X61659883Y-40054135D01*
X61706509Y-40004483D01*
X61709263Y-40001642D01*
X61729000Y-39981905D01*
X61731480Y-39978708D01*
X61739185Y-39969686D01*
X61769451Y-39937456D01*
X61773270Y-39930510D01*
X61773272Y-39930507D01*
X61779213Y-39919701D01*
X61790064Y-39903182D01*
X61797623Y-39893436D01*
X61802479Y-39887176D01*
X61805624Y-39879907D01*
X61805627Y-39879903D01*
X61820039Y-39846598D01*
X61825256Y-39835948D01*
X61846560Y-39797195D01*
X61851598Y-39777572D01*
X61858002Y-39758869D01*
X61862898Y-39747555D01*
X61862898Y-39747554D01*
X61866046Y-39740280D01*
X61867285Y-39732457D01*
X61867288Y-39732447D01*
X61872964Y-39696611D01*
X61875370Y-39684991D01*
X61884393Y-39649846D01*
X61884393Y-39649845D01*
X61886365Y-39642165D01*
X61886365Y-39621911D01*
X61887916Y-39602200D01*
X61889845Y-39590021D01*
X61891085Y-39582192D01*
X61886924Y-39538173D01*
X61886365Y-39526316D01*
X61886365Y-38119593D01*
X61906367Y-38051472D01*
X61923270Y-38030498D01*
X66105635Y-33848134D01*
X75286400Y-33848134D01*
X75293155Y-33910316D01*
X75344285Y-34046705D01*
X75431639Y-34163261D01*
X75548195Y-34250615D01*
X75684584Y-34301745D01*
X75746766Y-34308500D01*
X77443034Y-34308500D01*
X77505216Y-34301745D01*
X77641605Y-34250615D01*
X77758161Y-34163261D01*
X77845515Y-34046705D01*
X77896645Y-33910316D01*
X77898591Y-33911046D01*
X77928445Y-33858795D01*
X77991403Y-33825979D01*
X78062107Y-33832409D01*
X78104900Y-33860498D01*
X78250600Y-34006198D01*
X78255108Y-34009355D01*
X78255111Y-34009357D01*
X78296442Y-34038297D01*
X78438151Y-34137523D01*
X78443133Y-34139846D01*
X78443138Y-34139849D01*
X78566215Y-34197240D01*
X78645657Y-34234284D01*
X78650965Y-34235706D01*
X78650967Y-34235707D01*
X78861498Y-34292119D01*
X78861500Y-34292119D01*
X78866813Y-34293543D01*
X79094900Y-34313498D01*
X79322987Y-34293543D01*
X79328300Y-34292119D01*
X79328302Y-34292119D01*
X79538833Y-34235707D01*
X79538835Y-34235706D01*
X79544143Y-34234284D01*
X79623585Y-34197240D01*
X79746662Y-34139849D01*
X79746667Y-34139846D01*
X79751649Y-34137523D01*
X79893358Y-34038297D01*
X79934689Y-34009357D01*
X79934692Y-34009355D01*
X79939200Y-34006198D01*
X80101098Y-33844300D01*
X80107799Y-33834731D01*
X80229266Y-33661257D01*
X80232423Y-33656749D01*
X80234746Y-33651767D01*
X80234749Y-33651762D01*
X80326861Y-33454225D01*
X80326861Y-33454224D01*
X80329184Y-33449243D01*
X80349113Y-33374870D01*
X80387019Y-33233402D01*
X80387019Y-33233400D01*
X80388443Y-33228087D01*
X80408398Y-33000000D01*
X80388443Y-32771913D01*
X80383792Y-32754554D01*
X80330607Y-32556067D01*
X80330606Y-32556065D01*
X80329184Y-32550757D01*
X80265227Y-32413600D01*
X80234749Y-32348238D01*
X80234746Y-32348233D01*
X80232423Y-32343251D01*
X80158998Y-32238389D01*
X80104257Y-32160211D01*
X80104255Y-32160208D01*
X80101098Y-32155700D01*
X79939200Y-31993802D01*
X79934692Y-31990645D01*
X79934689Y-31990643D01*
X79797348Y-31894476D01*
X79751649Y-31862477D01*
X79746667Y-31860154D01*
X79746662Y-31860151D01*
X79549125Y-31768039D01*
X79549124Y-31768039D01*
X79544143Y-31765716D01*
X79538835Y-31764294D01*
X79538833Y-31764293D01*
X79328302Y-31707881D01*
X79328300Y-31707881D01*
X79322987Y-31706457D01*
X79094900Y-31686502D01*
X78866813Y-31706457D01*
X78861500Y-31707881D01*
X78861498Y-31707881D01*
X78650967Y-31764293D01*
X78650965Y-31764294D01*
X78645657Y-31765716D01*
X78640676Y-31768039D01*
X78640675Y-31768039D01*
X78443138Y-31860151D01*
X78443133Y-31860154D01*
X78438151Y-31862477D01*
X78392452Y-31894476D01*
X78255111Y-31990643D01*
X78255108Y-31990645D01*
X78250600Y-31993802D01*
X78104900Y-32139502D01*
X78042588Y-32173528D01*
X77971773Y-32168463D01*
X77914937Y-32125916D01*
X77897768Y-32089263D01*
X77896645Y-32089684D01*
X77848667Y-31961703D01*
X77845515Y-31953295D01*
X77758161Y-31836739D01*
X77641605Y-31749385D01*
X77505216Y-31698255D01*
X77443034Y-31691500D01*
X75746766Y-31691500D01*
X75684584Y-31698255D01*
X75548195Y-31749385D01*
X75431639Y-31836739D01*
X75344285Y-31953295D01*
X75293155Y-32089684D01*
X75286400Y-32151866D01*
X75286400Y-33848134D01*
X66105635Y-33848134D01*
X66640364Y-33313405D01*
X66702676Y-33279379D01*
X66729459Y-33276500D01*
X66778233Y-33276500D01*
X66789416Y-33277027D01*
X66796909Y-33278702D01*
X66804835Y-33278453D01*
X66804836Y-33278453D01*
X66864986Y-33276562D01*
X66868945Y-33276500D01*
X66896856Y-33276500D01*
X66900791Y-33276003D01*
X66900856Y-33275995D01*
X66912693Y-33275062D01*
X66944951Y-33274048D01*
X66948970Y-33273922D01*
X66956889Y-33273673D01*
X66976343Y-33268021D01*
X66995700Y-33264013D01*
X67007930Y-33262468D01*
X67007931Y-33262468D01*
X67015797Y-33261474D01*
X67023168Y-33258555D01*
X67023170Y-33258555D01*
X67056912Y-33245196D01*
X67068142Y-33241351D01*
X67102983Y-33231229D01*
X67102984Y-33231229D01*
X67110593Y-33229018D01*
X67117412Y-33224985D01*
X67117417Y-33224983D01*
X67128028Y-33218707D01*
X67145776Y-33210012D01*
X67164617Y-33202552D01*
X67200387Y-33176564D01*
X67210307Y-33170048D01*
X67241535Y-33151580D01*
X67241538Y-33151578D01*
X67248362Y-33147542D01*
X67262683Y-33133221D01*
X67277717Y-33120380D01*
X67287694Y-33113131D01*
X67294107Y-33108472D01*
X67322298Y-33074395D01*
X67330288Y-33065616D01*
X67617778Y-32778126D01*
X67680090Y-32744100D01*
X67739484Y-32745514D01*
X67762358Y-32751643D01*
X67778537Y-32755978D01*
X68000000Y-32775353D01*
X68221463Y-32755978D01*
X68388210Y-32711298D01*
X68430886Y-32699863D01*
X68430888Y-32699862D01*
X68436196Y-32698440D01*
X68442460Y-32695519D01*
X68632690Y-32606814D01*
X68632695Y-32606811D01*
X68637677Y-32604488D01*
X68755352Y-32522091D01*
X68815270Y-32480136D01*
X68815273Y-32480134D01*
X68819781Y-32476977D01*
X68976977Y-32319781D01*
X69091868Y-32155700D01*
X69101331Y-32142185D01*
X69101332Y-32142183D01*
X69104488Y-32137676D01*
X69106811Y-32132694D01*
X69106814Y-32132689D01*
X69135805Y-32070517D01*
X69182723Y-32017232D01*
X69251000Y-31997771D01*
X69318960Y-32018313D01*
X69364195Y-32070517D01*
X69393186Y-32132689D01*
X69393189Y-32132694D01*
X69395512Y-32137676D01*
X69398668Y-32142183D01*
X69398669Y-32142185D01*
X69408133Y-32155700D01*
X69523023Y-32319781D01*
X69680219Y-32476977D01*
X69684727Y-32480134D01*
X69684730Y-32480136D01*
X69744648Y-32522091D01*
X69862323Y-32604488D01*
X69867305Y-32606811D01*
X69867310Y-32606814D01*
X70057540Y-32695519D01*
X70063804Y-32698440D01*
X70069112Y-32699862D01*
X70069114Y-32699863D01*
X70111790Y-32711298D01*
X70278537Y-32755978D01*
X70500000Y-32775353D01*
X70721463Y-32755978D01*
X70888210Y-32711298D01*
X70930886Y-32699863D01*
X70930888Y-32699862D01*
X70936196Y-32698440D01*
X70942460Y-32695519D01*
X71132690Y-32606814D01*
X71132695Y-32606811D01*
X71137677Y-32604488D01*
X71255352Y-32522091D01*
X71315270Y-32480136D01*
X71315273Y-32480134D01*
X71319781Y-32476977D01*
X71476977Y-32319781D01*
X71591868Y-32155700D01*
X71601331Y-32142185D01*
X71601332Y-32142183D01*
X71604488Y-32137676D01*
X71606811Y-32132694D01*
X71606814Y-32132689D01*
X71696117Y-31941178D01*
X71696118Y-31941177D01*
X71698440Y-31936196D01*
X71755978Y-31721463D01*
X71775353Y-31500000D01*
X71755978Y-31278537D01*
X71704489Y-31086380D01*
X71699863Y-31069114D01*
X71699862Y-31069112D01*
X71698440Y-31063804D01*
X71692018Y-31050031D01*
X71606814Y-30867311D01*
X71606811Y-30867306D01*
X71604488Y-30862324D01*
X71601331Y-30857816D01*
X71601328Y-30857810D01*
X71495569Y-30706770D01*
X71472881Y-30639496D01*
X71490166Y-30570636D01*
X71541936Y-30522052D01*
X71598782Y-30508500D01*
X103365500Y-30508500D01*
X103433621Y-30528502D01*
G37*
%TD.AperFunction*%
%TD*%
M02*
